<svg id="SvgjsSvg1815" width="550" height="550" xmlns="http://www.w3.org/2000/svg" version="1.1" xmlns:xlink="http://www.w3.org/1999/xlink" xmlns:svgjs="http://svgjs.com/svgjs"><defs id="SvgjsDefs1816"></defs><g id="SvgjsG1817"><svg xmlns="http://www.w3.org/2000/svg" viewBox="0 0 2500 2500" width="550" height="550"><path fill="#ffebf1" d="M2239.5,1194.5c0,33.1-1.7,65.9-4.9,98.1-49.2,485.3-458.9,863.9-957.1,863.9s-908-378.6-957.1-863.9a963.1,963.1,0,0,1-5-98.1c0-531.3,430.7-962.1,962.1-962.1S2239.5,663.2,2239.5,1194.5Z" class="colorffebf1 svgShape"></path><path fill="#f2c9d0" d="M2234.6,1292.6a970,970,0,0,1-25.7,143.5c-1.2,4.6-2.4,9.2-3.7,13.8a953.6,953.6,0,0,1-60.8,162.2c-4.2,8.7-8.6,17.4-13.1,26.1a964.3,964.3,0,0,1-135.4,196.1c-176.2,197.7-432.8,322.2-718.4,322.2S735.2,2032,559,1834.3a964.3,964.3,0,0,1-135.4-196.1c-4.5-8.7-8.9-17.4-13.1-26.1a954.5,954.5,0,0,1-45.6-112.2,966.5,966.5,0,0,1-28-102.1,956.3,956.3,0,0,1-16.5-105.2Z" class="colorf2c9d0 svgShape"></path><path fill="#d398a5" d="M559 1834.3H1995.9c-176.2 197.7-432.8 322.2-718.4 322.2S735.2 2032 559 1834.3zM2144.4 1612.1c-4.2 8.7-8.6 17.4-13.1 26.1H423.6c-4.5-8.7-8.9-17.4-13.1-26.1zM2208.9 1436.1c-1.2 4.6-2.4 9.2-3.7 13.8l-1840.3 50a966.5 966.5 0 01-28-102.1z" class="colord398a5 svgShape"></path><path fill="#f2c9d0" d="M1978.1,805.4c0-41.8-22.7-76.2-51.9-80.6a44,44,0,0,0,2.3-14.2c0-19.2-11.5-35.4-27.2-40.7a47,47,0,0,0,4.1-19.3c0-23.5-17.2-42.5-38.5-42.5a34.1,34.1,0,0,0-12.7,2.4c-12.5-9.6-25.9-15.7-39.9-17.7-5.2-15.9-19-27.2-35.2-27.2-14.3,0-26.7,8.9-33,21.9-31.7,3.6-56.5,33.3-56.5,69.4a71.1,71.1,0,0,0,.9,11.4c-19.2,14.1-32.8,49-32.8,89.8a173.5,173.5,0,0,0,2.8,31.3c-21.9,11.1-38.1,48.6-38.1,93.1,0,49.3,19.9,90,45.4,95.8a47,47,0,0,0-1.5,12c0,23.5,17.2,42.6,38.5,42.6a35.5,35.5,0,0,0,19.2-5.7c21.3,31.1,47.9,50.3,76.8,51.8,11.5,14,28.2,22.9,46.7,22.9,34.8,0,62.9-31.1,63.1-69.5,29.3-4.8,52.1-44.4,52.1-92.5,0-24.4-5.8-46.5-15.4-63.1C1965.6,863.2,1978.1,836.3,1978.1,805.4Z" class="colorf2c9d0 svgShape"></path><path fill="#d398a5" d="M1815.4,1351.6a2,2,0,0,1-2-2v-633a2,2,0,1,1,4,0v633A2,2,0,0,1,1815.4,1351.6Z" class="colord398a5 svgShape"></path><path fill="#d398a5" d="M1815.4 1048.1a1.8 1.8 0 01-1.6-.9l-86.1-131.4a2 2 0 113.3-2.2l86.1 131.4a2.1 2.1 0 01-.6 2.8A2 2 0 011815.4 1048.1zM1815.4 940.5a1.9 1.9 0 01-1-.3 2 2 0 01-.7-2.7l79-135.5a2.1 2.1 0 012.7-.7 1.9 1.9 0 01.7 2.7l-78.9 135.5A2.2 2.2 0 011815.4 940.5zM1815.4 837.9a1.9 1.9 0 01-1.5-.7l-60.4-70.6a1.9 1.9 0 01.2-2.8 2 2 0 012.8.2l60.4 70.6a1.9 1.9 0 01-.2 2.8A1.5 1.5 0 011815.4 837.9z" class="colord398a5 svgShape"></path><ellipse cx="1676.3" cy="807.5" fill="#d398a5" rx="9.6" ry="13.6" class="colord398a5 svgShape"></ellipse><ellipse cx="1697.2" cy="728.3" fill="#d398a5" rx="11.3" ry="17.2" class="colord398a5 svgShape"></ellipse><ellipse cx="1787.1" cy="682.6" fill="#d398a5" rx="7.2" ry="9.6" class="colord398a5 svgShape"></ellipse><ellipse cx="1864.6" cy="740.2" fill="#d398a5" rx="16.6" ry="30.7" class="colord398a5 svgShape"></ellipse><ellipse cx="1901" cy="878.4" fill="#d398a5" rx="6.6" ry="12.2" class="colord398a5 svgShape"></ellipse><ellipse cx="1868.1" cy="1004.3" fill="#d398a5" rx="13.1" ry="23.9" class="colord398a5 svgShape"></ellipse><path fill="#f2c9d0" d="M836.4,854.7c0-44.8-24.3-81.7-55.6-86.4a47.5,47.5,0,0,0,2.4-15.2c0-20.6-12.2-37.9-29.1-43.7a50,50,0,0,0,4.4-20.6c0-25.2-18.4-45.6-41.2-45.6a37.1,37.1,0,0,0-13.7,2.6c-13.3-10.3-27.7-16.8-42.7-18.9-5.6-17.1-20.4-29.2-37.7-29.2-15.4,0-28.7,9.5-35.4,23.5-34,3.8-60.6,35.6-60.6,74.3a82.8,82.8,0,0,0,.9,12.3c-20.5,15.1-35,52.5-35,96.3a187.9,187.9,0,0,0,2.9,33.4c-23.5,12-40.8,52.1-40.8,99.8,0,52.9,21.3,96.5,48.7,102.7a49.6,49.6,0,0,0-1.7,12.9c0,25.2,18.5,45.7,41.3,45.7a38.1,38.1,0,0,0,20.6-6.2c22.8,33.4,51.3,53.9,82.3,55.5,12.4,15.1,30.2,24.6,50.1,24.6,37.2,0,67.4-33.3,67.6-74.5,31.3-5.1,55.8-47.5,55.8-99.2,0-26-6.2-49.8-16.4-67.5C823.1,916.6,836.4,887.8,836.4,854.7Z" class="colorf2c9d0 svgShape"></path><path fill="#d398a5" d="M662.1,1440.1a2,2,0,0,1-2-2V759.6a2,2,0,0,1,4,0v678.5A2,2,0,0,1,662.1,1440.1Z" class="colord398a5 svgShape"></path><path fill="#d398a5" d="M662.1 1114.7a2 2 0 01-1.7-.9L568.1 973a2.1 2.1 0 01.6-2.8 2 2 0 012.8.6l92.2 140.8a1.9 1.9 0 01-.5 2.8A2.3 2.3 0 01662.1 1114.7zM662.1 999.3a1.6 1.6 0 01-1-.2 2.1 2.1 0 01-.8-2.8L745 851.2a2 2 0 012.8-.7 2 2 0 01.7 2.7L663.8 998.4A2 2 0 01662.1 999.3zM662.1 889.4a1.7 1.7 0 01-1.5-.7L595.8 813a1.9 1.9 0 01.2-2.8 2 2 0 012.8.2l64.8 75.7a2.2 2.2 0 01-.2 2.9A2.2 2.2 0 01662.1 889.4z" class="colord398a5 svgShape"></path><ellipse cx="512.9" cy="856.9" fill="#d398a5" rx="10.3" ry="14.6" class="colord398a5 svgShape"></ellipse><ellipse cx="535.3" cy="772.1" fill="#d398a5" rx="12.1" ry="18.4" class="colord398a5 svgShape"></ellipse><ellipse cx="631.7" cy="723.1" fill="#d398a5" rx="7.7" ry="10.3" class="colord398a5 svgShape"></ellipse><ellipse cx="714.8" cy="784.8" fill="#d398a5" rx="17.8" ry="32.9" class="colord398a5 svgShape"></ellipse><ellipse cx="753.8" cy="933" fill="#d398a5" rx="7.1" ry="13.1" class="colord398a5 svgShape"></ellipse><ellipse cx="718.5" cy="1067.9" fill="#d398a5" rx="14.1" ry="25.6" class="colord398a5 svgShape"></ellipse><path fill="#f2c9d0" d="M948,1008.5c0-30.5-16.5-55.5-37.8-58.7a32.8,32.8,0,0,0,1.6-10.4c0-14-8.3-25.8-19.8-29.7a34.6,34.6,0,0,0,3-14.1c0-17.1-12.6-31.1-28.1-31.1a26.5,26.5,0,0,0-9.3,1.8c-9.1-7-18.8-11.4-29.1-12.9-3.8-11.6-13.9-19.9-25.7-19.9s-19.5,6.5-24,16c-23.2,2.7-41.3,24.3-41.3,50.7a56.9,56.9,0,0,0,.6,8.3c-14,10.3-23.9,35.8-23.9,65.6a127.9,127.9,0,0,0,2.1,22.8c-16,8.1-27.8,35.4-27.8,67.9,0,36,14.4,65.7,33.1,69.9a36.8,36.8,0,0,0-1.1,8.9c0,17.1,12.5,31,28.1,31a25.3,25.3,0,0,0,14-4.2c15.5,22.8,34.9,36.7,56.1,37.8,8.4,10.3,20.5,16.8,34.1,16.8,25.3,0,45.9-22.7,46-50.7,21.4-3.5,38-32.4,38-67.6,0-17.7-4.2-33.9-11.2-46C939,1050.7,948,1031.1,948,1008.5Z" class="colorf2c9d0 svgShape"></path><path fill="#d398a5" d="M829.3,1407.8a2,2,0,0,1-2-2v-462a2,2,0,0,1,4,0v462A2,2,0,0,1,829.3,1407.8Z" class="colord398a5 svgShape"></path><path fill="#d398a5" d="M829.3 1186.3a2 2 0 01-1.6-.9l-62.9-96a2 2 0 01.6-2.7 2 2 0 012.8.5l62.8 96a1.9 1.9 0 01-.6 2.7A1.5 1.5 0 01829.3 1186.3zM829.3 1107.7a1.9 1.9 0 01-1-.3 2 2 0 01-.7-2.7l57.7-98.9a2 2 0 012.7-.7 2.1 2.1 0 01.7 2.8l-57.6 98.8A2.2 2.2 0 01829.3 1107.7zM829.3 1032.9a2.3 2.3 0 01-1.5-.7l-44.1-51.6a2 2 0 013-2.6l44.2 51.6a2 2 0 01-.3 2.8A1.9 1.9 0 01829.3 1032.9z" class="colord398a5 svgShape"></path><ellipse cx="727.8" cy="1010.1" fill="#d398a5" rx="7" ry="10" class="colord398a5 svgShape"></ellipse><ellipse cx="743" cy="952.3" fill="#d398a5" rx="8.2" ry="12.6" class="colord398a5 svgShape"></ellipse><ellipse cx="808.7" cy="918.9" fill="#d398a5" rx="5.2" ry="7" class="colord398a5 svgShape"></ellipse><ellipse cx="865.2" cy="961" fill="#d398a5" rx="12.1" ry="22.4" class="colord398a5 svgShape"></ellipse><ellipse cx="891.8" cy="1061.9" fill="#d398a5" rx="4.8" ry="8.9" class="colord398a5 svgShape"></ellipse><ellipse cx="867.8" cy="1153.7" fill="#d398a5" rx="9.6" ry="17.4" class="colord398a5 svgShape"></ellipse><path fill="#f2c9d0" d="M2045.1,980.1c0-26.6-14.4-48.4-32.9-51.2a29.3,29.3,0,0,0,1.4-9c0-12.2-7.3-22.4-17.2-25.8a30.6,30.6,0,0,0,2.6-12.2c0-15-10.9-27.1-24.4-27.1a21.7,21.7,0,0,0-8.1,1.6c-7.9-6.1-16.4-10-25.4-11.2-3.3-10.1-12-17.3-22.3-17.3s-16.9,5.6-20.9,13.9c-20.2,2.3-35.9,21.1-35.9,44a58.4,58.4,0,0,0,.5,7.3c-12.1,8.9-20.7,31.1-20.7,57a114.1,114.1,0,0,0,1.7,19.8c-13.9,7.1-24.1,30.9-24.1,59.1,0,31.3,12.5,57.2,28.8,60.8a28,28,0,0,0-1,7.7c0,14.9,10.9,27,24.4,27a22.7,22.7,0,0,0,12.3-3.6c13.4,19.8,30.3,31.9,48.7,32.8,7.3,9,17.9,14.6,29.6,14.6,22.1,0,40-19.7,40.1-44.1,18.5-3,33.1-28.2,33.1-58.8,0-15.4-3.7-29.4-9.8-40C2037.2,1016.8,2045.1,999.7,2045.1,980.1Z" class="colorf2c9d0 svgShape"></path><path fill="#d398a5" d="M1941.9,1327.6a2,2,0,0,1-2-2V923.8a2,2,0,1,1,4,0v401.8A2,2,0,0,1,1941.9,1327.6Z" class="colord398a5 svgShape"></path><path fill="#d398a5" d="M1941.9 1134.9a2 2 0 01-1.7-.9l-54.7-83.4a2.1 2.1 0 01.6-2.8 2.1 2.1 0 012.8.6l54.6 83.4a2 2 0 01-.5 2.8zM1941.9 1066.6a1.7 1.7 0 01-1-.3 2 2 0 01-.8-2.7l50.2-86a2 2 0 013.4 2l-50.1 86A2.2 2.2 0 011941.9 1066.6zM1941.9 1001.5a2.4 2.4 0 01-1.6-.7L1902 955.9a1.9 1.9 0 01.2-2.8 2 2 0 012.8.2l38.4 44.9a2 2 0 01-.2 2.8A2.4 2.4 0 011941.9 1001.5z" class="colord398a5 svgShape"></path><ellipse cx="1853.5" cy="981.4" fill="#d398a5" rx="6.1" ry="8.7" class="colord398a5 svgShape"></ellipse><ellipse cx="1866.8" cy="931.2" fill="#d398a5" rx="7.1" ry="10.9" class="colord398a5 svgShape"></ellipse><ellipse cx="1923.9" cy="902.1" fill="#d398a5" rx="4.5" ry="6.1" class="colord398a5 svgShape"></ellipse><ellipse cx="1973.1" cy="938.7" fill="#d398a5" rx="10.6" ry="19.5" class="colord398a5 svgShape"></ellipse><ellipse cx="1996.2" cy="1026.5" fill="#d398a5" rx="4.2" ry="7.7" class="colord398a5 svgShape"></ellipse><ellipse cx="1975.3" cy="1106.3" fill="#d398a5" rx="8.3" ry="15.1" class="colord398a5 svgShape"></ellipse><path fill="#f2c9d0" d="M2189.1,1031.8c0-22.6-12.2-41.1-28-43.5a24.3,24.3,0,0,0,1.2-7.7c0-10.3-6.1-19.1-14.6-21.9a25.8,25.8,0,0,0,2.2-10.4c0-12.7-9.3-23-20.8-23a20.1,20.1,0,0,0-6.9,1.3c-6.7-5.2-13.9-8.5-21.5-9.5-2.8-8.6-10.2-14.7-19-14.7s-14.4,4.8-17.8,11.8c-17.1,1.9-30.5,18-30.5,37.4a42.1,42.1,0,0,0,.5,6.2c-10.4,7.6-17.7,26.5-17.7,48.5a89.7,89.7,0,0,0,1.5,16.8c-11.8,6.1-20.5,26.3-20.5,50.3,0,26.6,10.7,48.6,24.5,51.7a23.7,23.7,0,0,0-.9,6.5c0,12.7,9.3,23,20.8,23a18.9,18.9,0,0,0,10.4-3.1c11.5,16.8,25.8,27.1,41.4,28a32.8,32.8,0,0,0,25.3,12.3c18.7,0,33.9-16.7,34-37.5,15.8-2.5,28.1-23.9,28.1-49.9,0-13.1-3.1-25.1-8.3-34C2182.4,1063,2189.1,1048.5,2189.1,1031.8Z" class="colorf2c9d0 svgShape"></path><path fill="#d398a5" d="M2101.3,1327.6a2,2,0,0,1-2-2V983.9a2,2,0,0,1,4,0v341.7A2,2,0,0,1,2101.3,1327.6Z" class="colord398a5 svgShape"></path><path fill="#d398a5" d="M2101.3 1163.7a1.8 1.8 0 01-1.6-.9l-46.5-70.9a2 2 0 01.6-2.8 2 2 0 012.7.6l46.5 70.9a2.1 2.1 0 01-.6 2.8A2 2 0 012101.3 1163.7zM2101.3 1105.6l-1-.2a2.1 2.1 0 01-.7-2.8l42.6-73.1a2 2 0 013.5 2l-42.6 73.1A2 2 0 012101.3 1105.6zM2101.3 1050.3a2.3 2.3 0 01-1.5-.7l-32.6-38.1a2.2 2.2 0 01.2-2.9 2 2 0 012.8.3l32.6 38.1a1.9 1.9 0 01-.2 2.8A2.1 2.1 0 012101.3 1050.3z" class="colord398a5 svgShape"></path><ellipse cx="2026.2" cy="1032.9" fill="#d398a5" rx="5.2" ry="7.4" class="colord398a5 svgShape"></ellipse><ellipse cx="2037.5" cy="990.2" fill="#d398a5" rx="6.1" ry="9.3" class="colord398a5 svgShape"></ellipse><ellipse cx="2086" cy="965.5" fill="#d398a5" rx="3.9" ry="5.2" class="colord398a5 svgShape"></ellipse><ellipse cx="2127.9" cy="996.6" fill="#d398a5" rx="9" ry="16.6" class="colord398a5 svgShape"></ellipse><ellipse cx="2147.5" cy="1071.2" fill="#d398a5" rx="3.6" ry="6.6" class="colord398a5 svgShape"></ellipse><ellipse cx="2129.7" cy="1139.1" fill="#d398a5" rx="7.1" ry="12.9" class="colord398a5 svgShape"></ellipse><path fill="#f2c9d0" d="M1042.2,869.1c0-22.6-12.2-41.1-27.9-43.5a27.6,27.6,0,0,0,1.2-7.7c0-10.3-6.2-19.1-14.7-22a25,25,0,0,0,2.2-10.3c0-12.7-9.3-23-20.7-23a17.7,17.7,0,0,0-6.9,1.3,44.9,44.9,0,0,0-21.6-9.5c-2.8-8.6-10.2-14.8-18.9-14.8s-14.5,4.8-17.8,11.9c-17.2,1.9-30.5,17.9-30.5,37.4a42.1,42.1,0,0,0,.4,6.2c-10.3,7.6-17.7,26.5-17.7,48.5a100,100,0,0,0,1.5,16.8c-11.8,6.1-20.5,26.3-20.5,50.3,0,26.6,10.7,48.6,24.5,51.7a28.2,28.2,0,0,0-.8,6.5c0,12.7,9.3,23,20.7,23a18.7,18.7,0,0,0,10.4-3.1c11.5,16.8,25.9,27.1,41.5,27.9a32.5,32.5,0,0,0,25.2,12.4c18.7,0,33.9-16.8,34-37.5,15.8-2.6,28.2-23.9,28.2-49.9,0-13.2-3.2-25.1-8.3-34.1C1035.5,900.3,1042.2,885.8,1042.2,869.1Z" class="colorf2c9d0 svgShape"></path><path fill="#d398a5" d="M954.5,1381.6a2,2,0,0,1-2-2V821.2a2,2,0,0,1,4,0v558.4A2,2,0,0,1,954.5,1381.6Z" class="colord398a5 svgShape"></path><path fill="#d398a5" d="M954.5 1001a2 2 0 01-1.7-.9l-46.5-70.9a2 2 0 113.4-2.2l46.4 70.9a2 2 0 01-.5 2.8zM954.5 942.9a1.7 1.7 0 01-1-.3 2 2 0 01-.8-2.7l42.7-73.1a1.9 1.9 0 012.7-.7 1.9 1.9 0 01.7 2.7l-42.6 73.1A2 2 0 01954.5 942.9zM954.5 887.6a2.4 2.4 0 01-1.6-.7l-32.6-38.2a2 2 0 113-2.6L956 884.3a2 2 0 01-.2 2.8A2.4 2.4 0 01954.5 887.6z" class="colord398a5 svgShape"></path><ellipse cx="879.3" cy="870.2" fill="#d398a5" rx="5.2" ry="7.4" class="colord398a5 svgShape"></ellipse><ellipse cx="890.6" cy="827.5" fill="#d398a5" rx="6.1" ry="9.3" class="colord398a5 svgShape"></ellipse><ellipse cx="939.2" cy="802.8" fill="#d398a5" rx="3.9" ry="5.2" class="colord398a5 svgShape"></ellipse><ellipse cx="981" cy="833.9" fill="#d398a5" rx="9" ry="16.6" class="colord398a5 svgShape"></ellipse><ellipse cx="1000.7" cy="908.5" fill="#d398a5" rx="3.6" ry="6.6" class="colord398a5 svgShape"></ellipse><ellipse cx="982.9" cy="976.4" fill="#d398a5" rx="7.1" ry="12.9" class="colord398a5 svgShape"></ellipse><path fill="#f2c9d0" d="M2032.8 2226.5s-28.7-11.7-18-27.1 21.6 7.1 21.6 7.1-2-53.9 23.2-54.4 17.4 34.4 17.4 34.4 19.4-51.4 32.1-46.2 0 36.9 0 36.9 23.7-28.2 29.2-11.3-10.4 33.5-10.4 33.5 23.6-7.2 24.7 1.5-10.3 14.9-10.3 14.9 19.5-9.3 22.1 3.1-10.3 19.3-10.3 19.3zM1005.6 2226.5S983 2205 992.8 2186s24.1 11.8 24.1 11.8 1-70.4 28.8-70.9 11.8 59.6 11.8 59.6c-10.5 16.9 8.1-44.2 22.6-16.4 5.7 10.8-3.1 20.5-3.1 20.5s24.7-44.2 39.6-30.8 0 40.1 0 40.1 20-17.5 29.8-2.6-12.8 31.9-12.8 31.9zM1553.4 2230.7s-34.9-14.9-29.8-30.3 29.8 4.6 29.8 4.6-8.7-44.1 4.1-47.5c-6.2 1.7 15.1 28.5 15.5 33.5 0 0 10.8-22.5 18.5-10.7s0 25.7 0 25.7 11.8-20.9 21.5-12 3.6 16.7 3.6 16.7 13.4-8.8 17.5-2.1-7.7 26.2-7.7 26.2z" class="colorf2c9d0 svgShape"></path><path fill="#181223" d="M1175.9,1109.3s-120.1,169.1-125.1,198.3,20.1,109.1,22.1,115.2S1233,1718.5,1239,1722.4s88,1.2,83.7-25.9-79.5-231.3-88.4-258.4-32.6-85.1-32.6-85.1,102.8-54.7,133.9-125.2S1327.1,1041.3,1175.9,1109.3Z" class="color181223 svgShape"></path><path fill="#ffb6b1" d="M1116.2,668.4s32.4,48.9,85.5,37.9,38.5-114.8,38.5-114.8-29-15.8-41.6-40.9a91.4,91.4,0,0,1-6.8-20.5c-4.6-21.8-3.2-44.1-3.2-44.1l-73.5,30.3s1,2.6,15.4,48c3.5,11,4.4,22.7,3.9,34.1C1132.8,634.6,1116.2,668.4,1116.2,668.4Z" class="colorffb6b1 svgShape"></path><path fill="#f47382" d="M1134.4,598.4c9.1,10.8,17.9,20.6,21,22,7.4,3.4,24.9-22.9,32.9-56.7,2.3-9.8,3.3-21.7,3.5-33.6-4.6-21.8-3.2-44.1-3.2-44.1l-73.5,30.3s1,2.6,15.4,48C1134,575.3,1134.9,587,1134.4,598.4Z" class="colorf47382 svgShape"></path><path fill="#302342" d="M1215.4,439.9a180,180,0,0,1-7.4,28.5,23.2,23.2,0,0,0,.5-7.6c-.6-6-3.6-14.2-14.7-20.6-9.6-5.4-25.1-9.5-50.1-9.5-76.3,0-114.5,62.8-114.5,62.8s-23.6-4.6-40.7-31.3-17.4-47.4-9.1-50.4,17.7-.3,17.7-.3-15.8-24.3-5.9-34.6,29.4-2.7,29.4-2.7,48.9-43.1,99.7-31.4,57.6,30.1,57.6,30.1,11.1-8.2,30.9,15.9C1219.2,401.4,1218.5,422.6,1215.4,439.9Z" class="color302342 svgShape"></path><path fill="#302342" d="M1206.6,427.9a88.3,88.3,0,0,1,2,11.6,83.9,83.9,0,0,1-.1,21.3c-4.9,36.9-33.2,54.8-33.2,54.8l-35.3-2.1-97.9-5.8a113.3,113.3,0,0,1-12.9-14.2c-9.9-12.9-21.9-33.7-21.2-58.4,1.2-41.8,38.8-73.3,88.1-80.1S1193,368.7,1206.6,427.9Z" class="color302342 svgShape"></path><path fill="#54355e" d="M1208,468.4a23.2,23.2,0,0,0,.5-7.6c-4.9,36.9-33.2,54.8-33.2,54.8l-35.3-2.1v-.2c9.7-47.5,20.7-65.4,20.7-65.4a157.9,157.9,0,0,1,33.1-7.7,120.3,120.3,0,0,1,14.8-.7l6.8.4A180,180,0,0,1,1208,468.4Z" class="color54355e svgShape"></path><path fill="#ffb6b1" d="M1075.7,592.7c21.7,21.8,35,20.5,48.4,16.5s22.2-10.1,26.6-12.4h.1c13.6-10.6,27-23.9,31.7-33.7,7.1-15,9.1-46.6,9.2-49.8v-.2s33.4-2.1,34.5-20.1-9.8-25.6-20.1-27-25.4,4.3-26.4,7.9,2.1,19.5,0,21-5,2.5-6.6,1.1-2.7-7.9-5-17a140.6,140.6,0,0,0-3.4-13.9c-1.7-7.1-3.2-13.6-4-17.2,0,0-12.6,8.4-38.6,9A204.4,204.4,0,0,1,1077,453s-35.6,19.5-53.4,16.4c0,0,6.4,30.4,10.3,39.1s8,14.3,8.9,22.5a79,79,0,0,0,1.9,9.9h0C1045.2,542.8,1054.7,571.6,1075.7,592.7Z" class="colorffb6b1 svgShape"></path><path fill="#f47382" d="M1205.4,504.2c-5,1.8-7.4.1-8.3-1.2s-1.4-4.4.2-6.6l.4-.7c2.6-3.5,2.2-3.9,1.3-4.7s-1.1-.6-1.2-.6a2.6,2.6,0,0,0-.8,1.5,14,14,0,0,0-.4,2.9,2.7,2.7,0,1,1-5.3.1,20,20,0,0,1,.5-4.1,7.1,7.1,0,0,1,4.2-5.4h0c1.4-.5,3.6-.7,6.2,1.4,5.5,4.2,1.6,9.7-.1,12l-.5.6c0,.1,0,.2-.1.2a7.2,7.2,0,0,0,2.3-.5c2.2-.9,6.4-6.8,6.7-12.9a9.5,9.5,0,0,0-5.4-9.7c-2.7-1.4-5-1.6-7.1-.7-5,2.1-7.3,10-7.3,10.1a2.7,2.7,0,0,1-3.3,1.8,2.6,2.6,0,0,1-1.8-3.2c.1-.5,2.9-10.4,10.3-13.6q5.4-2.4,11.7.9a14.7,14.7,0,0,1,8.2,14.7c-.4,7.9-5.7,15.8-10.1,17.5Z" class="colorf47382 svgShape"></path><ellipse cx="1108.7" cy="495.2" fill="#302342" rx="6.2" ry="9.4" transform="rotate(-25.1 1110.818 495.512)" class="color302342 svgShape"></ellipse><ellipse cx="1058.5" cy="514.6" fill="#302342" rx="5.7" ry="8.4" transform="rotate(-25.2 1056.775 514.296)" class="color302342 svgShape"></ellipse><path fill="#ce3a81" d="M1092.3,569.4a27.6,27.6,0,0,0,14.1,8.6,26.4,26.4,0,0,0,32.8-20.1,28.2,28.2,0,0,0-3.5-20.7,2,2,0,0,0-2.1-1,1.5,1.5,0,0,0-1.1.4L1092.7,566a3.2,3.2,0,0,0-.9,1.7A2.6,2.6,0,0,0,1092.3,569.4Z" class="colorce3a81 svgShape"></path><path fill="#ffffff" d="M1091.8,567.7c6.5.5,15.6-2.4,24.4-8.3,10.5-7.1,17.3-16.5,17.4-23.2a1.5,1.5,0,0,0-1.1.4L1092.7,566A3.2,3.2,0,0,0,1091.8,567.7Z" class="colorfff svgShape"></path><path fill="#f47382" d="M1106.4,578a26.4,26.4,0,0,0,32.8-20.1,38.8,38.8,0,0,0-15.5,3.6C1115.5,565.3,1109.4,571.5,1106.4,578Z" class="colorf47382 svgShape"></path><ellipse cx="1104.7" cy="492.8" fill="#ffffff" rx="2.6" ry="4.1" transform="rotate(-25.1 1106.176 493.064)" class="colorfff svgShape"></ellipse><ellipse cx="1054.6" cy="513.5" fill="#ffffff" rx="2.6" ry="4.1" transform="rotate(-25.1 1056.077 513.736)" class="colorfff svgShape"></ellipse><path fill="#f47382" d="M1094,548.5c-3.5,1.3-10.6,3.2-15.4-.2-6.4-4.7-3.2-10.6,0-16.3l.9-1.6c2.3-4.2-1.4-10.7-3.1-12.8a2.7,2.7,0,0,1,.6-3.7,2.6,2.6,0,0,1,3.7.5c.3.4,7.8,10.5,3.5,18.6l-.9,1.6c-3.7,6.6-3.8,7.7-1.5,9.4s9.8-.1,11.9-1.1a2.7,2.7,0,0,1,3.6,1.3,2.7,2.7,0,0,1-1.3,3.5Z" class="colorf47382 svgShape"></path><path fill="#302342" d="M1112 476.7a2.5 2.5 0 01-1.9-.1c-6.3-2.4-13.6 2.2-13.7 2.2a2.7 2.7 0 01-2.9-4.5c.4-.3 9.7-6 18.5-2.6a2.6 2.6 0 011.6 3.4A2.8 2.8 0 011112 476.7zM1043.5 503.7a2.2 2.2 0 01-1.2.2 2.7 2.7 0 01-2.3-2.9c.4-3.9 3.9-11.3 14.4-12.1a2.7 2.7 0 01.4 5.3c-8.4.7-9.4 6.7-9.5 7.3A2.8 2.8 0 011043.5 503.7z" class="color302342 svgShape"></path><polygon fill="#ffebf1" points="1211.7 1081.2 1307.6 1121.1 1277.8 628.7 1189.9 606.1 1154 627.4 1133.2 619.2 1211.7 1081.2" class="colorffebf1 svgShape"></polygon><polygon fill="#ffffff" points="1133.2 619.2 1133.2 612.6 1154 622.9 1203.5 557.9 1222.8 575.8 1191.2 637.5 1154 627.4 1146.1 652 1133.2 619.2" class="colorfff svgShape"></polygon><path fill="#457e7f" d="M447.2 1257.3s-14.1 55.5-9.6 58.3 23-6.5 27.1-3.1 7.7 21 19.3 24.6 40.2-13.1 47.7-12.1 29.5 11.9 29.5 11.9 63.2-20.9-1.7-64S467.8 1216.4 447.2 1257.3zM613.6 1150.9s6.5-48.4 9.4-62.9 3.9-18.2 3.9-18.2-13.7-19.2-13.7-37.4 3.2-22.3 3.2-22.3 9 4.2 13.7 21.8 1.8 30.5 1.8 30.5 7.1-25.3 10.5-33.7 1.4-30.7 17.4-42.3 16.6-11.8 16.6-11.8 1 18.2-9.9 31.7a164.6 164.6 0 01-21.7 22.4l-10.6 33.4s6.3-12 23.8-21 21.7-8.9 21.7-8.9-5.5 17.4-18.2 26.5-31.5 12.1-31.5 12.1l-5.1 23.4s28.8-17.4 40-16.5l11.2.8a45.3 45.3 0 01-23.2 19.1c-16.2 5.8-28.5-.9-28.5-.9l-8 52.2zM591 1102.6s-21.4-45.3-27-59.3-6.8-17.8-6.8-17.8-22-9.7-32.1-25.4-9.7-21-9.7-21 9.8-.9 23.4 12 18.4 25.4 18.4 25.4-8.1-25.4-9.9-34.5-15.9-27.3-9-45.4 7.3-18.7 7.3-18.7 10.8 15.3 9.3 32.5a167.7 167.7 0 01-5.7 30.5l9.7 34.3s-1.3-13.7 8.2-30.3 13-18.7 13-18.7 5.1 17.8-.4 32.1-19.4 26.5-19.4 26.5l8.7 22.9s14.3-29.7 24.1-34.6l9.8-5a43.9 43.9 0 01-8.8 28.3c-10.2 13.3-24.1 13.7-24.1 13.7l22.2 49.3z" class="color457e7f svgShape"></path><path fill="#72b0b5" d="M562.9,1282.7s-151-14.1-146.8-58.6,43.2-28.9,43.2-28.9-55-47.6-42.1-82.4,41.2-2.1,41.2-2.1-43.6-117.6,18-120.7,72.7,80,72.7,80,2.1-53,22.9-38.8,21,88.8,21,88.8,8.3-53.3,30.1-49.5,19.2,66.8,19.2,67.4,9.4-57,37.7-29.9,3.1,144.3,3.1,144.3Z" class="color72b0b5 svgShape"></path><path fill="#ffebf1" d="M470.6,1274s-20.4,47.2-36,47.6-9.4-18.6-9.4-18.6-27.1,2.6-33.3-16.6,17.1-27,17.1-27-26.2-6.8-15.1-32.9,35.6-18.8,35.6-18.8-3.1-16.9,9.4-17.3,35.7,44,37,53.1S474.7,1268.5,470.6,1274Z" class="colorffebf1 svgShape"></path><path fill="#f4c9d0" d="M465.8,1262.5s-15.9,18-11.4,21.2,17.1-18.1,17.1-18.1-4.9,11.7-1.5,12.8,3.8-10.4,3.8-10.4,4.8-1.9,7.6-13.5-10.2-16.9-10.2-16.9-8.9-20.9-13.5-20.8,7.3,22.4,7.3,22.4-29.4-16.2-31.6-13.1,29.2,18.3,29.2,18.3-29.1-2.4-29.3,2.7,31.3,4.1,31.3,4.1-36.8,10.8-35.2,19.1,37.5-12.7,37.5-12.7-19.2,10.8-17,13.4S465.8,1262.5,465.8,1262.5Z" class="colorf4c9d0 svgShape"></path><path fill="#457e7f" d="M648.4,1157.1s-39-34.9-34.5-49.7,20.6-2.6,20.6-2.6,5.9-26.3,26.1-25.8,20.6,25.2,20.6,25.2,14.6-22.4,36.1-3.3,7.1,39.8,7.1,39.8,17.1,2.7,13.6,14.6-53,18.7-62.1,17S652.4,1162.8,648.4,1157.1Z" class="color457e7f svgShape"></path><path fill="#457e7f" d="M660.8,1156.4s-12.3-20.9-16.8-17.7,12.1,22.1,12.1,22.1-9.6-8.6-11.7-5.8,8.7,7.1,8.7,7.1.3,5.1,10.6,11.7,19.3-4,19.3-4,22.7-1.3,24-5.7-23.6-.6-23.6-.6,24.4-22.2,22.1-25.3-26.4,21.3-26.4,21.3,11.3-26.6,6.4-28.4-13.5,28-13.5,28,.9-38.2-7.5-39.4.7,39.4.7,39.4-4.4-21.6-7.6-20.5S660.8,1156.4,660.8,1156.4Z" class="color457e7f svgShape"></path><path fill="#ffebf1" d="M559.1,1109.7s-4.7-20.3,12.7-22.4,20.4,5.4,20.4,5.4,9.8-9.9,22.3-2.8,6.8,24.6,6.8,24.6,8.6-5.5,14.1,6.9-1.7,20.6-1.7,20.6a22.6,22.6,0,0,1,4.5,16.8c-1.4,9.7-7.3,12-7.3,12s5.9,14.1-1.5,19-19.7,1.9-19.7,1.9-2.4,8.5-14.5,9.3-17.1-5.2-17.1-5.2-14.2,5.9-21.5.8-6.3-14.3-6.3-14.3-11-9.1-11.6-17.7,3.1-13.2,3.1-13.2-6.6-2.8-4.6-11.8,7.9-11.9,7.9-11.9-4.9-7.3-.1-14S559.1,1109.7,559.1,1109.7Z" class="colorffebf1 svgShape"></path><path fill="#f4c9d0" d="M577,1141.4s-17-5.3-9.8-17.4,28-9.1,33.7-2.7-5,20.8-5,20.8,14.5-16.3,22-2.6,4.6,28.1-2.8,29.8-20.8-9.4-20.8-9.4,14,14,6,20.1-27.7,4.4-31.3-7.2,6.2-17.2,6.2-17.2-14.3,13.2-18.2-1.3S568.8,1134.6,577,1141.4Z" class="colorf4c9d0 svgShape"></path><ellipse cx="586.7" cy="1149.8" fill="#ffebf1" rx="16.7" ry="17" transform="rotate(-61 586.429 1149.668)" class="colorffebf1 svgShape"></ellipse><path fill="#d13b62" d="M500.6,1019.1s-3.3-14.6,9.1-16.1,14.7,3.8,14.7,3.8,7.1-7,16-2,4.9,17.8,4.9,17.8,6.2-4,10.2,4.9-1.2,14.8-1.2,14.8a16.3,16.3,0,0,1,3.2,12.1c-1.1,7-5.3,8.6-5.3,8.6s4.2,10.2-1,13.7S537,1078,537,1078s-1.7,6.1-10.4,6.7-12.3-3.7-12.3-3.7-10.2,4.2-15.5.5-4.5-10.2-4.5-10.2-7.9-6.5-8.4-12.7,2.3-9.5,2.3-9.5-4.7-2-3.3-8.5,5.6-8.5,5.6-8.5-3.5-5.3,0-10.2S500.6,1019.1,500.6,1019.1Z" class="colord13b62 svgShape"></path><path fill="#db6a8d" d="M513.5,1041.9s-12.2-3.8-7.1-12.6,20.2-6.5,24.3-1.9-3.6,15-3.6,15,10.4-11.7,15.8-1.9,3.3,20.2-2,21.4-15-6.7-15-6.7,10.1,10,4.4,14.4-20,3.2-22.6-5.2a10.4,10.4,0,0,1,4.5-12.3s-10.3,9.4-13.1-.9S507.6,1037,513.5,1041.9Z" class="colordb6a8d svgShape"></path><ellipse cx="520.4" cy="1047.9" fill="#9e1b63" rx="12" ry="12.2" transform="rotate(-61 520.218 1047.782)" class="color9e1b63 svgShape"></ellipse><path fill="#d13b62" d="M498.7,1104.3s-3.3-14.6,9.1-16.1,14.7,3.9,14.7,3.9,7.1-7.1,16-2,4.9,17.7,4.9,17.7,6.2-4,10.2,4.9-1.2,14.9-1.2,14.9a16.3,16.3,0,0,1,3.2,12.1c-1.1,7-5.3,8.6-5.3,8.6s4.2,10.2-1,13.7-14.2,1.3-14.2,1.3-1.7,6.1-10.4,6.7-12.3-3.7-12.3-3.7-10.2,4.2-15.5.5-4.5-10.3-4.5-10.3-7.9-6.5-8.4-12.7,2.3-9.4,2.3-9.4-4.8-2-3.3-8.6,5.6-8.5,5.6-8.5-3.5-5.2,0-10.1S498.7,1104.3,498.7,1104.3Z" class="colord13b62 svgShape"></path><path fill="#db6a8d" d="M511.6,1127.1s-12.2-3.8-7.1-12.5,20.2-6.5,24.3-1.9-3.6,15-3.6,15,10.4-11.7,15.8-2,3.3,20.3-2,21.5-15-6.7-15-6.7,10.1,10,4.4,14.4-20,3.1-22.6-5.2a10.4,10.4,0,0,1,4.5-12.3s-10.3,9.4-13.1-1S505.7,1122.3,511.6,1127.1Z" class="colordb6a8d svgShape"></path><ellipse cx="518.5" cy="1133.2" fill="#9e1b63" rx="12" ry="12.2" transform="rotate(-61 518.238 1133.054)" class="color9e1b63 svgShape"></ellipse><path fill="#d13b62" d="M413.6,1148.3s-3.4-14.6,9.1-16.1,14.7,3.9,14.7,3.9,7-7.1,16-2,4.9,17.7,4.9,17.7,6.1-4,10.1,4.9-1.2,14.9-1.2,14.9a16.2,16.2,0,0,1,3.3,12c-1.1,7-5.3,8.6-5.3,8.6s4.2,10.2-1.1,13.7-14.1,1.3-14.1,1.3-1.8,6.1-10.5,6.7-12.3-3.7-12.3-3.7-10.2,4.3-15.4.6-4.6-10.3-4.6-10.3-7.9-6.5-8.3-12.7,2.2-9.5,2.2-9.5-4.7-2-3.3-8.5,5.7-8.5,5.7-8.5-3.5-5.3-.1-10.1S413.6,1148.3,413.6,1148.3Z" class="colord13b62 svgShape"></path><path fill="#db6a8d" d="M426.4,1171.1s-12.2-3.8-7-12.5,20.1-6.5,24.2-1.9-3.6,14.9-3.6,14.9,10.5-11.7,15.9-1.9,3.3,20.2-2.1,21.5-14.9-6.8-14.9-6.8,10,10.1,4.3,14.4-20,3.2-22.6-5.1a10.6,10.6,0,0,1,4.5-12.4s-10.3,9.5-13-.9S420.6,1166.2,426.4,1171.1Z" class="colordb6a8d svgShape"></path><ellipse cx="433.4" cy="1177.2" fill="#9e1b63" rx="12" ry="12.2" transform="rotate(-61 433.119 1177.013)" class="color9e1b63 svgShape"></ellipse><path fill="#72b0b5" d="M630.7,1292.2s-83.5,7.7-96.6-13.8,18.9-27.2,18.9-27.2-25.5-35.8-3.4-59.1,52.2,3.2,52.2,3.2-11.5-41.7,34.4-46.1,55.3,35.1,55.3,35.1,21.5-17.1,32.1,0-33.7,83.2-45.5,92.1S641.7,1293.7,630.7,1292.2Z" class="color72b0b5 svgShape"></path><path fill="#457e7f" d="M643 1276.7s-38.3-8.3-39.2.4 39.4 9.9 39.4 9.9-20.5 2.1-19.4 7.7 17.8-2.6 17.8-2.6 6.6 5.2 25.4.3 15.6-27.2 15.6-27.2 22.5-28.3 18.7-34.6-25.8 27.3-25.8 27.3-.8-53.3-7-54-2.3 54.6-2.3 54.6-20.1-42.5-27.5-38.7 19.4 46.7 19.4 46.7-45-43-55.4-34.4 48.1 42.4 48.1 42.4-30.7-18.5-32.7-13.4S643 1276.7 643 1276.7zM554.4 1224.7s-48.4-50-62.1-66.1-17.1-20.7-17.1-20.7-31.6.7-51.7-14.9-22.2-23.3-22.2-23.3 11.4-7.7 34.5 1.6 34.9 23.9 34.9 23.9-22.4-30.7-29.1-42.2-32.8-28.3-33.4-58.3-.4-31.2-.4-31.2 20.8 14.5 27.4 39.8a293.3 293.3 0 018.2 46.7l28.8 42.2s-8.4-18.4-5.1-48.1 6.7-35 6.7-35 15 21.9 15.3 45.7-10.5 50.1-10.5 50.1l21.9 26.6s2.7-51.2 12.2-64.6l9.5-13.4a77.6 77.6 0 013.3 45.7c-5.9 25.4-22.7 35.1-22.7 35.1l51.5 55.1z" class="color457e7f svgShape"></path><path fill="#ffffff" d="M490.6,1197.8s-6.1-27,16.9-29.8,27,7.2,27,7.2,13.1-13,29.6-3.7,9,32.7,9,32.7,11.4-7.4,18.7,9-2.2,27.4-2.2,27.4,7.9,9.4,6,22.3-9.8,15.9-9.8,15.9,7.8,18.7-1.9,25.2-26.1,2.4-26.1,2.4-3.2,11.3-19.3,12.4-22.7-6.9-22.7-6.9-18.8,7.8-28.5,1.1-8.3-19-8.3-19-14.6-12-15.4-23.4,4.1-17.5,4.1-17.5-8.7-3.7-6.1-15.7,10.4-15.7,10.4-15.7-6.4-9.7-.1-18.7S490.6,1197.8,490.6,1197.8Z" class="colorfff svgShape"></path><path fill="#ffebf1" d="M514.4,1239.8s-22.5-7-13-23.1,37.2-12,44.7-3.5-6.6,27.6-6.6,27.6,19.2-21.6,29.2-3.6,6,37.3-3.8,39.6-27.6-12.4-27.6-12.4,18.6,18.5,8,26.6-36.8,5.8-41.6-9.6,8.2-22.7,8.2-22.7-18.9,17.4-24-1.8S503.6,1230.8,514.4,1239.8Z" class="colorffebf1 svgShape"></path><ellipse cx="527.2" cy="1251" fill="#f4c9d0" rx="22.1" ry="22.5" transform="rotate(-61 526.964 1250.814)" class="colorf4c9d0 svgShape"></ellipse><path fill="#ffffff" d="M576.7 1075.2c0 .9-.1 1.8-.2 2.8s-.1 1.8-.2 2.8a1.1 1.1 0 01-.5.9 1.1 1.1 0 01-.7.3 6 6 0 01-2.4-.5 8.2 8.2 0 01-2.5-2 34.3 34.3 0 01-4.6-6.2v-.2c-1.2-2.3-2-5.1-.6-7.2a5.6 5.6 0 016.2-1.8 8.2 8.2 0 014.7 4.6 14.7 14.7 0 01.8 2.8A23.2 23.2 0 01576.7 1075.2zM574.3 1087.2a9.1 9.1 0 01-.7 1.4l-.6.6a27.1 27.1 0 01-6.7 5.9 11.4 11.4 0 01-3.6 1.5 4.9 4.9 0 01-3.9-.7 4.7 4.7 0 01-1.4-4.9 6.9 6.9 0 012-3.5 12.7 12.7 0 014.4-2.8 25.2 25.2 0 019.5-.8C574.4 1085.6 574.5 1086.5 574.3 1087.2z" class="colorfff svgShape"></path><path fill="#ffffff" d="M587.3 1077.8l-.3.3c-2.4 1.7-5.4 2.6-8.3 3.5a7.1 7.1 0 01-2 .4l-.9-.3c-.4-.2-.6-.5-.5-.8l1.2-2.9a32.9 32.9 0 012.3-4.6 19.6 19.6 0 013.8-4.8c1.6-1.4 3.9-2.5 5.9-1.6a4.4 4.4 0 012.4 3.6C591.2 1073.4 589.5 1076.1 587.3 1077.8zM573 1081.1a25.6 25.6 0 00-13.9-7.9c-2.1-.5-4.6-.6-6.2.8a4.4 4.4 0 00-1.2 5.2 7.6 7.6 0 004.1 4 16.9 16.9 0 005.9 1.3 49.3 49.3 0 008.6.1 4 4 0 002.4-.7A2.1 2.1 0 00573 1081.1zM576 1084.3a1.6 1.6 0 00-2.2.8 26.4 26.4 0 00-2.1 10.3 7.3 7.3 0 001.1 4.6 5.3 5.3 0 005 2 5.5 5.5 0 004.1-3.3 8.7 8.7 0 00-.3-5.5 22.4 22.4 0 00-2.9-6.3A6.2 6.2 0 00576 1084.3z" class="colorfff svgShape"></path><path fill="#ffffff" d="M574.9,1081.8a2.5,2.5,0,0,0,.5,2.8,9,9,0,0,0,2.6,2,28.9,28.9,0,0,0,8.7,3.5,7.9,7.9,0,0,0,4.6-.4,6,6,0,0,0,2.8-3.3c.5-1.4.8-3-.2-4.2a6.5,6.5,0,0,0-3.9-1.6C586.1,1080,575.3,1080.9,574.9,1081.8Z" class="colorfff svgShape"></path><path fill="#9e1b63" d="M573.5,1080.3a5.2,5.2,0,0,1-.4-2.8c0-.2.2-.6.5-.6a.6.6,0,0,1,.5.6,11,11,0,0,1,.6,2.6,4.1,4.1,0,0,1,1.1-2.4,1,1,0,0,1,.9-.3.8.8,0,0,1,.2.8,4.8,4.8,0,0,1-.7,2.3,5.7,5.7,0,0,1,2.1-1.3.9.9,0,0,1,.7,0c.3.3.1.7-.1,1a3.7,3.7,0,0,1-2,1.2,4.5,4.5,0,0,1,2.3.3.6.6,0,0,1,.6.3c.5.9-.7,1.2-2.7.8a7.7,7.7,0,0,1,1.7,1.9,1.2,1.2,0,0,1,.1.8c-.2.4-.8.4-1.2.2a3.2,3.2,0,0,1-1.8-1.6,9.4,9.4,0,0,1,1,2.3,1,1,0,0,1,0,.9.7.7,0,0,1-.8.2,2.4,2.4,0,0,1-.8-.6,5.4,5.4,0,0,1-.9-2.5,7.6,7.6,0,0,0,.1,1.5,1.3,1.3,0,0,1-.6,1.2c-.6.3-1.3-.2-1.5-.9a3,3,0,0,1,.4-1.8,5.6,5.6,0,0,1-1.8,1.2.8.8,0,0,1-.9-.4.9.9,0,0,1,.1-.7,3.2,3.2,0,0,1,1.9-1.5,3.9,3.9,0,0,1-2.4-.1c-.3-.1-.6-.6-.4-.9s.4-.3.7-.4h2.1a4.8,4.8,0,0,1-2-1.4,1.1,1.1,0,0,1-.3-1,.9.9,0,0,1,1.2-.3,4.3,4.3,0,0,1,1.9,1.7,8,8,0,0,1-1.3-1.9,1.4,1.4,0,0,1-.2-.6.5.5,0,0,1,.3-.5,1,1,0,0,1,.7.4A9.9,9.9,0,0,1,573.5,1080.3Z" class="color9e1b63 svgShape"></path><path fill="#d13b62" d="M574.6,1080.6a.6.6,0,0,0-.8-.1.5.5,0,0,0-.4.6,1.1,1.1,0,0,0-.9.7.9.9,0,0,0,.3,1.1.8.8,0,0,0,.4,1.1,1.1,1.1,0,0,0,1.2,0,1.1,1.1,0,0,0,1.1.1.9.9,0,0,0,.6-.9,1.1,1.1,0,0,0,0-2,.8.8,0,0,0-.4-.6Z" class="colord13b62 svgShape"></path><path fill="#ffffff" d="M454.3 1053a24.5 24.5 0 01-.2 2.7 28.3 28.3 0 00-.2 2.9 1.2 1.2 0 01-.5.9l-.7.3a6 6 0 01-2.4-.5 8.5 8.5 0 01-2.5-2.1 30.5 30.5 0 01-4.6-6.1v-.2c-1.2-2.3-2-5.1-.6-7.3a5.7 5.7 0 016.2-1.7 7.9 7.9 0 014.7 4.6 12.9 12.9 0 01.8 2.8A22.9 22.9 0 01454.3 1053zM451.9 1065a5.4 5.4 0 01-.7 1.3l-.6.7a26.7 26.7 0 01-6.7 5.8 9.7 9.7 0 01-3.6 1.6 4.9 4.9 0 01-3.9-.7 4.6 4.6 0 01-1.4-5 6.6 6.6 0 012-3.4 11.4 11.4 0 014.4-2.8 25.2 25.2 0 019.5-.8C452 1063.4 452.1 1064.2 451.9 1065z" class="colorfff svgShape"></path><path fill="#ffffff" d="M464.8 1055.6a.2.2 0 01-.2.2 27.9 27.9 0 01-8.3 3.6 4.6 4.6 0 01-2 .3l-.9-.2c-.4-.2-.6-.5-.5-.8l1.2-3a38.1 38.1 0 012.3-4.5 19.6 19.6 0 013.8-4.8c1.6-1.4 3.9-2.5 5.9-1.6a4.4 4.4 0 012.4 3.6C468.8 1051.1 467.1 1053.8 464.8 1055.6zM450.6 1058.9a25.6 25.6 0 00-13.9-7.9c-2.1-.5-4.6-.6-6.2.7a4.5 4.5 0 00-1.2 5.3 7.6 7.6 0 004.1 4 19.5 19.5 0 005.9 1.3 49.3 49.3 0 008.6.1 5.1 5.1 0 002.4-.7A2.1 2.1 0 00450.6 1058.9zM453.6 1062.1a1.6 1.6 0 00-2.2.8 26.4 26.4 0 00-2.1 10.3 7.5 7.5 0 001.1 4.6 5.7 5.7 0 004.9 2 5.5 5.5 0 004.2-3.3 8.7 8.7 0 00-.3-5.5 21.2 21.2 0 00-2.9-6.3A6.2 6.2 0 00453.6 1062.1z" class="colorfff svgShape"></path><path fill="#ffffff" d="M452.5,1059.5a2.7,2.7,0,0,0,.5,2.9,7.3,7.3,0,0,0,2.6,1.9,23.8,23.8,0,0,0,8.7,3.5,7.1,7.1,0,0,0,4.6-.3,6,6,0,0,0,2.8-3.3c.5-1.4.8-3-.2-4.2s-2.5-1.4-3.9-1.7C463.7,1057.8,452.9,1058.6,452.5,1059.5Z" class="colorfff svgShape"></path><path fill="#9e1b63" d="M451.1,1058.1a5.3,5.3,0,0,1-.4-2.8.5.5,0,1,1,1,0,11.4,11.4,0,0,1,.6,2.5,4.1,4.1,0,0,1,1.1-2.3.7.7,0,0,1,.9-.3.8.8,0,0,1,.2.8,6.2,6.2,0,0,1-.7,2.3,6.3,6.3,0,0,1,2-1.3c.3-.1.6-.2.8,0s.1.7-.1,1a3.1,3.1,0,0,1-2,1.1,8.5,8.5,0,0,1,2.3.3.9.9,0,0,1,.6.4c.5.8-.7,1.2-2.8.8a5.2,5.2,0,0,1,1.7,1.9.8.8,0,0,1,.2.8c-.2.4-.8.4-1.2.2a3.2,3.2,0,0,1-1.8-1.6,21.4,21.4,0,0,1,1,2.2c.1.3.2.7,0,.9a.6.6,0,0,1-.8.3,2.4,2.4,0,0,1-.8-.6,5.4,5.4,0,0,1-.9-2.5,7.6,7.6,0,0,0,.1,1.5,1.4,1.4,0,0,1-.6,1.2c-.6.3-1.3-.3-1.5-.9a3,3,0,0,1,.4-1.8,4.6,4.6,0,0,1-1.8,1.1c-.3.1-.8,0-.9-.3a.9.9,0,0,1,.1-.7,3.2,3.2,0,0,1,1.9-1.5,3.9,3.9,0,0,1-2.4-.1c-.4-.2-.6-.6-.4-.9s.4-.3.7-.4a3.7,3.7,0,0,1,2.1,0,6,6,0,0,1-2-1.4,1.3,1.3,0,0,1-.3-1,.9.9,0,0,1,1.2-.3,4.3,4.3,0,0,1,1.9,1.7,8.6,8.6,0,0,1-1.3-2,.8.8,0,0,1-.2-.5.5.5,0,0,1,.3-.5,1,1,0,0,1,.7.4A9.9,9.9,0,0,1,451.1,1058.1Z" class="color9e1b63 svgShape"></path><path fill="#d13b62" d="M452.2,1058.3a1.1,1.1,0,0,0-.8-.1.7.7,0,0,0-.4.7.9.9,0,0,0-.9.7.9.9,0,0,0,.3,1.1.8.8,0,0,0,.4,1.1,1.1,1.1,0,0,0,1.2-.1.9.9,0,0,0,1.1.2,1,1,0,0,0,.6-.9,1.1,1.1,0,0,0,0-2,.7.7,0,0,0-.4-.6Z" class="colord13b62 svgShape"></path><path fill="#ffffff" d="M467.1 1208.5c0 .9-.1 1.8-.2 2.8s-.1 1.8-.2 2.8a1.1 1.1 0 01-.5.9.9.9 0 01-.7.3 6 6 0 01-2.4-.5 9.6 9.6 0 01-2.5-2 29.7 29.7 0 01-4.5-6.2v-.2c-1.3-2.3-2.1-5.1-.6-7.2s3.9-2.5 6.1-1.8a7.9 7.9 0 014.7 4.6 14.7 14.7 0 01.8 2.8A15.4 15.4 0 01467.1 1208.5zM464.7 1220.5a4.6 4.6 0 01-.7 1.4l-.5.6a27.5 27.5 0 01-6.8 5.9 9.5 9.5 0 01-3.6 1.5 4.3 4.3 0 01-5.3-5.6 6.9 6.9 0 012-3.5 12.7 12.7 0 014.4-2.8 25.2 25.2 0 019.5-.8C464.8 1218.9 464.9 1219.8 464.7 1220.5z" class="colorfff svgShape"></path><path fill="#ffffff" d="M477.7 1211.1l-.3.3c-2.4 1.7-5.4 2.6-8.3 3.5a7.1 7.1 0 01-2 .4l-.9-.3c-.3-.2-.6-.5-.5-.8l1.2-2.9a32.9 32.9 0 012.3-4.6 19.6 19.6 0 013.8-4.8c1.6-1.4 3.9-2.5 5.9-1.6a4.4 4.4 0 012.4 3.6A8.2 8.2 0 01477.7 1211.1zM463.4 1214.4a25.6 25.6 0 00-13.9-7.9c-2.1-.5-4.6-.6-6.2.8a4.6 4.6 0 00-1.2 5.2 7.6 7.6 0 004.1 4 17.4 17.4 0 005.9 1.3 49.3 49.3 0 008.6.1 3.8 3.8 0 002.4-.7A2 2 0 00463.4 1214.4zM466.4 1217.6a1.6 1.6 0 00-2.2.9 25.5 25.5 0 00-2.1 10.2 8.1 8.1 0 001.1 4.6 5.3 5.3 0 005 2 5.5 5.5 0 004.1-3.3 8.6 8.6 0 00-.2-5.5 29.9 29.9 0 00-2.9-6.3A7 7 0 00466.4 1217.6z" class="colorfff svgShape"></path><path fill="#ffffff" d="M465.3,1215.1a2.5,2.5,0,0,0,.5,2.8,10.6,10.6,0,0,0,2.6,2,30,30,0,0,0,8.7,3.5,8.3,8.3,0,0,0,4.7-.4,5.8,5.8,0,0,0,2.7-3.3c.5-1.4.8-3-.2-4.2a6.5,6.5,0,0,0-3.9-1.6C476.5,1213.3,465.8,1214.2,465.3,1215.1Z" class="colorfff svgShape"></path><path fill="#9e1b63" d="M464,1213.6a5.2,5.2,0,0,1-.5-2.8c.1-.2.2-.6.5-.6s.5.3.6.6a20,20,0,0,1,.5,2.6,4.1,4.1,0,0,1,1.1-2.4,1,1,0,0,1,.9-.3.8.8,0,0,1,.3.8,6.3,6.3,0,0,1-.8,2.3,5.7,5.7,0,0,1,2.1-1.3h.7a.7.7,0,0,1-.1,1,3.5,3.5,0,0,1-1.9,1.2,4.7,4.7,0,0,1,2.3.3.5.5,0,0,1,.5.3c.5.9-.6,1.2-2.7.8a6.1,6.1,0,0,1,1.7,1.9,1.2,1.2,0,0,1,.1.8c-.2.4-.8.4-1.2.2a3.5,3.5,0,0,1-1.8-1.6,9.4,9.4,0,0,1,1,2.3,1.4,1.4,0,0,1,.1.9,1,1,0,0,1-.9.2c-.3-.1-.5-.4-.7-.6a4.6,4.6,0,0,1-1-2.5,7.6,7.6,0,0,0,.1,1.5c0,.5-.1,1-.6,1.2s-1.3-.2-1.5-.9a3,3,0,0,1,.4-1.8,5.6,5.6,0,0,1-1.8,1.2.8.8,0,0,1-.9-.4.9.9,0,0,1,.1-.7,3.2,3.2,0,0,1,1.9-1.5,3.9,3.9,0,0,1-2.4-.1c-.3-.1-.6-.6-.4-.9s.4-.3.7-.4a7.4,7.4,0,0,1,2.1,0,5.6,5.6,0,0,1-2-1.4.9.9,0,0,1-.2-1c.1-.4.7-.5,1.1-.3a4.3,4.3,0,0,1,1.9,1.7,12.7,12.7,0,0,1-1.3-1.9,1.4,1.4,0,0,1-.2-.6.5.5,0,0,1,.3-.5,1,1,0,0,1,.7.4A15.4,15.4,0,0,1,464,1213.6Z" class="color9e1b63 svgShape"></path><path fill="#d13b62" d="M465,1213.9a.6.6,0,0,0-.8-.1.7.7,0,0,0-.4.6,1.3,1.3,0,0,0-.9.7,1.1,1.1,0,0,0,.3,1.1.9.9,0,0,0,.4,1.1,1.1,1.1,0,0,0,1.2,0,1.1,1.1,0,0,0,1.1.1.9.9,0,0,0,.6-.9,1.1,1.1,0,0,0,0-2,.6.6,0,0,0-.4-.6A2,2,0,0,0,465,1213.9Z" class="colord13b62 svgShape"></path><path fill="#ffffff" d="M615.2 1190.9a24.5 24.5 0 01-.2 2.7 28.3 28.3 0 00-.2 2.9 1.2 1.2 0 01-.5.9l-.8.3a5.9 5.9 0 01-2.3-.5 10.4 10.4 0 01-2.6-2.1 30.1 30.1 0 01-4.5-6.1c0-.1-.1-.1-.1-.2-1.2-2.3-2-5.1-.6-7.3a5.7 5.7 0 016.2-1.7 8.2 8.2 0 014.7 4.6 8.9 8.9 0 01.7 2.8A22.3 22.3 0 01615.2 1190.9zM612.7 1202.9a3.1 3.1 0 01-.6 1.3l-.6.7a28.6 28.6 0 01-6.7 5.8 9.7 9.7 0 01-3.6 1.6 5.2 5.2 0 01-3.9-.7 4.6 4.6 0 01-1.4-5 6.6 6.6 0 012-3.4 10.7 10.7 0 014.4-2.8 25.2 25.2 0 019.5-.8C612.8 1201.2 613 1202.1 612.7 1202.9z" class="colorfff svgShape"></path><path fill="#ffffff" d="M625.7 1193.5l-.3.2c-2.4 1.8-5.4 2.7-8.3 3.6a4.2 4.2 0 01-1.9.3l-.9-.2c-.4-.2-.6-.5-.5-.8l1.2-3a38.1 38.1 0 012.3-4.5 17.5 17.5 0 013.8-4.8c1.6-1.4 3.9-2.5 5.9-1.6a4.4 4.4 0 012.4 3.5C629.7 1189 628 1191.7 625.7 1193.5zM611.5 1196.8a26 26 0 00-13.9-7.9c-2.1-.5-4.6-.6-6.3.7a4.8 4.8 0 00-1.2 5.3 7.8 7.8 0 004.2 4 18.8 18.8 0 005.8 1.3 49.5 49.5 0 008.6.1 5.2 5.2 0 002.5-.7A2.1 2.1 0 00611.5 1196.8zM614.5 1200a1.6 1.6 0 00-2.2.8 26.4 26.4 0 00-2.1 10.3 7.1 7.1 0 001.1 4.5 5.1 5.1 0 009-1.2 8 8 0 00-.2-5.5 24 24 0 00-2.9-6.3A6.2 6.2 0 00614.5 1200z" class="colorfff svgShape"></path><path fill="#ffffff" d="M613.4,1197.4a2.7,2.7,0,0,0,.5,2.9,7.9,7.9,0,0,0,2.5,1.9,25,25,0,0,0,8.8,3.5,7.2,7.2,0,0,0,4.6-.3,6.4,6.4,0,0,0,2.8-3.3,4.4,4.4,0,0,0-.2-4.2c-.9-1.1-2.5-1.4-4-1.7C624.6,1195.7,613.8,1196.5,613.4,1197.4Z" class="colorfff svgShape"></path><path fill="#9e1b63" d="M612,1196a5.3,5.3,0,0,1-.4-2.8.6.6,0,0,1,.5-.6c.3,0,.4.3.5.6a11.4,11.4,0,0,1,.6,2.5,3.1,3.1,0,0,1,1.1-2.3.7.7,0,0,1,.9-.3c.2.1.2.5.2.8a6.2,6.2,0,0,1-.7,2.3,3.9,3.9,0,0,1,2-1.3c.3-.1.6-.2.8,0s.1.7-.1,1a3.1,3.1,0,0,1-2,1.1,8.5,8.5,0,0,1,2.3.3c.2.1.5.2.6.4s-.7,1.2-2.8.8a5.2,5.2,0,0,1,1.7,1.9.6.6,0,0,1,.1.8c-.2.4-.7.4-1.2.2a3.3,3.3,0,0,1-1.7-1.6,21.4,21.4,0,0,1,1,2.2c.1.3.2.7,0,.9a.8.8,0,0,1-.9.3l-.7-.6a4.5,4.5,0,0,1-.9-2.5,7.5,7.5,0,0,0,0,1.5,1.1,1.1,0,0,1-.5,1.2c-.6.3-1.4-.3-1.5-.9a2.9,2.9,0,0,1,.3-1.8,3.7,3.7,0,0,1-1.7,1.1c-.4.1-.8,0-.9-.3a.6.6,0,0,1,.1-.7,2.7,2.7,0,0,1,1.8-1.5,3.6,3.6,0,0,1-2.3-.1c-.4-.2-.6-.6-.4-.9a.6.6,0,0,1,.6-.4,3.8,3.8,0,0,1,2.1,0,6.7,6.7,0,0,1-1.9-1.4,1,1,0,0,1-.3-1,.8.8,0,0,1,1.1-.3c.8.2,1.3.8,2,1.7a14.3,14.3,0,0,1-1.4-2,.8.8,0,0,1-.2-.5.7.7,0,0,1,.4-.5c.2-.1.5.2.6.4A9.6,9.6,0,0,1,612,1196Z" class="color9e1b63 svgShape"></path><path fill="#d13b62" d="M613.1 1196.2a.8.8 0 00-.8-.1.8.8 0 00-.5.7 1.1 1.1 0 00-.9.7 1.1 1.1 0 00.3 1.1 1.1 1.1 0 00.4 1.1 1.2 1.2 0 001.3-.1.9.9 0 001.1.2 1 1 0 00.6-.9 1.1 1.1 0 000-2 .7.7 0 00-.4-.6zM693.5 1147.3s-3.4-14.6 9.1-16.1 14.7 3.9 14.7 3.9 7.1-7.1 16-2 4.9 17.7 4.9 17.7 6.2-4 10.2 4.9-1.2 14.8-1.2 14.8a16.3 16.3 0 013.2 12.1c-1.1 7-5.3 8.6-5.3 8.6s4.2 10.2-1 13.7-14.2 1.3-14.2 1.3-1.7 6.1-10.4 6.7-12.3-3.7-12.3-3.7-10.3 4.2-15.5.6-4.5-10.3-4.5-10.3-7.9-6.5-8.4-12.7 2.2-9.5 2.2-9.5-4.7-2-3.2-8.5 5.6-8.5 5.6-8.5-3.5-5.3-.1-10.1S693.5 1147.3 693.5 1147.3z" class="colord13b62 svgShape"></path><path fill="#db6a8d" d="M706.4,1170.1s-12.2-3.8-7.1-12.5,20.2-6.5,24.3-2-3.6,15-3.6,15,10.4-11.7,15.8-1.9,3.3,20.2-2,21.5-15-6.8-15-6.8,10.1,10.1,4.3,14.4-19.9,3.2-22.5-5.1a10.5,10.5,0,0,1,4.4-12.4s-10.2,9.5-13-.9S700.5,1165.2,706.4,1170.1Z" class="colordb6a8d svgShape"></path><ellipse cx="713.3" cy="1176.2" fill="#9e1b63" rx="12" ry="12.2" transform="rotate(-61 713.038 1175.997)" class="color9e1b63 svgShape"></ellipse><path fill="#d13b62" d="M627.9,1068s-2.5-11.3,7.1-12.4,11.3,2.9,11.3,2.9,5.5-5.4,12.4-1.5,3.8,13.7,3.8,13.7,4.7-3.1,7.8,3.8-.9,11.5-.9,11.5a12.6,12.6,0,0,1,2.5,9.3c-.8,5.4-4.1,6.6-4.1,6.6s3.3,7.9-.8,10.6-10.9,1-10.9,1-1.4,4.7-8.1,5.2-9.5-2.9-9.5-2.9-7.9,3.3-11.9.4-3.5-7.9-3.5-7.9-6.1-5-6.5-9.8,1.7-7.3,1.7-7.3-3.6-1.6-2.5-6.6,4.3-6.6,4.3-6.6-2.7-4,0-7.8S627.9,1068,627.9,1068Z" class="colord13b62 svgShape"></path><path fill="#db6a8d" d="M637.9,1085.6s-9.4-3-5.5-9.7,15.6-5,18.8-1.5-2.8,11.6-2.8,11.6,8-9,12.2-1.5,2.5,15.6-1.6,16.6-11.5-5.2-11.5-5.2,7.8,7.7,3.3,11.1-15.4,2.5-17.4-4a8.1,8.1,0,0,1,3.5-9.5s-8,7.3-10.1-.7S633.3,1081.8,637.9,1085.6Z" class="colordb6a8d svgShape"></path><ellipse cx="643.2" cy="1090.3" fill="#9e1b63" rx="9.3" ry="9.4" transform="rotate(-61 642.987 1090.143)" class="color9e1b63 svgShape"></ellipse><polygon fill="#ffffff" points="1389.4 1486.4 1757.6 1486.4 1755.5 1468.8 1566.8 1450 1404.8 1438.1 1389.4 1486.4" class="colorfff svgShape"></polygon><path d="M1758.2,1486.9H1388.7l15.7-49.4h.4l162.1,11.9,189.1,18.9Zm-368.1-1h367l-2-16.6-188.3-18.8-161.7-11.9Z" fill="#000000" class="color000 svgShape"></path><polygon fill="#302342" points="1755.5 1468.8 1803.8 1867.5 1858.3 1867.5 1901.9 1468.8 1755.5 1468.8" class="color302342 svgShape"></polygon><polygon fill="#302342" points="1292.2 1753.7 1836.9 1845.1 1824.4 1877.8 1291.2 1820.5 1292.2 1753.7" class="color302342 svgShape"></polygon><rect width="664.2" height="19.05" x="1495.2" y="1849.4" fill="#ffebf1" transform="rotate(-42.3 1829.578 1859.943)" class="colorffebf1 svgShape"></rect><rect width="19" height="664.2" x="1817.8" y="1526.8" fill="#ffebf1" transform="rotate(-42.3 1829.578 1859.943)" class="colorffebf1 svgShape"></rect><rect width="19" height="664.2" x="1817.8" y="1526.8" fill="#ffebf1" class="colorffebf1 svgShape"></rect><rect width="664.2" height="19.05" x="1495.2" y="1849.4" fill="#ffebf1" class="colorffebf1 svgShape"></rect><rect width="664.2" height="19.05" x="1495.2" y="1849.4" fill="#ffebf1" transform="rotate(-21 1823.3 1856.2)" class="colorffebf1 svgShape"></rect><rect width="19" height="664.2" x="1817.8" y="1526.8" fill="#ffebf1" transform="rotate(-21 1823.3 1856.2)" class="colorffebf1 svgShape"></rect><rect width="19" height="664.2" x="1817.8" y="1526.8" fill="#ffebf1" transform="rotate(-67.2 1826 1858.623)" class="colorffebf1 svgShape"></rect><rect width="664.2" height="19.05" x="1495.2" y="1849.4" fill="#ffebf1" transform="rotate(-67.2 1826 1858.623)" class="colorffebf1 svgShape"></rect><rect width="664.2" height="19.05" x="312.8" y="1849.4" fill="#ffebf1" transform="rotate(-42.3 646.093 1860.326)" class="colorffebf1 svgShape"></rect><rect width="19" height="664.2" x="635.4" y="1526.8" fill="#ffebf1" transform="rotate(-42.3 646.093 1860.326)" class="colorffebf1 svgShape"></rect><rect width="19" height="664.2" x="635.4" y="1526.8" fill="#ffebf1" class="colorffebf1 svgShape"></rect><rect width="664.2" height="19.05" x="312.8" y="1849.4" fill="#ffebf1" class="colorffebf1 svgShape"></rect><rect width="664.2" height="19.05" x="312.8" y="1849.4" fill="#ffebf1" transform="rotate(-21.2 637.479 1847.8)" class="colorffebf1 svgShape"></rect><rect width="19" height="664.2" x="635.4" y="1526.8" fill="#ffebf1" transform="rotate(-21 643.317 1855.715)" class="colorffebf1 svgShape"></rect><rect width="19" height="664.2" x="635.4" y="1526.8" fill="#ffebf1" transform="rotate(-67.2 644.06 1858.276)" class="colorffebf1 svgShape"></rect><rect width="664.2" height="19.05" x="312.8" y="1849.4" fill="#ffebf1" transform="rotate(-67.2 644.06 1858.276)" class="colorffebf1 svgShape"></rect><polygon fill="#ffffff" points="706.8 1219.6 778.5 1232.5 774.1 1249 721 1241.2 706.8 1219.6" class="colorfff svgShape"></polygon><path d="M774.5,1249.6l-53.8-8h-.1l-14.9-22.6,73.4,13.2Zm-53.2-8.9,52.5,7.7,4-15.5-70-12.6Z" fill="#000000" class="color000 svgShape"></path><path fill="#ffffff" d="M709,1264.7l-1-.8-19.5-17.3c5.9-6,11.7-12.1,17.5-18.2l.7-.7,5.8-6,.4-.6a14.9,14.9,0,0,0-3-.9l-6.9-1.4-7.2,7.5-13.9,14.4-23.1-21-1.3-1.2-7.7-7.1,2.8-3-7.7-1.5-2.5-.6h-.1l-14-2.8,8.8,8.2-2.1,2.2L621.1,1228l-14.5,14.5c-10.6-9.8-21.2-19.8-31.7-29.8l8.6-8.5.7-.8,7.4-7.5-10.3-2.1-7.4,7.5-5.4,5.3-8.4-8.1L548.4,1187l-15.9-3.2,11.6,11.4,15,14.6,3.2,3c-9,8.9-18.1,17.8-27.2,26.5-1.3,1.3-2.6,2.6-4,3.8q-15.6-15-31.1-30.3c7.6-7.3,15.2-14.6,22.7-22l7.6-7.5-10.4-2.1-7.6,7.4c-5.1,5-10.2,10-15.4,14.9l-3.1,3.1-8.7-8.7-18.5-18.6-3.4-3.6,5.3-5.1-10.5-2.1-1,.9-1.3-1.4-15.4-3.2,10.3,10.7-.4.4q-15.4,14.8-31.2,29.5l-13.7-14.2c-1.8-1.8-3.5-3.7-5.3-5.6l-3.4-3.6v12.7h0l8.7,9.2,7.3,7.5-2.9,2.7-4.5,4.1-8.9,8.1v12c3-2.6,6-5.3,8.9-8.1l4.7-4.2,9-8.3,16.2,16.6,14.3,14.2a8.6,8.6,0,0,1-1.4,1.3c-10.2,9.4-20.4,18.8-30.8,28l-8.3-8.3c-1.3-1.3-2.7-2.6-4-4l-8.7-8.8v12.5l.9.9,7.8,7.8,5.8,5.8-5.9,5.3-6.9,6.2-2,1.7v11.8l2.2-1.9,6.7-6,12.3-10.8,27.8,27.2,3.3,3.1-12,10.7L421,1343.9,408.6,1332l-4.4-4.2-8.7-8.5v12.2l.9,1,7.8,7.5,10.2,9.7-10.3,8.9-8.9,7.6v11.6l8.9-7.5h0l16.8-14.4,24.7,23,7.2,6.6c-7.4,6.4-14.9,12.9-22.4,19.2l-7.6,6.5-1.5,1.2,11.7,1.6c3.1-2.5,6.1-5.1,9.1-7.7h0l17.3-14.8,22.3,20.1,10.1,9-1.3,1.1,3,.4h0l8.7,1.2,7,.9-1-.9-3-2.7,5.8-5.1h0l1.5-1.2,18.8-16.7,12.8,11.3,13.4,11.7-1.1,1-8.8,7.7,11.6,1.6,1.5-1.3,3.5-3.1,7,6,16,2.1L574.7,1424h0l-4-3.5q16.3-14.4,32.4-29.1c10.1,8.7,29.4,25.7,39.5,34.3l6.5,5.4c1.7,1.4,4.5,1.8,6.2,0s1.9-4.7,0-6.3c-12.2-10.2-33.5-29-45.6-39.4l1-1c10.3-9.4,20.6-19,30.8-28.6,9.2,7.9,18.4,15.8,27.7,23.6l2.5,2.1,4.8,4,3-8.9-7.3-6.2c-8.1-6.8-16.2-13.8-24.2-20.7l12-11.5,19.3-18.6,7.8,6.7,7.2,6.2,3-9-7.2-6.2-4.5-3.9,8.7-8.6,13.8-13.7.2-.2,3.9-11.7,2.5-7.3h0l.5-1.7ZM621.6,1240c7.4-7.4,14.7-14.8,22-22.3l2.8,2.6c9.8,9,19.5,17.9,29.4,26.7l-16.5,16.8-14,14-24.7-22.3-7.5-7Zm-13.7,74.4-25.5-23.1-6.7-6.2q15.6-15,31.1-30.3l1.4,1.3c10.2,9.4,20.5,18.7,30.8,28-9.1,9-18.3,17.9-27.5,26.8Zm-45.1-29.2c-10.5,10-21,20-31.7,29.8l-31.6-29.8c10.6-9.9,21.2-19.8,31.6-29.8Q546.9,1270.4,562.8,1285.2ZM524.6,1321l-.4.4c-10.5,9.7-21.1,19.4-31.8,28.9-10.6-9.8-21.1-19.8-31.6-29.8l25.3-22.9,6.9-6.4C503.5,1301.2,514,1311.2,524.6,1321Zm-.3,12.3c2.3-2.1,4.6-4.1,6.8-6.3l.8.7c10.4,9.6,20.9,19.2,31.5,28.6l-1,.9c-10.4,9.6-20.8,19-31.3,28.4-8.4-7.5-16.7-15.1-25-22.7l-7.2-6.6C507.4,1348.7,515.9,1341.1,524.3,1333.3Zm20-6.2-6.6-6.1c10.6-9.8,21.1-19.8,31.6-29.8l.7.7,31.5,28.6c-10.5,10-21,20-31.6,29.8Zm24.3-108.2c10.5,10.1,21.1,20,31.7,29.9-8.9,8.8-17.9,17.6-27,26.3l-4.1,4q-15.9-14.8-31.7-29.8C548,1239.2,558.3,1229.1,568.6,1218.9Zm-47.7,26.7,3.9,3.7q-15.7,15-31.7,29.8c-10.5-10.1-20.8-20.2-31.1-30.3,10.6-9.9,21.2-19.8,31.6-29.9Q507.3,1232.4,520.9,1245.6Zm-74-11.9c-7.3-7.3-14.5-14.6-21.7-22,10.6-9.9,21.1-19.8,31.6-29.9l16.3,16.7,14.3,14.2c-10.5,10-21.1,20-31.7,29.8Zm-23.6,50.4c8.3-7.4,16.4-14.9,24.6-22.3l7.6-7,27.2,26.6,3.9,3.7-.6.5q-15.7,14.6-31.6,28.8Q438.8,1299.4,423.3,1284.1Zm34.5,94.1c-10.2-9.4-20.3-18.8-30.3-28.3l8.4-7.3,18.3-16.2c10.4,10,21,20,31.6,29.8-3.9,3.6-7.9,7.1-11.9,10.6l-14.6,12.8Zm54.3,24.4-12.9,11.3-.9.7-1.2-1h0c-10.5-9.3-20.9-18.6-31.2-28.1l8.2-7.1c6.1-5.4,12.2-10.7,18.2-16.2l1.4,1.3c10.2,9.4,20.5,18.8,30.8,28Zm51.9,12c-2.6-2.2-5.2-4.4-7.7-6.7l-18.5-16.4c8.2-7.4,16.5-14.8,24.7-22.4q3.8-3.3,7.5-6.9l12.1,10.8,14.3,12.5Q580.4,1400.2,564,1414.6Zm46.6-42.1-7.6,7c-2.9-2.4-5.7-4.9-8.5-7.4-6-5.2-12-10.6-18-15.9,10.6-9.8,21.1-19.8,31.6-29.8l12.2,10.8,14.5,12.7C626.8,1357.5,618.7,1365.1,610.6,1372.5Zm49.1-46.3-18.4,17.7-8.7-7.6-18.1-16q15.6-15,31.1-30.3l12.9,11.4,14.1,12.4Zm47.8-47.1-6.9,7c-7.2,7.2-14.4,14.4-21.7,21.5l-8.1-7.1-18.9-16.8c2.6-2.6,5.3-5.2,7.9-7.9,7.6-7.6,15.1-15.2,22.6-22.9,4.7,4.3,9.5,8.5,14.3,12.7,2.7,2.5,5.5,4.9,8.3,7.3l4.6,4.1Z" class="colorfff svgShape"></path><path fill="#987ba3" d="M1301,1852.7,724.8,1386l18.3-51.2,636.7,65.2,43.8-137.9,33.7,10.7-41.6,130.8,154.3,15.8-3.6,35.2-161.6-16.5ZM769.5,1373l511.9,424.7,87.5-363.3Z" class="color987ba3 svgShape"></path><path fill="#54355e" d="M1446.3,1168.6s89.8-10.3,108.3,34.8-2.5,75.2-45.1,81.7-248.6,0-248.6,0-36.3-2.9-24.2-34.8S1370.7,1172.8,1446.3,1168.6Z" class="color54355e svgShape"></path><circle cx="1302.4" cy="1787.1" r="122.2" fill="#987ba3" class="color987ba3 svgShape"></circle><path fill="#ffffff" d="M1302.4,1696.5a90.7,90.7,0,1,0,90.7,90.6A90.6,90.6,0,0,0,1302.4,1696.5Zm0,174.4a83.8,83.8,0,1,1,83.8-83.8A83.8,83.8,0,0,1,1302.4,1870.9Z" class="colorfff svgShape"></path><path fill="#54355e" d="M644.9,1491.3c-203,0-367.6,164.6-367.6,367.6s164.6,367.6,367.6,367.6,367.6-164.6,367.6-367.6S848,1491.3,644.9,1491.3Zm0,666.2c-164.9,0-298.6-133.7-298.6-298.6S480,1560.3,644.9,1560.3,943.5,1694,943.5,1858.9,809.9,2157.5,644.9,2157.5Z" class="color54355e svgShape"></path><path fill="#987ba3" d="M644.9,1540.6c-175.7,0-318.2,142.5-318.2,318.3s142.5,318.3,318.2,318.3,318.3-142.5,318.3-318.3S820.7,1540.6,644.9,1540.6Zm0,616.9c-164.9,0-298.6-133.7-298.6-298.6S480,1560.3,644.9,1560.3,943.5,1694,943.5,1858.9,809.9,2157.5,644.9,2157.5Z" class="color987ba3 svgShape"></path><rect width="692.6" height="41.23" x="370" y="1492.6" fill="#987ba3" transform="rotate(-78.1 716.479 1513.26)" class="color987ba3 svgShape"></rect><path fill="#987ba3" d="M644.9,1787.1a71.8,71.8,0,1,0,71.8,71.8A71.9,71.9,0,0,0,644.9,1787.1Zm0,130.1a58.3,58.3,0,1,1,58.4-58.3A58.3,58.3,0,0,1,644.9,1917.2Z" class="color987ba3 svgShape"></path><path fill="#54355e" d="M703.3 1858.9a58.4 58.4 0 11-58.4-58.3A58.4 58.4 0 01703.3 1858.9zM1827.3 1491.3c-203 0-367.6 164.6-367.6 367.6s164.6 367.6 367.6 367.6 367.6-164.6 367.6-367.6S2030.4 1491.3 1827.3 1491.3zm0 666.2c-164.9 0-298.6-133.7-298.6-298.6s133.7-298.6 298.6-298.6 298.6 133.7 298.6 298.6S1992.2 2157.5 1827.3 2157.5z" class="color54355e svgShape"></path><path fill="#987ba3" d="M1827.3,1540.6c-175.7,0-318.2,142.5-318.2,318.3s142.5,318.3,318.2,318.3,318.3-142.5,318.3-318.3S2003.1,1540.6,1827.3,1540.6Zm0,616.9c-164.9,0-298.6-133.7-298.6-298.6s133.7-298.6,298.6-298.6,298.6,133.7,298.6,298.6S1992.2,2157.5,1827.3,2157.5Z" class="color987ba3 svgShape"></path><path fill="#987ba3" d="M1827.3,1787.1a71.8,71.8,0,1,0,71.8,71.8A71.9,71.9,0,0,0,1827.3,1787.1Zm0,130.1a58.3,58.3,0,1,1,58.4-58.3A58.3,58.3,0,0,1,1827.3,1917.2Z" class="color987ba3 svgShape"></path><path fill="#54355e" d="M1885.7,1858.9a58.4,58.4,0,1,1-58.4-58.3A58.4,58.4,0,0,1,1885.7,1858.9Z" class="color54355e svgShape"></path><path fill="#ffffff" d="M722.4 1229.2a18.8 18.8 0 00-9.5-8.1 14.9 14.9 0 00-3-.9l-6.9-1.4-50.4-10.4-7.7-1.5-2.5-.6h-.1l-14-2.8-36.6-7.6h-.1l-10.3-2.1-32.9-6.8-15.9-3.2-2.2-.5-10.4-2.1-51.4-10.6-10.5-2.1-2.3-.5-15.4-3.2-21.3-4.3a18.4 18.4 0 00-15.5 3.7 19 19 0 00-6.9 14.4v16.1h0l-.3 31.6v42.9l-.3 27.7v34.6l-.3 34.7v26.1A18.7 18.7 0 00411 1411l10.1 1.3 11.7 1.6 57.5 7.7 3 .4h0l8.7 1.2 7 .9 38.4 5.1 11.6 1.6 12 1.6 16 2.1h0l54.6 7.3 2.5.2a18.5 18.5 0 0017.6-12.7l14.8-43.8 3-8.9 14.8-44.1 3-9 11-32.6 3.9-11.7 2.5-7.3h0l.5-1.7 8.7-25.8A18.8 18.8 0 00722.4 1229.2zm-6.9 12.4l-7.5 22.3-3 9-4.4 13.2-6.3 18.7-4.2 12.5-3 9-14.9 44.1-3 9-15.8 47.1a9.9 9.9 0 01-10.6 6.6l-68.1-9.1h0l-6.9-1-9-1.2-2.6-.3-45.4-6.1h0l-11.6-1.5-2.1-.3h0l-15.6-2.1-39.6-5.3h0l-11.7-1.6-18-2.4a9.7 9.7 0 01-8.5-9.8l.2-22.1h0v-42.4l.2-27v-35.3l.3-35.3v-51.5a10 10 0 013.7-7.6 9.6 9.6 0 018.1-2l33 6.8 1 .2 9.6 2 5.8 1.2 45.7 9.3 10.4 2.2 21.4 4.4 16 3.3 13.8 2.8 10.3 2.1 50.8 10.5 5.7 1.1 4.6 1 12.2 2.5 38.3 7.8 10.2 2.1 2.2.5a9.5 9.5 0 016.5 4.7A9.8 9.8 0 01715.5 1241.6zM1827.3 1933.7h-.1l-535.8-21.9h-.2c-2.5-.3-62.2-10-94.6-55.2-17.9-25.1-23.7-56.1-17.2-92.3 10.6-58.8 48.5-83.5 78.4-93.8a162.9 162.9 0 0162.8-8.4h.4l506.9 122.1a108.1 108.1 0 0136.8 14c17 10.4 37.3 30.2 37.2 66s-20.5 51.7-37.5 59.9a104.9 104.9 0 01-37 9.6zM1292 1905.9l535.3 21.9a100.6 100.6 0 0034.7-9c22.5-11 33.9-29.3 34-54.7s-11.5-46.9-34.3-60.9a106.5 106.5 0 00-34.8-13.2h-.3l-506.8-122.2a162.4 162.4 0 00-60.3 8.2c-41.2 14.3-66.2 44.3-74.3 89.2-6.2 34.6-.7 64.1 16.2 87.8C1231.5 1895.2 1288.6 1905.3 1292 1905.9z" class="colorfff svgShape"></path><path fill="#ffffff" d="M1425,1686l-116.9,96.5a8.6,8.6,0,0,0-2.1,11h0a8.8,8.8,0,0,0,13.1,2.7l111.5-86.8a8.3,8.3,0,0,0,2.3-2.7l5.4-9.7C1443,1688.5,1432.5,1679.8,1425,1686Z" class="colorfff svgShape"></path><path d="M1313.7,1798.5a6.5,6.5,0,0,1-1.9-.2,9.2,9.2,0,0,1-4-16.2l116.9-96.5a9.1,9.1,0,0,1,11.8,0,8.9,8.9,0,0,1,2.2,11.6l-5.3,9.7a9.9,9.9,0,0,1-2.5,2.9l-111.5,86.8A10,10,0,0,1,1313.7,1798.5Zm111.6-112.1-116.9,96.4a8.3,8.3,0,0,0-1.9,10.5,7.8,7.8,0,0,0,5.5,4,8.2,8.2,0,0,0,6.8-1.5l111.5-86.8a9.2,9.2,0,0,0,2.2-2.6l5.3-9.6a8.1,8.1,0,0,0-1.9-10.4,8,8,0,0,0-10.6,0Z" fill="#000000" class="color000 svgShape"></path><path fill="#987ba3" d="M1404.9,1729.2l11.6,7a12.1,12.1,0,0,0,16.6-4.1l65-107.6a12,12,0,0,0-5.1-17.1l-12.2-5.9a12.1,12.1,0,0,0-15.6,4.6l-64.4,106.5A12,12,0,0,0,1404.9,1729.2Z" class="color987ba3 svgShape"></path><rect width="528.8" height="91.99" x="1539.4" y="1376.9" fill="#54355e" rx="28.5" class="color54355e svgShape"></rect><path fill="#54355e" d="M406.5,1291.5l274.6,45.7a17.3,17.3,0,0,1,13.4,23l-31.3,84.6a17.3,17.3,0,0,1-18.4,11.2l-239.5-31a17.3,17.3,0,0,1-15-16.5l-3.9-99.3A17.3,17.3,0,0,1,406.5,1291.5Z" class="color54355e svgShape"></path><path fill="#ffffff" d="M1364,1486c6.1,7.6,19.3,23.5,36.7,35.8s-6.4,55.2-25.1,66a394.1,394.1,0,0,0-36.4,24.3s-2.4-26.9-26.6-46.2S1364,1486,1364,1486Z" class="colorfff svgShape"></path><path fill="#302342" d="M1460.8,1219c-55.4,51.5-131.3,46.7-170.9,53.1s-72-2.4-70.4,15.8-14.3,5.5-14.3,15.8,6.6,11.6,37.7,59.6,91.7,96.6,105.5,107.1,31.2,19.5,32.8,27.4c1,5.2-4.4,21.1-13.3,35.8-4.9,8.1-10.8,15.8-17.3,21.2-18.5,15.3-25.4,24.8-36.4,17.9s-155.1-100.7-168.9-111.3-140.8-112.3-155-127.1-21.7-41.7-21.7-64.4,16.9-41.1,24.3-47.4,62.2-46.5,111.8-72.3,61.2-37.8,61.2-37.8l49.6-15.2,2.5-6,2.4-6.1s73.4,34.7,132.8,36,126.6-52.9,126.6-52.9C1479.8,1071.9,1516.2,1167.6,1460.8,1219Z" class="color302342 svgShape"></path><path fill="#181223" d="M1460.8,1219c-55.4,51.5-131.3,46.7-170.9,53.1s-72-2.4-70.4,15.8-14.3,5.5-14.3,15.8,6.6,11.6,37.7,59.6,91.7,96.6,105.5,107.1,31.2,19.5,32.8,27.4c1,5.2-4.4,21.1-13.3,35.8-7.4-6.8-15.2-14.4-23.4-22.6-38.8-38.7-72-62.5-114.4-132.9s-106.5-114.8-106.5-114.8,84.8-3.9,157.6-14.9c56.3-8.5,116.5-30.9,140.8-40.7a1.3,1.3,0,0,0-.7-2.5c-28,4.7-96.5,15.5-105.3,9.9-11.1-7.1-35.6-85.5-35.6-85.5l-62.4-38.4,2.4-6.1s73.4,34.7,132.8,36,126.6-52.9,126.6-52.9C1479.8,1071.9,1516.2,1167.6,1460.8,1219Z" class="color181223 svgShape"></path><path fill="#302342" d="M1385.2,1511s-2.5-4.2,10.2,2.1,20-1.5,32.2,4.3,42.2,23.7,54.8,32.7,17.5,18.7,16.9,24.9-12.6,29.4-20.6,29.4-25.3-.5-22.1,5.3,7.9,18.4,4.7,25.8-55.9,98.7-62.7,106.1-59.1,52.7-76,54.8-33.2,1.1-36.4-8.9-14.8-9.5-4.7-30.1,25.8-44.3,36.9-88.1-6.4-65.4-1.1-76.5,13.2-19.2,20.6-17.8,11.1,5.7,23.2-4.9,17.4-41.1,19-45.9S1385.2,1511,1385.2,1511Z" class="color302342 svgShape"></path><path fill="#54355e" d="M1558.9,1157.3c-5.5,9.5-97.3,37.2-170.1,41.2s-97.3,11.8-102.1-10c-2.6-12.1-15.9-54.2-31.2-107.3-12.1-41.9-25.6-90.6-36-136.7-2.9-12.8-5.8-25.6-8.5-38.4h0c-5.6-26.1-10.7-51.9-15.3-76.3-11.6-61.6-19.3-114.2-19.8-138.6,0,0,6.9-52.2,9-61.2s18.5-32.7,25.3-48.5c3.9-9,10-12.9,15.7-14.4a26.5,26.5,0,0,1,10.7-.4c5.8,1.1,63.3,18.5,94.4,59.1s166.2,435,190.7,472.2S1564.5,1147.8,1558.9,1157.3Z" class="color54355e svgShape"></path><path fill="#987ba3" d="M1230.8,612.6c-2.1,3.7-32.2,24.8-32.2,24.8s20.1,21.1,20.1,29-9,213-7.7,239.7c-19.6-91.9-34.4-180.8-35.1-214.9,0,0,6.9-52.2,9-61.2s18.5-32.7,25.3-48.5c3.9-9,10-12.9,15.7-14.4C1228.4,583.2,1232.3,610.1,1230.8,612.6Z" class="color987ba3 svgShape"></path><path fill="#302342" d="M1255.5,1081.2c-12.1-41.9-25.6-90.6-36-136.7-2.9-12.8-5.8-25.6-8.5-38.4h0c-5.6-26.1-10.7-51.9-15.3-76.3,68.1-69.6,124.2-101.9,124.2-101.9S1327,970.2,1255.5,1081.2Z" class="color302342 svgShape"></path><path fill="#987ba3" d="M1325.4,1031.5a149.6,149.6,0,0,0,37.6-5.6c19-5.7,41.5-27.1,45.4-21.1s17.9,38-10.5,53.1-55.6,12.3-65.1,0S1318.7,1031.8,1325.4,1031.5Z" class="color987ba3 svgShape"></path><path fill="#ffb6b1" d="M842.5,1099.7s-55.9,8.8-65,12.7-26.8,14.8-41.9,16.2-34.8,4.9-32,10.9,27.2,10.4,27.2,10.4l83.7,26.1s25.2-8,31.7-19.3,21-28.8,21-28.8Z" class="colorffb6b1 svgShape"></path><path fill="#ffffff" d="M851,1079s-18.7,14.4-19.7,17.6,8.8,19.7,19.7,30.2,17.2,21.8,24.2,18.3,21.7-22.5,21.7-22.5Z" class="colorfff svgShape"></path><path fill="#302342" d="M1223.4,1076.6a214.7,214.7,0,0,1-7.9,20.6l-52.2,15s25.5-37.2,35.3-60.9.5-39.7,0-47.6-32.9-138-32.9-138-30.2,75.6-40.5,87.5S929,1108.7,912.4,1121.1s-15.6,23.1-29.2,12.5-41.2-42-36.4-56.2,102.8-64.1,135.3-98.1,49.8-42,53-53.8,36.4-118.7,43.5-155.9,13.5-97.3,21.4-115.6,33.2-34.8,33.2-34.8,9.5,34.8,9.5,41.2c0,4.4,21.9,125.5,41.8,218.1h0c8.4,39.1,16.4,73.2,22.3,91.3,19.8,60.9,22.5,54.6,24.3,72S1227.4,1064.7,1223.4,1076.6Z" class="color302342 svgShape"></path><path fill="#987ba3" d="M1184.5,878.5c-30.9-57.4-51.1-143.3-53.4-155.6-3-15.8,7.6-34.8,7.6-34.8s-13.4-18.2-15.1-26.1,9.6-42.8,9.6-42.8,9.5,34.8,9.5,41.2C1142.7,664.8,1164.6,785.9,1184.5,878.5Z" class="color987ba3 svgShape"></path><path fill="#54355e" d="M691.1,1137.5l240.8,75.3a14,14,0,0,1,9.5,16.6h0a14,14,0,0,1-17.8,10.2l-241.1-74.3a14.1,14.1,0,0,1-9.4-17.1l.2-1A14.1,14.1,0,0,1,691.1,1137.5Z" class="color54355e svgShape"></path><path fill="#ffb6b1" d="M960.8,1085.1s-38.3,16.5-57.3,20.1-42.9,25.3-47.8,28.1-29.9,33.4-30.6,35.2-5.3,30.9-2.8,43.2,14.7,9.9,14.7,9.9,3.9,9.5,9.2,11.2,13.7-3.1,13.7-3.1,11.2,14,16.2,16.1,34.8,4.6,37.2,0,6.7-7.3,4.3-9.5-21.5-2.8-26.4-4.5-10.2-15.9-9.9-16.9,19.4-4.2,31-13.4,12.7-32.7,21.1-39.4,38.9-25.8,38.9-25.8Z" class="colorffb6b1 svgShape"></path><path fill="#ffffff" d="M930.6,1088.5s-13,8-13.9,10.8,2.9,18.7,16.6,34.5,25.6,21.7,29.3,19.6,13.4-12.2,13.4-12.2Z" class="colorfff svgShape"></path><path fill="#54355e" d="M1275.4,612.6s-54.2-2.9-74.8,52.1-60.7,215.7-65.7,229.6-7,24.8-12.1,31.2-51.1,45.2-94.8,77.4-86.3,75.9-96.8,81.8-2.5,11.4,0,19.9,36.1,52,48.1,41.6,94.9-50.1,158.1-92.2,83.3-58.5,91.3-76.9,75.8-165.1,88.8-233.5S1308,613.1,1275.4,612.6Z" class="color54355e svgShape"></path><path fill="#302342" d="M1177.5,942.8a2,2,0,0,1-1.4-.6c-17.7-18.2-50.5-18.5-50.9-18.5h-2.6l.7-2.5c.5-1.8,51.4-179.8,71.1-244.9,10.5-34.6,31-50.6,46.3-58s30.7-7.7,31.3-7.7a2,2,0,0,1,1.9,2.1,1.9,1.9,0,0,1-2,1.9h0a72.7,72.7,0,0,0-29.6,7.4c-21.2,10.2-36,28.9-44.1,55.5-18.4,60.8-64.1,220.5-70.3,242.3,8.4.4,35,3.1,51.1,19.6a2,2,0,0,1-.1,2.8A2,2,0,0,1,1177.5,942.8Z" class="color302342 svgShape"></path><path fill="#ffb6b1" d="M1578.2,1935.6c-3.6,16.1-46,54-61.2,66.5s-26.9,30.2-37.8,31.8-26.9-5.8-31.8-15.4,2-19,6.4-33.7c3-10.1,15.6-29.7,25.5-48.9a152.8,152.8,0,0,0,11.1-25.3c7.3-24.4,12.8-40.2,14.6-49.5s4.8-21.5,4.6-36.3-3.7-60.3-3.7-60.3,74-24.1,72.3,0c0,0-9.2,72.2-10.6,87.6s2.2,26.4,5.3,42.7c2.2,11.5,5.7,19,6.4,28A42.1,42.1,0,0,1,1578.2,1935.6Z" class="colorffb6b1 svgShape"></path><path fill="#302342" d="M1578.2,1935.6c-3.6,16.1-46,54-61.2,66.5s-26.9,30.2-37.8,31.8-26.9-5.8-31.8-15.4,2-19,6.4-33.7c3-10.1,15.6-29.7,25.5-48.9,11.1-3.7,22.8,1.2,29.6,6.8,8.6,7,16.9,27,27,23.1s34.8-46,43.4-43A42.1,42.1,0,0,1,1578.2,1935.6Z" class="color302342 svgShape"></path><path fill="#ffb6b1" d="M1665,1963.2c-3.7,17-46.8,57.3-62.2,70.7s-27.3,32.1-38.3,33.8-27.3-6.2-32.3-16.4,2-20.2,6.5-35.9c3-10.7,15.8-31.5,25.9-51.9,4.7-9.4,8.8-18.8,11.2-27,7.4-25.9,13-42.7,14.8-52.6s4.9-22.9,4.7-38.6-3.8-64.2-3.8-64.2,75.1-25.6,73.5,0c0,0-9.4,76.9-10.9,93.3s2.3,28,5.5,45.4c2.2,12.2,5.8,20.2,6.4,29.7A47.8,47.8,0,0,1,1665,1963.2Z" class="colorffb6b1 svgShape"></path><path fill="#302342" d="M1665,1963.2c-3.7,17-46.8,57.3-62.2,70.7s-27.3,32.1-38.3,33.8-27.3-6.2-32.3-16.4,2-20.2,6.5-35.9c3-10.7,15.8-31.5,25.9-51.9,11.2-4,23.1,1.3,30,7.2,8.7,7.4,17.2,28.7,27.4,24.6s35.3-48.9,44-45.8A47.8,47.8,0,0,1,1665,1963.2Z" class="color302342 svgShape"></path><circle cx="1752.5" cy="631.6" r="57.3" fill="#302342" class="color302342 svgShape"></circle><path fill="#302342" d="M1570.3,562.3l.6.8c0,.2-.1.3-.1.5s1.2,1.7,3.6,4.6l2.1,2.5a322.4,322.4,0,0,0,30.7,32.5l2.6,2.4,2.9,2.5h0c2.3,2.1,4.7,4.1,7.2,6.1l2.8,2.2,1.9,1.5c3.5,2.7,7.2,5.4,10.9,7.9l3.1,2.1,6.1,3.7h0a122.7,122.7,0,0,0,33.1,14.1h.1a66.8,66.8,0,0,0,7.3,1.4h0a72.8,72.8,0,0,0,10.4.8h1.9a87.7,87.7,0,0,0,26.7-4.8.1.1,0,0,1,.1-.1h.2c1.7-.7,3.4-1.3,5.1-2.1h.1c18.9-8.4,33.6-23.6,42.8-41.6a118.2,118.2,0,0,0,4.8-11c.8-2.4,1.6-4.8,2.3-7.2a99.6,99.6,0,0,0,3.5-22.3h0c-.1-3.3-.3-6.4-.6-9.5a169.1,169.1,0,0,0-3.3-20.5h0a11.7,11.7,0,0,1-.5-2h0c-7.5-31-21.8-49.3-21.8-49.3h0a122.4,122.4,0,0,0-6.7-12.3,90.5,90.5,0,0,0-14.5-17.8,99.1,99.1,0,0,0-8.4-7.2l-3.4-2.4-1.8-1.2a132.8,132.8,0,0,0-12.3-7.1l-.4-.2a69.4,69.4,0,0,0-6.8-3.2l-4.4-1.9a121.9,121.9,0,0,0-15.7-4.9,97.8,97.8,0,0,0-13.6-2.1,88.4,88.4,0,0,0-41.7,6.6l-.9.4a69,69,0,0,0-16.8,10,75.6,75.6,0,0,0-20.9,6.6c-11.9,5.6-25.7,15.9-32.3,34.3a71.8,71.8,0,0,0-3.8,19.7C1550.6,529.5,1562,551.3,1570.3,562.3Z" class="color302342 svgShape"></path><path fill="#ffb6b1" d="M1539.7,771.9s-69.4,118.3,37.9,115.3,214.6-147.6,191.1-166.5-69.3-33.6-71.2-34.1h-.1s-3.1-21.7-.8-36.7c.9-6.2,3.8-12.6,6.9-18,1.3-3,3.2-5.5,6.2-9.3l.3-.4,1.9-2.4.3-.4h.2a40.7,40.7,0,0,0,8.1-21.3s13.8,8.7,24.5,2,15.6-20.8,10.6-34.1-26.3-9.4-28.3-6.9-3.9,9.6-5.2,10.5-3.3,3.3-3.1.2-2.1-20.4-2.1-20.4-33.7-15.7-57.9-36.8-35.7-43.6-39.4-43.1a11.6,11.6,0,0,0-7.6,5.1c-.6,1.3-21.8,38.1-35.2,45,0,0-3.6,75,6.2,104.1s29.8,31.9,33.7,32.7l3.9.9s.1,13.2-2.7,18.4-15.8,7.4-24.8,14.5l-29,19.1c-1.3,1,3.8,8.1,3.8,8.1l-3.3,2.1a113.1,113.1,0,0,0-14,13.8A46.5,46.5,0,0,0,1539.7,771.9Z" class="colorffb6b1 svgShape"></path><path fill="#f47382" d="M1620.6 657.1s18 2.2 36.1-2.4 35.4-18.7 35.1-17.2-22.6 35.1-49.5 44.6S1620.6 657.1 1620.6 657.1zM1730.7 573s3.4-11.2 11.6-6.6 4.6 16.8-.5 22.3-9.9 3.5-8.8.4 3.9-3.3 3.4-5.7-1.7-1.5-3.1-1.1S1728 578 1730.7 573z" class="colorf47382 svgShape"></path><path fill="#ce3a81" d="M1608.6,610.1a27.4,27.4,0,0,0,8.5,12.9,23.1,23.1,0,0,0,18.4,5.5,23.5,23.5,0,0,0,16.4-10.7,28.4,28.4,0,0,0,4.4-14.5,4.4,4.4,0,0,0-1.3-3.2,3.6,3.6,0,0,0-3.1-1.1l-40.3,5.7a3.7,3.7,0,0,0-2.7,2A4.4,4.4,0,0,0,1608.6,610.1Z" class="colorce3a81 svgShape"></path><path fill="#ffffff" d="M1608.9,606.7c5.4,2.6,14.2,3.6,23.8,2.3s17.8-4.8,22.3-8.9a3.6,3.6,0,0,0-3.1-1.1l-40.3,5.7A3.7,3.7,0,0,0,1608.9,606.7Z" class="colorfff svgShape"></path><path fill="#f47382" d="M1617.1,623a23.1,23.1,0,0,0,18.4,5.5,23.5,23.5,0,0,0,16.4-10.7,30.6,30.6,0,0,0-18-2.6A30.3,30.3,0,0,0,1617.1,623Z" class="colorf47382 svgShape"></path><ellipse cx="1649.7" cy="556.7" fill="#302342" rx="7.1" ry="9.8" transform="rotate(-8.1 1662.086 561.792)" class="color302342 svgShape"></ellipse><ellipse cx="1652.6" cy="551.2" fill="#ffffff" rx="2.2" ry="3.1" transform="rotate(-8.1 1655.044 551.53)" class="colorfff svgShape"></ellipse><ellipse cx="1597.2" cy="561.5" fill="#302342" rx="6" ry="9" transform="rotate(-8.1 1599.668 561.804)" class="color302342 svgShape"></ellipse><ellipse cx="1599.5" cy="556.6" fill="#ffffff" rx="1.8" ry="2.8" transform="rotate(-8.1 1601.43 556.96)" class="colorfff svgShape"></ellipse><path fill="#302342" d="M1641.6 537.1c2.5-4.1 8.4-3.4 11.7-1s6.2-3 3-5.2c-6.1-4.3-15.7-3.6-19.9 3.1-2 3.3 3.2 6.4 5.2 3.1zM1591.3 544.9c1.1-2.1 3.9-4.3 6.5-2.9s6.4-3.3 3-5.2c-5.4-2.9-11.9 0-14.7 5-1.8 3.4 3.4 6.5 5.2 3.1z" class="color302342 svgShape"></path><path fill="#f47382" d="M1615.2,567.4a10.3,10.3,0,0,1-1.4,6.9c-1.3,2.3-3.7,3.7-5.3,5.8a5.6,5.6,0,0,0,.3,7.5c2,2.3,5.2,2.9,7.7,4.3s4.3-2.1,2.1-3.4-5.4-1.7-7-3.7,1.3-3.6,2.5-4.6a15.2,15.2,0,0,0,5-13.9,2.1,2.1,0,0,0-2.5-1.4,2.2,2.2,0,0,0-1.4,2.5Z" class="colorf47382 svgShape"></path><path fill="#ffffff" d="M1779.2,528.8a10.4,10.4,0,0,1-.5-2.1A16,16,0,0,0,1779.2,528.8Z" class="colorfff svgShape"></path><path d="M1778.7,528.9a9.8,9.8,0,0,1-.5-2.2h1a19.4,19.4,0,0,0,.5,2Z" fill="#000000" class="color000 svgShape"></path><path fill="#302342" d="M1667.3,510.5s26.1,25.1,29.5,58.7-19.4,48.6-19.4,48.6a34.3,34.3,0,0,0,22.9-15c8.5-13.3,8.3-21.4,8.3-21.4s-2.6,44.6-13.2,67-18.4,29.3-18.4,29.3,45.2-34.7,50.2-71.4-2.4-65.8-2.4-65.8Z" class="color302342 svgShape"></path><path fill="#ffffff" d="M1609.4,434.1s81.5-17.6,129.1,49.3,24.6,118.6,12.8,135.5-21.7,22-21.7,22l-5.4,2.2s30.6-31.7,33.1-57-9.3-79.1-38.8-106.5-67.8-34.7-88.4-38.4-41.5-.5-41.5-.5Z" class="colorfff svgShape"></path><path fill="#ffb6b1" d="M1496.1,725.1,1388.4,847.7l40.6,59.5,76.2-55.4,43.8-24.3s54-73.7,19-93.3S1496.1,725.1,1496.1,725.1Z" class="colorffb6b1 svgShape"></path><path fill="#ffebf1" d="M1837.7,821.3s-33.6,87.3-36.6,115.2-2.8,51.9-2.9,68.3,46.2,88.7,46.2,88.7-61.8,3.4-88.6-93.7S1739,818.4,1837.7,821.3Z" class="colorffebf1 svgShape"></path><path fill="#ffffff" d="M1894.6,785.9c-3.3,3.7-19.3-6.9-26.4,10.2s-2.3,23.6-27.3,28.2-37.6,12.5-37.6,12.5-3.2,40.2-5.9,73.9c-1,13.4-2,25.8-2.7,34.2-.4,4.1-.6,7.2-.8,9.1-1.4,15.2-.7,31.2-.7,40.9,0,1.4.1,3,.2,4.7.9,10.6,4.1,26.6,4.7,31.4s53.1,52,68.1,115.6c.7,2.8,1.3,5.7,1.8,8.5,12,68-2.6,214.4-32.7,264.3s-108.2,97.1-113.9,112.8-22.6,37-22.6,86,4.7,63.8-3.7,120.2-11.3,76.8-12.2,101.8-9.5,33.3-46.2,25-45.1-40.7-95-29.7-49.9-33.2-49.9-33.2-88.4-354.2-100.6-408.8,4.7-74,19.7-98.9c11.6-19.3,96.8-107.6,139.3-160.2,12.7-15.7,21.6-28.2,23.5-34.8,8.5-28.4,4.9-65.2,5.7-77.6s-20.5-36.1-34.6-59c-11-17.8-24.9-39.7-24-65.6a72.6,72.6,0,0,1,4.9-23.2c14.1-36,14.1-54.1,17.7-71.4s3.5-45.1,3.5-45.1-3.5,6.9-20.5-10.4-30.3-22.2-30.3-22.2,42.3-38.8,57.1-38.8,57.2-4.2,57.2-4.2-7.1,43.2-2.4,74.2,7.6,46.7,15.1,45.8,36-56.4,54.9-84.2,15.4-39.2,20.1-39.6,120.7,15.1,133.9,28.5,39,37,51.3,52.3S1897.9,782.2,1894.6,785.9Z" class="colorfff svgShape"></path><path fill="#ffebf1" d="M1866.2,1146.6c-23.4,30.5-60.3,70.3-100.4,81.4-67.6,18.7-125.9-8.7-125.9-8.7s-62.7,150.7-81.1,200.3-12.9,124.6-12.9,124.6-9.8-79.5-4.2-130.4,67.8-158.1,70.4-216.4c1.6-35.4-33.9-53.9-61.9-63,12.7-15.7,21.6-28.2,23.5-34.8,8.5-28.4,4.9-65.2,5.7-77.6s-20.5-36.1-34.6-59c-11-17.8-24.9-39.7-24-65.6,77.4-27.8,170.7-27.4,156.4-24.2-22.9,5.3-13.2,37.1,44.3,43.2a214.5,214.5,0,0,0,75.9-5.7c-1,13.4-2,25.8-2.7,34.2-17-4.6-42.2-10.2-69.5-11.9-48.9-2.9-48,8-48,8s67.1,74.2,92.7,72.6c7.8-.5,15.9-6.2,23.5-14,.9,10.6,4.1,26.6,4.7,31.4S1851.2,1083,1866.2,1146.6Z" class="colorffebf1 svgShape"></path><path fill="#ffffff" d="M1829.2,1070.2c-12.2,6.9-24.6,13-35.3,16.8-33.4,11.9-68,29.1-70.7,33s-8.2,3.2-13.2,5.2-24.9,18.1-31.1,22.1-33.4,2-34.8,3.1-9.5,1.6-12.2,0-2.7-8.2-2.7-8.2-5.8-2-7.2-5.6-.4-9.6-.4-9.6a10.7,10.7,0,0,1-6-6.2c-2-5.1,2.3-11.4,2.3-11.4s-4.3-2.8-4.1-6.5,4.3-6.6,7.2-8.9,28.2-9.9,28.2-9.9-11.9-1.8-16.5-3.4-6.2-4.9-5.3-7,8-2.8,11.1-2.8,15-1.2,19-1.2,14.2,2.2,19.5,3.1,18.2,1.6,24,0,29.4-12.2,36-15.4c2.8-1.4,10.8-6.2,20.1-12.4l12-10c7.1-6,16.4-14,25-22l.9-.8c1.3,7.9,2.7,15.7,3.1,18.8S1813.2,1048,1829.2,1070.2Z" class="colorfff svgShape"></path><path d="M1637.6,1151.8a14.1,14.1,0,0,1-6-1c-2.5-1.6-2.8-6.8-2.9-8.2s-5.8-2.5-7.2-5.8-.7-8-.5-9.4a11.3,11.3,0,0,1-5.8-6.4c-1.9-4.6,1.1-9.9,2-11.4-1.1-.9-4.1-3.4-3.9-6.7s4.1-6.8,7-9l.4-.3c2.4-1.9,20.2-7.4,26.3-9.3-3.7-.7-11-2-14.4-3.2a9,9,0,0,1-5.5-4.4,4,4,0,0,1-.2-3.2c1.2-3,11.5-3.1,11.6-3.1l8.5-.5c4.1-.3,8.4-.7,10.5-.7s8.2,1,13.1,1.9l6.5,1.2c5.5.8,18.2,1.5,23.7,0s29.2-12.1,36-15.4c2.6-1.3,10.3-5.9,20-12.3,0,0,5-4,12-10,9.6-8.1,18-15.5,25-22l.9-.8.7-.6v.9c.6,3.9,1.3,7.6,1.8,11s1.1,6.2,1.3,7.8,3.6,5.2,8,10.3c6,7,14.2,16.5,23,28.7l.3.5-.4.2c-13.7,7.7-25.6,13.4-35.4,16.9-34.7,12.3-68.1,29.3-70.5,32.7s-4.9,3.4-8.2,4a33.9,33.9,0,0,0-5.2,1.5c-3,1.2-12.4,8.3-19.9,13.9-4.5,3.4-8.8,6.6-11.1,8.1-4.3,2.8-17.8,2.8-26.8,2.8-3.7,0-7.6,0-8.1.3S1640.5,1151.8,1637.6,1151.8Zm19.9-81.6c-2.1,0-6.3.4-10.5.7l-8.5.5c-4,0-10.1.9-10.7,2.5a3.4,3.4,0,0,0,.2,2.4,8.7,8.7,0,0,0,4.9,3.9c4.4,1.6,16.3,3.4,16.4,3.4l2.2.3-2.1.7c-8.8,2.6-25.9,8.1-28.1,9.8l-.4.3c-2.7,2.1-6.5,5-6.6,8.3s3.8,6,3.9,6l.4.3-.3.4c0,.1-4.2,6.1-2.2,10.9a10.1,10.1,0,0,0,5.6,6h.5v.4c0,.1-1,5.8.4,9.3s6.8,5.4,6.9,5.4h.3v.3c0,1.8.5,6.5,2.5,7.7s10.3.9,11.6,0,2.5-.4,8.6-.4c8.8,0,22.2,0,26.2-2.6,2.3-1.5,6.6-4.7,11.1-8.1,7.9-6,17-12.7,20.1-14a23.1,23.1,0,0,1,5.4-1.5c3.2-.7,6-1.3,7.6-3.6,2.8-4,37.1-21.1,71-33.1a237.5,237.5,0,0,0,34.7-16.6c-8.7-11.9-16.8-21.3-22.7-28.2s-8-9.4-8.2-10.8-.7-4.3-1.3-7.8-1.1-6.5-1.6-10h-.2c-7.1,6.6-15.5,14-25,22.1l-12.1,10c-9.8,6.5-17.5,11.1-20.2,12.4-6.8,3.4-30.4,13.8-36.1,15.4s-18.9.8-24.1,0c-1.8-.2-4.1-.6-6.5-1.1C1665.6,1071.2,1660,1070.2,1657.5,1070.2Z" fill="#000000" class="color000 svgShape"></path><path fill="#457e7f" d="M1507.7 1062.5s14.5 55.4 19.8 55.6 17-16.8 22.2-15.9 16.9 14.7 28.8 12.2 28.8-31 35.8-33.7 31.6-3.9 31.6-3.9 45.2-48.9-32.5-55.2S1505.8 1016.7 1507.7 1062.5zM1601.5 888.7s-17.8-45.5-22.2-59.5-5.4-17.8-5.4-17.8-21.3-10.2-30.2-26.1-8-21-8-21 9.9-.8 22.5 12.4 16.4 25.7 16.4 25.7-6-25.5-7.2-34.5-13.6-27.6-5.3-45.4 8.9-18.4 8.9-18.4 9.6 15.5 6.7 32.5a174.2 174.2 0 01-8.2 30.2l6.9 34.3s-.2-13.6 10.7-29.9 14.6-18.3 14.6-18.3 3.7 17.8-3 31.9-21.7 25.9-21.7 25.9l6.9 23s16.7-29.2 27-33.9l10.2-4.7A45.4 45.4 0 011610 823c-11.3 13-25.3 13.1-25.3 13.1l18.3 49.5zM1558.3 857.4s-40.6-29.2-52.3-38.7-14.6-12.3-14.6-12.3-23.9 2.2-40.4-6.6-18.7-13.6-18.7-13.6 8.1-5.6 26.3-1 28.5 13.4 28.5 13.4-19.5-18.4-25.5-25.4-27.1-16.2-29.9-35.4-2.7-19.9-2.7-19.9 16.9 8.2 23.9 23.9a167.1 167.1 0 019.9 29.4l25.1 25.3s-7.8-11.2-7.6-30.4 2.4-22.7 2.4-22.7 13.1 13.1 15.2 28.3-4.1 32.6-4.1 32.6l18.7 15.8s-1.9-32.8 4.2-41.9l6.2-9.1a43.5 43.5 0 016.1 29c-2.6 16.5-14.5 23.7-14.5 23.7l43.4 32.2z" class="color457e7f svgShape"></path><path fill="#72b0b5" d="M1621.1,1028.6s-138.9,60.9-156.8,19.9,23.8-46.3,23.8-46.3-71.2-14.9-76.8-51.5,35-21.8,35-21.8-95.1-81.7-42.7-114.3,102.3,34.7,102.3,34.7-23.9-47.4,1.3-45.1,61.4,67.5,61.4,67.5-18.6-50.7,2.2-57.9,49.3,49.1,49.6,49.6-19.5-54.4,18.4-44.4,72.8,124.7,72.8,124.7Z" class="color72b0b5 svgShape"></path><path fill="#f4c9d0" d="M1838.8,1133.8c-6.3-.2-13.7-4.3-22.1,8.3-.7,1-1.3,2-2,3.2a62.1,62.1,0,0,0-3.3,6.8c-10.8,24.4-28.3,25.2-43.9,24.9a19.9,19.9,0,0,0-10,2.6,32.8,32.8,0,0,0-3.8,2.7c-7.7,6.3-13.7,17-20.9,25-11,12.1-12.4,16.1-34.3,6.2a56.1,56.1,0,0,0-6.5-2.5c-15.5-4.5-16.5,6.1-28.2,7.8s-20.1-2.5-19.9-11.8,2.2-125.9-1.6-133.3-29.2-27.6-30.2-31.3,50.5-43.5,82.7-68.9l25.5-20s3,44,9.3,48.3,89.6,85.6,106.3,105.9S1846.4,1134.1,1838.8,1133.8Z" class="colorf4c9d0 svgShape"></path><path fill="#ffebf1" d="M1721.1,1215.8c-3.5,2-8.1,2-21.7-4.2a58.8,58.8,0,0,0-6.8-2.5c-8.2-2.5-12.8-.8-16.2,1.1l-3.5,2.3-3.4,2.2a17.2,17.2,0,0,1-6,2.1c-6.7,1-11.8.2-14.6-2.2s-3-4.2-2.9-7.5v-.7c.4-24.5.6-48.9.7-68.6,0-60-1.8-63.6-2.5-65-2.2-4.3-10.4-11.9-18.3-19.2-4.5-4.1-9.9-9.1-11.4-11.2,2.3-2.7,15-14.7,81.6-67.3l22.4-17.6c.4,4.3,1,11.5,2,18.8,3.2,24,6.6,26.3,7.9,27.2,6.4,4.5,90,86.1,105.9,105.5,9.8,11.8,10.5,17.4,10.1,19.7a3.3,3.3,0,0,1-1.7,2.3,7.4,7.4,0,0,1-3.8.8l-3.3-.4c-3.5-.5-8-1.1-12.6,1.5a25.9,25.9,0,0,0-8.1,8.1c-.6,1-1.3,2-2,3.3s-2.3,4.4-3.5,7c-3.9,9-9.1,15.2-15.7,19s-17,4.8-26.2,4.6a20.7,20.7,0,0,0-11,3,21.3,21.3,0,0,0-4.1,2.8c-4.9,3.9-9.1,9.6-13.1,15-2.6,3.5-5.3,7.1-8.1,10.2l-2,2.3C1725.9,1211.8,1723.6,1214.4,1721.1,1215.8Z" class="colorffebf1 svgShape"></path><path fill="#f4c9d0" d="M1838.8,1133.8c-6.3-.2-13.7-4.3-22.1,8.3-22.2-38.8-44.3-76.1-47.2-76.5s23.3,44.2,45.2,79.7a62.1,62.1,0,0,0-3.3,6.8c-10.8,24.4-28.3,25.2-43.9,24.9a19.9,19.9,0,0,0-10,2.6c-5-48.8-10.7-94.9-14.5-91.6s3.9,53.6,10.7,94.3c-7.7,6.3-13.7,17-20.9,25-11,12.1-12.4,16.1-34.3,6.2a56.1,56.1,0,0,0-6.5-2.5c47.6-64.8,25.8-191.6,25.6-192.6s-65.3,55.4-69.2,51.9,61.9-49.6,63.8-58c1-4.5-8.5-22.9-17.4-38.8l25.5-20s3,44,9.3,48.3,89.6,85.6,106.3,105.9S1846.4,1134.1,1838.8,1133.8Z" class="colorf4c9d0 svgShape"></path><path fill="#ffebf1" d="M1536.2,1065.7s5.1,51.2-8.5,59.1-17.1-11.7-17.1-11.7-22.5,15.4-37.2,1.7,1.8-32,1.8-32-26.2,6.8-29.1-21.4,22-33.7,22-33.7-10.9-13.3-.2-19.7,52.6,21.2,58.2,28.5S1537.1,1058.9,1536.2,1065.7Z" class="colorffebf1 svgShape"></path><path fill="#f4c9d0" d="M1526.4,1058s-5.1,23.5.4,24,6.1-24.1,6.1-24.1,1.4,12.7,4.9,12-1.7-10.9-1.7-10.9,3.3-4,.1-15.6-17.2-9.8-17.2-9.8-17.9-14-21.8-11.6,17.2,16,17.2,16-33.5.1-33.9,3.9,34.3,1.8,34.3,1.8-26.6,12-24.2,16.6,29.3-11.6,29.3-11.6-26.9,27.3-21.5,33.8,26.6-29.3,26.6-29.3-11.6,18.7-8.4,20S1526.4,1058,1526.4,1058Z" class="colorf4c9d0 svgShape"></path><path fill="#457e7f" d="M1635,877.3s-51-11.7-54.3-26.8,16.8-12.2,16.8-12.2-7.7-25.9,10.3-35.2,30.2,12,30.2,12,1.9-26.7,30-20.4,25.5,31.3,25.5,31.3,16.2-5.8,19,6.2-37.3,42.1-46.1,45S1641.2,880.3,1635,877.3Z" class="color457e7f svgShape"></path><path fill="#457e7f" d="M1645.5,870.6s-20.9-12.3-23.3-7.3,21.3,13.4,21.3,13.4-12.6-2.8-13.1.7,11.1,1.9,11.1,1.9,2.8,4.4,15,5.1,14.9-12.8,14.9-12.8,19.2-12.2,18.2-16.6-20.9,10.9-20.9,10.9,10.6-31.3,7.1-32.9-12.8,31.5-12.8,31.5-3-28.7-8.2-28,1.8,31.1,1.8,31.1-17.7-33.8-25.7-30.9,19.7,34.2,19.7,34.2-14.3-16.8-16.6-14.2S1645.5,870.6,1645.5,870.6Z" class="color457e7f svgShape"></path><path fill="#ffebf1" d="M1533.9,879.1s-13.9-15.5.2-25.8,20.5-5.1,20.5-5.1,3.8-13.4,18.1-13.3,17.9,18.3,17.9,18.3,4.8-9,15.7-.9,8.6,18.9,8.6,18.9a22.7,22.7,0,0,1,12,12.5c3.4,9.2-.6,14-.6,14s12,9.6,8,17.4-16.4,11.1-16.4,11.1,2,8.6-8.2,15.2-17.4,3.8-17.4,3.8-9.6,12-18.5,11.1-12.4-9.4-12.4-9.4-14-2.6-18.7-9.9-3.7-13-3.7-13-7.1.8-9.7-8.1,1.1-14.2,1.1-14.2-7.9-4-6.9-12.3S1533.9,879.1,1533.9,879.1Z" class="colorffebf1 svgShape"></path><path fill="#f4c9d0" d="M1564.9,898.1s-17.4,3.6-17-10.4,20.1-21.5,28.2-18.7,5.7,20.6,5.7,20.6,4.8-21.2,18-13,17.6,22.4,12,27.5-22.7,1.9-22.7,1.9,19,5.4,14.9,14.6-22.1,17.3-30.9,8.9-2.9-18-2.9-18-6.1,18.4-16.5,7.6S1554.5,896.2,1564.9,898.1Z" class="colorf4c9d0 svgShape"></path><ellipse cx="1577.5" cy="900.9" fill="#ffebf1" rx="17" ry="16.7" class="colorffebf1 svgShape"></ellipse><path fill="#d13b62" d="M1438.8,828.2s-10-11.1.1-18.5,14.8-3.7,14.8-3.7,2.7-9.6,13-9.5,12.9,13.1,12.9,13.1,3.4-6.5,11.3-.6,6.1,13.5,6.1,13.5a16.6,16.6,0,0,1,8.7,9c2.4,6.7-.5,10.1-.5,10.1s8.7,6.9,5.8,12.5-11.8,8-11.8,8,1.5,6.2-5.9,10.9-12.5,2.8-12.5,2.8-6.9,8.6-13.3,7.9-8.9-6.8-8.9-6.8-10.1-1.8-13.5-7-2.6-9.4-2.6-9.4-5.1.6-7-5.8.8-10.2.8-10.2-5.7-2.9-5-8.8S1438.8,828.2,1438.8,828.2Z" class="colord13b62 svgShape"></path><path fill="#db6a8d" d="M1461.1,841.9s-12.5,2.6-12.2-7.5,14.4-15.5,20.2-13.4,4.2,14.8,4.2,14.8,3.4-15.3,12.9-9.4,12.7,16.1,8.6,19.8-16.3,1.4-16.3,1.4,13.6,3.8,10.7,10.5-15.9,12.4-22.2,6.4a10.6,10.6,0,0,1-2.1-13s-4.4,13.3-11.8,5.5S1453.6,840.5,1461.1,841.9Z" class="colordb6a8d svgShape"></path><ellipse cx="1470.1" cy="843.9" fill="#9e1b63" rx="12.2" ry="12" class="color9e1b63 svgShape"></ellipse><path fill="#d13b62" d="M1478.5,903.7s-10-11.1.1-18.5,14.8-3.7,14.8-3.7,2.7-9.6,13-9.5,12.9,13.1,12.9,13.1,3.4-6.5,11.2-.6,6.2,13.5,6.2,13.5a16.6,16.6,0,0,1,8.7,9c2.4,6.7-.5,10.1-.5,10.1s8.7,6.9,5.7,12.5-11.7,8-11.7,8,1.5,6.2-5.9,10.9-12.5,2.8-12.5,2.8-6.9,8.6-13.3,7.9-8.9-6.8-8.9-6.8-10.1-1.8-13.5-7-2.6-9.4-2.6-9.4-5.1.5-7-5.8.8-10.2.8-10.2-5.7-2.9-5-8.8S1478.5,903.7,1478.5,903.7Z" class="colord13b62 svgShape"></path><path fill="#db6a8d" d="M1500.8,917.4s-12.5,2.6-12.3-7.5,14.5-15.5,20.3-13.5,4.2,14.9,4.2,14.9,3.4-15.3,12.9-9.4,12.6,16.1,8.6,19.8-16.3,1.3-16.3,1.3,13.6,3.9,10.7,10.6S1513,946,1506.7,940a10.6,10.6,0,0,1-2.1-13s-4.4,13.3-11.8,5.5S1493.3,916,1500.8,917.4Z" class="colordb6a8d svgShape"></path><ellipse cx="1509.8" cy="919.4" fill="#9e1b63" rx="12.2" ry="12" class="color9e1b63 svgShape"></ellipse><path fill="#d13b62" d="M1425.3,983.5s-10-11.2.2-18.5,14.7-3.8,14.7-3.8,2.8-9.6,13.1-9.5,12.8,13.1,12.8,13.1,3.5-6.5,11.3-.6,6.1,13.6,6.1,13.6a15.9,15.9,0,0,1,8.7,9c2.5,6.6-.4,10.1-.4,10.1s8.6,6.8,5.7,12.4-11.7,8.1-11.7,8.1,1.4,6.1-5.9,10.9-12.6,2.7-12.6,2.7-6.9,8.6-13.2,8-9-6.8-9-6.8-10.1-1.9-13.5-7.1-2.6-9.3-2.6-9.3-5.1.5-7-5.9.8-10.2.8-10.2-5.6-2.9-5-8.8S1425.3,983.5,1425.3,983.5Z" class="colord13b62 svgShape"></path><path fill="#db6a8d" d="M1447.6,997.2s-12.5,2.5-12.2-7.6,14.5-15.4,20.3-13.4,4.1,14.8,4.1,14.8,3.4-15.3,12.9-9.3,12.7,16.1,8.6,19.7-16.3,1.4-16.3,1.4,13.7,3.9,10.8,10.5-15.9,12.4-22.3,6.4a10.3,10.3,0,0,1-2-12.9s-4.5,13.2-11.9,5.4S1440.2,995.8,1447.6,997.2Z" class="colordb6a8d svgShape"></path><ellipse cx="1456.7" cy="999.1" fill="#9e1b63" rx="12.2" ry="12" class="color9e1b63 svgShape"></ellipse><path fill="#72b0b5" d="M1685,1004s-69.2,47.2-91.1,34.7,3.3-32.8,3.3-32.8-39.7-19-31.6-50.1,47.1-22.5,47.1-22.5-30.2-30.9,7.7-57,65.5,3.9,65.5,3.9,10.5-25.5,28-15.6,10.9,89.1,4.9,102.6S1695.3,1000,1685,1004Z" class="color72b0b5 svgShape"></path><path fill="#457e7f" d="M1688.2 984.5s-37.5 11.3-34 19.3 39.3-10.4 39.3-10.4-17 11.8-13.3 16.1 14.3-10.9 14.3-10.9 8.3 1.4 22.4-12.1.4-31.3.4-31.3 6-35.7-.5-39.3-9.3 36.3-9.3 36.3-26.5-46.1-32.2-43.8 24.4 48.9 24.4 48.9-38.1-27.4-42.8-20.5 39.6 31.4 39.6 31.4-60.1-15.7-65.1-3.2 62.6 13.8 62.6 13.8-35.8-1.3-35.1 4.1S1688.2 984.5 1688.2 984.5zM1585.5 981.9s-66.5-20.1-86.3-27.6-25-9.8-25-9.8-27.3 15.9-52.5 12-30.7-9.6-30.7-9.6 6.3-12.3 30.9-15.3 42.2 4 42.2 4-34.5-16-46-22.8-42.3-8.9-57.5-34.8-15.4-27.1-15.4-27.1 25.3 2.6 43.3 21.5a293.2 293.2 0 0129.8 36.9l45.6 22.9s-16.2-12-27.7-39.6-11.1-33.8-11.1-33.8 23.7 11.8 35.5 32.5 15.1 48.9 15.1 48.9l32.1 12.7s-22.5-46.1-20.7-62.4l1.8-16.4a77.9 77.9 0 0125.1 38.4c7.1 25-2.8 41.7-2.8 41.7l71.7 23.2z" class="color457e7f svgShape"></path><path fill="#ffffff" d="M1516.8,989.3s-18.5-20.5.2-34.1,27.2-6.9,27.2-6.9,5.1-17.7,24-17.5S1592,955,1592,955s6.3-12,20.8-1.2,11.3,25,11.3,25,11.5,4.4,16,16.6-.8,18.6-.8,18.6,15.9,12.7,10.5,23-21.6,14.8-21.6,14.8,2.6,11.4-10.9,20.1-23.1,5.1-23.1,5.1-12.7,15.9-24.5,14.7-16.5-12.5-16.5-12.5-18.5-3.5-24.8-13.1-4.9-17.2-4.9-17.2-9.4.9-12.9-10.8,1.5-18.8,1.5-18.8-10.4-5.4-9.2-16.3S1516.8,989.3,1516.8,989.3Z" class="colorfff svgShape"></path><path fill="#ffebf1" d="M1557.9,1014.6s-23.1,4.7-22.6-13.9,26.7-28.5,37.4-24.8,7.6,27.4,7.6,27.4,6.4-28.2,23.8-17.3,23.4,29.7,15.9,36.4-30.1,2.6-30.1,2.6,25.2,7.1,19.9,19.3-29.4,23-41,11.8-3.9-23.8-3.9-23.8-8.1,24.4-21.8,10.1S1544.1,1012,1557.9,1014.6Z" class="colorffebf1 svgShape"></path><ellipse cx="1574.5" cy="1018.2" fill="#f4c9d0" rx="22.5" ry="22.1" class="colorf4c9d0 svgShape"></ellipse><path fill="#ffffff" d="M1532.6 840.4a27.2 27.2 0 011.1 2.5l1.2 2.6a.9.9 0 010 1 1 1 0 01-.5.6 4.9 4.9 0 01-2.3.8 12 12 0 01-3.2-.6 25.5 25.5 0 01-6.9-3.2h-.2c-2.2-1.4-4.3-3.5-4-6a5.4 5.4 0 014.5-4.5 7.6 7.6 0 016.3 1.7 10.4 10.4 0 012.1 2.1A32.1 32.1 0 011532.6 840.4zM1536.3 852.1a3.8 3.8 0 010 1.5c0 .3-.1.6-.1.9a27.8 27.8 0 01-3.1 8.3 10.8 10.8 0 01-2.4 3.2 5 5 0 01-3.7 1.2 4.9 4.9 0 01-3.7-3.6 7.8 7.8 0 01.1-4 10.4 10.4 0 012.5-4.6c2.1-2.4 5-3.9 7.9-5.3C1535.5 850.6 1536.1 851.3 1536.3 852.1z" class="colorfff svgShape"></path><path fill="#ffffff" d="M1543.1 837.6l-.2.3c-1.2 2.7-3.4 5-5.5 7.2a3.8 3.8 0 01-1.6 1.2l-.9.2a.6.6 0 01-.8-.4c-.1-1.1-.3-2.1-.4-3.2s-.2-3.4-.2-5.1a25.1 25.1 0 011-6c.8-2 2.2-4.1 4.4-4.3a4.4 4.4 0 013.8 2C1544.3 831.8 1544.2 834.9 1543.1 837.6zM1532.2 847.4a25.7 25.7 0 00-16-.2c-2.1.6-4.3 1.7-5.1 3.7a4.8 4.8 0 001.5 5.2 8.3 8.3 0 005.6 1.5 18.8 18.8 0 005.7-1.7 50.4 50.4 0 007.6-4.1 5.2 5.2 0 001.8-1.8A2.1 2.1 0 001532.2 847.4zM1536.4 848.7a1.7 1.7 0 00-1.6 1.8 26.7 26.7 0 003.2 10 7.3 7.3 0 003.2 3.5 5.1 5.1 0 005.3-.7 5.3 5.3 0 002-4.8 8.4 8.4 0 00-2.9-4.7 25.6 25.6 0 00-5.6-4.2A7.1 7.1 0 001536.4 848.7z" class="colorfff svgShape"></path><path fill="#ffffff" d="M1534.1,847a2.8,2.8,0,0,0,1.9,2.3,8.3,8.3,0,0,0,3.2.4,26.7,26.7,0,0,0,9.3-1.1,8.2,8.2,0,0,0,3.9-2.6,5.7,5.7,0,0,0,.8-4.2,4.3,4.3,0,0,0-2.2-3.6c-1.3-.5-2.8,0-4.2.5C1543.1,840,1534.1,846,1534.1,847Z" class="colorfff svgShape"></path><path fill="#9e1b63" d="M1532.3,846.4a4.1,4.1,0,0,1-1.7-2.2.5.5,0,0,1,.1-.8c.2-.1.5.1.7.3a10.7,10.7,0,0,1,1.8,1.9,3.3,3.3,0,0,1-.2-2.6c.1-.3.3-.6.6-.6s.5.3.6.5a6.9,6.9,0,0,1,.5,2.4,4.5,4.5,0,0,1,1.2-2.1.8.8,0,0,1,.7-.4c.3.1.4.6.3.9a3.1,3.1,0,0,1-1.1,2,6.7,6.7,0,0,1,2.1-.9h.7c.8.5,0,1.4-2.1,2a7.3,7.3,0,0,1,2.5.8c.2.2.5.4.5.7s-.5.7-1,.8a3.1,3.1,0,0,1-2.3-.6,13,13,0,0,1,2,1.5,1,1,0,0,1,.4.8c0,.3-.3.5-.6.6l-1-.2a4.1,4.1,0,0,1-2-1.7,5,5,0,0,0,.8,1.2c.2.5.4,1,.1,1.4a1.2,1.2,0,0,1-1.7-.1,2.1,2.1,0,0,1-.6-1.7,6.7,6.7,0,0,1-1,1.9.9.9,0,0,1-1,.1.8.8,0,0,1-.2-.7,3.1,3.1,0,0,1,.9-2.2,4.3,4.3,0,0,1-2.1,1.1c-.4,0-.8-.3-.8-.6a1,1,0,0,1,.4-.7,4,4,0,0,1,1.8-1,6.6,6.6,0,0,1-2.4-.3c-.3-.1-.7-.4-.7-.7a1.1,1.1,0,0,1,.8-.9,4.8,4.8,0,0,1,2.5.6,7.8,7.8,0,0,1-2-1.1,1,1,0,0,1-.5-.4.3.3,0,0,1,.1-.5c.2-.2.5-.1.7,0A9.8,9.8,0,0,1,1532.3,846.4Z" class="color9e1b63 svgShape"></path><path fill="#d13b62" d="M1533.3,846.1c-.2,0-.6.1-.7.3a.8.8,0,0,0-.1.8,1.1,1.1,0,0,0-.4,1.1c0,.4.4.7.8.8a.8.8,0,0,0,.8.7,1,1,0,0,0,1.1-.6,1.2,1.2,0,0,0,1.1-.4,1.1,1.1,0,0,0,0-1.1,1,1,0,0,0,.1-1.2,1.2,1.2,0,0,0-1-.5.8.8,0,0,0-.7-.4Z" class="colord13b62 svgShape"></path><path fill="#ffffff" d="M1414.7 880.3c.5.9.8 1.7 1.2 2.6l1.2 2.5a1.1 1.1 0 010 1.1l-.5.6a6.8 6.8 0 01-2.3.7 8.7 8.7 0 01-3.2-.6 29.3 29.3 0 01-7-3.1c0-.1-.1-.1-.1-.2-2.2-1.4-4.3-3.5-4.1-6a5.5 5.5 0 014.5-4.5 7.8 7.8 0 016.4 1.7 10 10 0 012 2.1A14.4 14.4 0 011414.7 880.3zM1418.4 892a3.8 3.8 0 01.1 1.5 2.9 2.9 0 01-.2.9 27.6 27.6 0 01-3 8.3 12.8 12.8 0 01-2.4 3.2 5.2 5.2 0 01-3.7 1.2c-1.9-.2-3.2-1.9-3.7-3.6a6.8 6.8 0 01.1-4 10.4 10.4 0 012.5-4.6 25.5 25.5 0 017.9-5.3C1417.7 890.6 1418.3 891.3 1418.4 892z" class="colorfff svgShape"></path><path fill="#ffffff" d="M1425.2 877.5c0 .1-.1.3-.1.4a28.8 28.8 0 01-5.5 7.1 6.5 6.5 0 01-1.6 1.3l-.9.2c-.4 0-.8-.1-.8-.5s-.3-2.1-.4-3.1a29.4 29.4 0 01-.2-5.1 18.1 18.1 0 011-6.1c.7-2 2.2-4.1 4.4-4.3a4.6 4.6 0 013.8 2A8.3 8.3 0 011425.2 877.5zM1414.4 887.3a26.5 26.5 0 00-16-.2c-2.1.7-4.3 1.8-5.1 3.7a4.6 4.6 0 001.5 5.2 7.8 7.8 0 005.6 1.5 18.8 18.8 0 005.7-1.7 42.8 42.8 0 007.6-4.1 4.2 4.2 0 001.7-1.8A2.1 2.1 0 001414.4 887.3zM1418.6 888.7a1.6 1.6 0 00-1.6 1.8 27.3 27.3 0 003.2 10 7.8 7.8 0 003.1 3.4 5.2 5.2 0 007.3-5.5c-.2-1.9-1.5-3.4-2.8-4.7a27.8 27.8 0 00-5.6-4.1A5.7 5.7 0 001418.6 888.7z" class="colorfff svgShape"></path><path fill="#ffffff" d="M1416.3,887a2.9,2.9,0,0,0,1.8,2.2,11.3,11.3,0,0,0,3.2.5,30.4,30.4,0,0,0,9.4-1.2,7.5,7.5,0,0,0,3.9-2.6,6.2,6.2,0,0,0,.8-4.2c-.2-1.4-.8-3-2.2-3.6a7.2,7.2,0,0,0-4.3.5C1425.3,880,1416.3,886,1416.3,887Z" class="colorfff svgShape"></path><path fill="#9e1b63" d="M1414.5,886.4a5.8,5.8,0,0,1-1.8-2.3c-.1-.2-.1-.6.1-.7s.6,0,.8.2a10.6,10.6,0,0,1,1.7,2,3.9,3.9,0,0,1-.1-2.6c0-.3.3-.7.6-.7s.5.3.6.6a5.9,5.9,0,0,1,.5,2.3,5.3,5.3,0,0,1,1.1-2.1c.2-.2.5-.4.7-.3s.5.5.4.8a3.2,3.2,0,0,1-1.2,2,5.8,5.8,0,0,1,2.2-.8h.7c.8.5,0,1.4-2.1,2a5,5,0,0,1,2.4.9.9.9,0,0,1,.6.6c0,.5-.6.7-1,.8a3.5,3.5,0,0,1-2.4-.6l2,1.5a1,1,0,0,1,.5.8c0,.3-.3.5-.7.6a1.5,1.5,0,0,1-.9-.2,4.1,4.1,0,0,1-2-1.7,5.7,5.7,0,0,0,.8,1.3,1.2,1.2,0,0,1,0,1.3c-.3.6-1.2.4-1.7,0a2.9,2.9,0,0,1-.5-1.8,8.2,8.2,0,0,1-1,1.9.9.9,0,0,1-1,.1c-.2-.1-.2-.4-.3-.7a3.2,3.2,0,0,1,1-2.2,3.6,3.6,0,0,1-2.1,1.1c-.4,0-.9-.2-.9-.6a4.3,4.3,0,0,1,.4-.7,6.9,6.9,0,0,1,1.9-1,9.3,9.3,0,0,1-2.4-.2c-.3-.2-.7-.4-.7-.8s.4-.8.8-.8a4,4,0,0,1,2.5.5l-2.1-1c-.1-.1-.3-.2-.4-.4a.6.6,0,0,1,0-.6c.2-.2.6-.1.8,0A12.2,12.2,0,0,1,1414.5,886.4Z" class="color9e1b63 svgShape"></path><path fill="#d13b62" d="M1415.5,886a.9.9,0,0,0-.8.4c-.1.2-.2.5,0,.7a1.3,1.3,0,0,0-.5,1.1,1.1,1.1,0,0,0,.8.8,1,1,0,0,0,2,.1.8.8,0,0,0,1-.4.9.9,0,0,0,.1-1.1,1.1,1.1,0,0,0-.9-1.7c-.2-.2-.5-.4-.7-.3A2.6,2.6,0,0,0,1415.5,886Z" class="colord13b62 svgShape"></path><path fill="#ffffff" d="M1501.4 1010.1l1.2 2.5a20.3 20.3 0 001.1 2.6 1.4 1.4 0 01.1 1.1 3.4 3.4 0 01-.6.6 6.3 6.3 0 01-2.2.7 9.6 9.6 0 01-3.3-.6 25.5 25.5 0 01-6.9-3.2h-.2c-2.2-1.4-4.3-3.5-4-6a5.4 5.4 0 014.5-4.5 7.6 7.6 0 016.3 1.7 10.4 10.4 0 012.1 2.1A32.1 32.1 0 011501.4 1010.1zM1505.1 1021.8a3.8 3.8 0 010 1.5c0 .3-.1.6-.1.9a27.8 27.8 0 01-3.1 8.3 10.8 10.8 0 01-2.4 3.2 5 5 0 01-3.7 1.2c-1.9-.2-3.2-1.9-3.7-3.6a7.8 7.8 0 01.1-4 11.5 11.5 0 012.5-4.6 27.2 27.2 0 018-5.3C1504.4 1020.3 1504.9 1021.1 1505.1 1021.8z" class="colorfff svgShape"></path><path fill="#ffffff" d="M1511.9 1007.3l-.2.3c-1.2 2.8-3.4 5-5.5 7.2a3.5 3.5 0 01-1.5 1.2 1.6 1.6 0 01-.9.3c-.5 0-.8-.1-.9-.5l-.3-3.2a43.6 43.6 0 01-.3-5.1 21.1 21.1 0 011.1-6c.7-2 2.2-4.1 4.3-4.3a4.3 4.3 0 013.8 2C1513.2 1001.5 1513 1004.7 1511.9 1007.3zM1501 1017.1a26.5 26.5 0 00-16-.2c-2.1.6-4.3 1.7-5.1 3.7a4.7 4.7 0 001.5 5.2 8.3 8.3 0 005.6 1.5 20.3 20.3 0 005.8-1.7 45.6 45.6 0 007.5-4.1 4.5 4.5 0 001.8-1.8A2 2 0 001501 1017.1zM1505.2 1018.4a1.7 1.7 0 00-1.5 1.8 25.3 25.3 0 003.1 10.1 8.1 8.1 0 003.2 3.4 5.3 5.3 0 005.3-.6 5.3 5.3 0 002-4.9 8.4 8.4 0 00-2.9-4.7 23.1 23.1 0 00-5.6-4.1A6.3 6.3 0 001505.2 1018.4z" class="colorfff svgShape"></path><path fill="#ffffff" d="M1503,1016.8a2.5,2.5,0,0,0,1.8,2.2,11.3,11.3,0,0,0,3.2.5,29.4,29.4,0,0,0,9.3-1.2,7.5,7.5,0,0,0,3.9-2.6,5.7,5.7,0,0,0,.8-4.2,4.3,4.3,0,0,0-2.2-3.6,6.9,6.9,0,0,0-4.2.5C1511.9,1009.8,1502.9,1015.7,1503,1016.8Z" class="colorfff svgShape"></path><path fill="#9e1b63" d="M1501.1,1016.2a4.8,4.8,0,0,1-1.7-2.3c-.1-.2-.2-.6.1-.8s.5.1.8.3a16.3,16.3,0,0,1,1.7,2,3.9,3.9,0,0,1-.2-2.6c.1-.3.3-.7.6-.7s.5.3.6.6a4.6,4.6,0,0,1,.5,2.3,4.5,4.5,0,0,1,1.2-2.1c.2-.2.4-.4.7-.3s.4.5.3.8a3.1,3.1,0,0,1-1.1,2,5.4,5.4,0,0,1,2.1-.8.8.8,0,0,1,.7,0c.9.5,0,1.4-2,2a5.4,5.4,0,0,1,2.4.9c.2.1.5.3.5.6s-.5.7-1,.8a3.1,3.1,0,0,1-2.3-.6,9.5,9.5,0,0,1,2,1.5c.2.2.5.5.4.8s-.3.5-.6.6l-.9-.2a3.4,3.4,0,0,1-2-1.7c.1.5.5.8.7,1.3a1.1,1.1,0,0,1,.1,1.3,1.2,1.2,0,0,1-1.7,0,3.9,3.9,0,0,1-.6-1.8,5.6,5.6,0,0,1-1,1.9.9.9,0,0,1-1,.1c-.2-.1-.2-.4-.2-.7a3.1,3.1,0,0,1,.9-2.2,3.9,3.9,0,0,1-2.1,1.1c-.4,0-.8-.2-.8-.6a1,1,0,0,1,.4-.7,6.4,6.4,0,0,1,1.8-1,5.8,5.8,0,0,1-2.3-.3,1,1,0,0,1-.8-.7,1.1,1.1,0,0,1,.9-.9,5.1,5.1,0,0,1,2.5.6,10.2,10.2,0,0,1-2.1-1l-.5-.4c-.1-.2-.1-.5.1-.6s.5-.1.8,0A9.4,9.4,0,0,1,1501.1,1016.2Z" class="color9e1b63 svgShape"></path><path fill="#d13b62" d="M1502.2,1015.8a1.1,1.1,0,0,0-.8.3.8.8,0,0,0-.1.8,1.2,1.2,0,0,0-.4,1.1,19.9,19.9,0,0,0,1.7,1.6,1.2,1.2,0,0,0,1-.7,1.2,1.2,0,0,0,1.1-.4,1.1,1.1,0,0,0,0-1.1.9.9,0,0,0,.1-1.1,1.1,1.1,0,0,0-1-.6.6.6,0,0,0-.7-.3C1502.8,1015.4,1502.6,1015.6,1502.2,1015.8Z" class="colord13b62 svgShape"></path><path fill="#ffffff" d="M1622.3 922.9l1.2 2.5c.4.9.7 1.7 1.2 2.6a1.7 1.7 0 010 1 1 1 0 01-.5.6 4.3 4.3 0 01-2.3.7 8.6 8.6 0 01-3.2-.5 26.1 26.1 0 01-7-3.2h-.2c-2.1-1.4-4.2-3.5-4-6a5.5 5.5 0 014.5-4.6 8.2 8.2 0 016.4 1.8 13.4 13.4 0 012 2.1A12.3 12.3 0 011622.3 922.9zM1626 934.6a7.6 7.6 0 01.1 1.5c-.1.3-.1.6-.2.9a27.8 27.8 0 01-3.1 8.3 8.1 8.1 0 01-2.4 3.1 4.2 4.2 0 01-7.3-2.3 8.1 8.1 0 010-4.1 12 12 0 012.6-4.5 22.4 22.4 0 017.9-5.3C1625.3 933.1 1625.8 933.8 1626 934.6z" class="colorfff svgShape"></path><path fill="#ffffff" d="M1632.8 920.1c0 .1-.1.2-.1.3a29.7 29.7 0 01-5.6 7.2 4.4 4.4 0 01-1.5 1.2l-.9.2c-.4 0-.8-.1-.8-.4s-.3-2.1-.4-3.2a43.6 43.6 0 01-.3-5.1 21.1 21.1 0 011.1-6c.7-2 2.2-4.1 4.4-4.3a4.6 4.6 0 013.8 2C1634.1 914.3 1633.9 917.4 1632.8 920.1zM1621.9 929.9a25.7 25.7 0 00-16-.2c-2 .6-4.2 1.7-5.1 3.7a4.8 4.8 0 001.6 5.2 7.9 7.9 0 005.5 1.5 20.3 20.3 0 005.8-1.7 59.9 59.9 0 007.5-4.1 4.4 4.4 0 001.8-1.8A2 2 0 001621.9 929.9zM1626.1 931.2a1.7 1.7 0 00-1.5 1.8 27.1 27.1 0 003.1 10 7.8 7.8 0 003.2 3.5 5.1 5.1 0 005.3-.7 5.2 5.2 0 002-4.9c-.2-1.8-1.5-3.3-2.8-4.7a29.5 29.5 0 00-5.7-4.1A7.1 7.1 0 001626.1 931.2z" class="colorfff svgShape"></path><path fill="#ffffff" d="M1623.9,929.5a2.7,2.7,0,0,0,1.8,2.3,8.5,8.5,0,0,0,3.2.4,25.4,25.4,0,0,0,9.4-1.2,6.7,6.7,0,0,0,3.8-2.5,5.7,5.7,0,0,0,.8-4.2c-.2-1.5-.7-3-2.2-3.6s-2.8,0-4.2.5C1632.8,922.5,1623.9,928.5,1623.9,929.5Z" class="colorfff svgShape"></path><path fill="#9e1b63" d="M1622,928.9a4.1,4.1,0,0,1-1.7-2.2c-.1-.3-.2-.6.1-.8a.8.8,0,0,1,.8.3,15.4,15.4,0,0,1,1.7,1.9,3.9,3.9,0,0,1-.2-2.6.7.7,0,0,1,.7-.6c.3,0,.5.3.6.5a10.3,10.3,0,0,1,.5,2.4,4.3,4.3,0,0,1,1.1-2.1,1,1,0,0,1,.7-.4c.4.1.4.5.4.9a3.7,3.7,0,0,1-1.2,2,8.5,8.5,0,0,1,2.2-.9h.6c.9.5,0,1.4-2,2a6.2,6.2,0,0,1,2.4.8c.3.2.5.4.5.7s-.5.7-1,.8a3.2,3.2,0,0,1-2.3-.6,9.5,9.5,0,0,1,2,1.5c.2.2.5.4.5.8a1.1,1.1,0,0,1-.7.6l-.9-.2a4.2,4.2,0,0,1-2-1.7c.1.5.5.8.7,1.2a1.2,1.2,0,0,1,.1,1.4,1.2,1.2,0,0,1-1.7-.1,3.2,3.2,0,0,1-.6-1.7,7.4,7.4,0,0,1-.9,1.8c-.3.3-.8.4-1,.2a1.1,1.1,0,0,1-.3-.7,3.1,3.1,0,0,1,.9-2.2,3.6,3.6,0,0,1-2.1,1.1c-.4,0-.8-.3-.8-.6a1,1,0,0,1,.4-.7,4.4,4.4,0,0,1,1.9-1,6.3,6.3,0,0,1-2.4-.3.8.8,0,0,1-.7-.7c-.1-.5.3-.8.8-.9a5.1,5.1,0,0,1,2.5.6l-2.1-1.1a1,1,0,0,1-.5-.4.3.3,0,0,1,.1-.5c.2-.2.5-.1.8,0A12.5,12.5,0,0,1,1622,928.9Z" class="color9e1b63 svgShape"></path><path fill="#d13b62" d="M1623.1 928.6a1.1 1.1 0 00-.8.3.8.8 0 00-.1.8 1.1 1.1 0 00-.4 1.1 1.1 1.1 0 00.8.8 1 1 0 00.9.7.9.9 0 001-.6 1.1 1.1 0 001.1-.4 1.1 1.1 0 00.1-1.1 1.3 1.3 0 000-1.2c-.1-.3-.6-.5-1-.5a.7.7 0 00-.7-.4A2.1 2.1 0 001623.1 928.6zM1669.7 846.8s-10.1-11.1.1-18.5 14.7-3.7 14.7-3.7 2.8-9.6 13.1-9.5 12.9 13.1 12.9 13.1 3.4-6.5 11.2-.7 6.2 13.6 6.2 13.6a16.3 16.3 0 018.6 9c2.5 6.6-.4 10.1-.4 10.1s8.6 6.9 5.7 12.5-11.7 8-11.7 8 1.4 6.2-5.9 10.9-12.6 2.7-12.6 2.7-6.8 8.7-13.2 8-9-6.8-9-6.8-10-1.8-13.4-7-2.7-9.4-2.7-9.4-5.1.5-7-5.8.8-10.2.8-10.2-5.6-2.9-4.9-8.9S1669.7 846.8 1669.7 846.8z" class="colord13b62 svgShape"></path><path fill="#db6a8d" d="M1692,860.5s-12.6,2.6-12.3-7.5,14.5-15.5,20.3-13.5,4.1,14.9,4.1,14.9,3.5-15.3,12.9-9.4,12.7,16.1,8.7,19.8-16.4,1.3-16.4,1.3,13.7,3.9,10.8,10.5-15.9,12.5-22.2,6.4a10.4,10.4,0,0,1-2.1-12.9s-4.4,13.2-11.9,5.5S1684.5,859.1,1692,860.5Z" class="colordb6a8d svgShape"></path><ellipse cx="1701" cy="862.5" fill="#9e1b63" rx="12.2" ry="12" class="color9e1b63 svgShape"></ellipse><path fill="#d13b62" d="M1573.9,809.3s-7.8-8.7.1-14.3,11.4-2.9,11.4-2.9,2.1-7.4,10-7.4,10,10.2,10,10.2,2.6-5,8.7-.5,4.7,10.5,4.7,10.5a12.5,12.5,0,0,1,6.7,6.9c1.9,5.1-.3,7.8-.3,7.8s6.6,5.3,4.4,9.6-9.1,6.2-9.1,6.2,1.1,4.8-4.5,8.5-9.7,2.1-9.7,2.1-5.3,6.6-10.3,6.1-6.9-5.2-6.9-5.2-7.7-1.5-10.4-5.5-2-7.2-2-7.2-3.9.4-5.4-4.5.6-7.9.6-7.9-4.3-2.2-3.8-6.8S1573.9,809.3,1573.9,809.3Z" class="colord13b62 svgShape"></path><path fill="#db6a8d" d="M1591.1,819.8s-9.7,2-9.5-5.8,11.2-11.9,15.7-10.4,3.2,11.5,3.2,11.5,2.6-11.8,10-7.2,9.8,12.4,6.6,15.2-12.6,1.1-12.6,1.1,10.6,3,8.3,8.1-12.3,9.6-17.1,4.9a8.1,8.1,0,0,1-1.7-10s-3.4,10.3-9.1,4.3S1585.3,818.7,1591.1,819.8Z" class="colordb6a8d svgShape"></path><ellipse cx="1598.1" cy="821.3" fill="#9e1b63" rx="9.4" ry="9.3" class="color9e1b63 svgShape"></ellipse><path fill="#ffb6b1" d="M1917.3,995.9c-2.2,12.4-16.7,23.7-28.8,34.3-8.1,7.2-33.4,25.4-59.3,40-12.2,6.9-24.6,13-35.3,16.8-33.4,11.9-68,29.1-70.7,33s-8.2,3.2-13.2,5.2-24.9,18.1-31.1,22.1-33.4,2-34.8,3.1-9.5,1.6-12.2,0-2.7-8.2-2.7-8.2-5.8-2-7.2-5.6-.4-9.6-.4-9.6a10.7,10.7,0,0,1-6-6.2c-2-5.1,2.3-11.4,2.3-11.4s-4.3-2.8-4.1-6.5,4.3-6.6,7.2-8.9,28.2-9.9,28.2-9.9-11.9-1.8-16.5-3.4-6.2-4.9-5.3-7,8-2.8,11.1-2.8,15-1.2,19-1.2,14.2,2.2,19.5,3.1,18.2,1.6,24,0,29.4-12.2,36-15.4c2.8-1.4,10.8-6.2,20.1-12.4l12-10c7.1-6,16.4-14,25-22l.9-.8c17.3-15.8,42.8-32.8,46.8-41a6.3,6.3,0,0,0,.9-2.5c.9-4.7-1.7-10-6.6-21.3a.3.3,0,0,0-.1-.2,3.6,3.6,0,0,0-.4-.9l-.2-.4c0-.2-.1-.3-.1-.4l-.3-.7h-.1c-2.3-5.4-5-11.9-8-20.1h0c-.9-2.4-1.8-4.9-2.7-7.6a240.9,240.9,0,0,0-12.9-30.1h0c-3.5-7.1-7-13.8-10.3-20.6,0-.6.1-1.3.1-2,1.3-15.9,2.2-27.4,2.2-27.4s12.7-7.9,37.6-12.5,20.3-11.1,27.3-28.2c3.5-8.5,9.2-10.1,14.4-10.1,3.9,14.2,6.2,30.2,10,54.9,6.8,44.6,21.6,105.1,21.6,113.6S1919.5,983.4,1917.3,995.9Z" class="colorffb6b1 svgShape"></path><path fill="#f47382" d="M1883.6 982.8a1.6 1.6 0 01-1.3-.8c-6.9-11.4-39.3-11.8-39.6-11.8h-1.5v-1.3c-.6-2.4-3.2-13-6.5-20.9 0-.1-.1-.2-.1-.3l-.3-.6v-.4a.3.3 0 01-.1-.2l-.5-1.2c-1.5-3.6-3.7-9.2-6.3-15.7l-1.9-4.8c-5.3-13.4-11.3-28.4-15.4-37.3h-.1c-3-6.5-7.2-16-10.1-22.5a1.5 1.5 0 112.7-1.3c2.9 6.6 7.2 16.1 10.2 22.6h0c4.2 9 10.3 24.2 15.6 37.7l1.8 4.5c2.5 6.5 4.8 12 6.2 15.5 0 .1.1.2.1.3l.4.9a.6.6 0 01.1.4l.2.3.3.7v.2a158.6 158.6 0 016.5 20.4c6.2.2 33.9 1.6 41 13.3a1.6 1.6 0 01-.5 2.1zM1653 1131.9c-8.4 1.9-16.8 3.6-25.2 5.2a4.4 4.4 0 00-3.2 5.5 4.8 4.8 0 005.6 3.2c8.4-1.6 16.8-3.4 25.2-5.2a4.5 4.5 0 00-2.4-8.7zM1648.5 1117.6a113.3 113.3 0 01-14 3.2h-.9l-1.9.2-3.5.3c-2.4.1-4.8.2-7.3.1a4.6 4.6 0 00-4.5 4.5 4.5 4.5 0 004.5 4.5 95.5 95.5 0 0030-4.2c2.2-.7 3.9-3.2 3.1-5.5a4.6 4.6 0 00-5.5-3.2zM1636.8 1102.2c.4-.3.5-.4 0-.1s-.4.2.2 0l-1 .2-2.5.5c-.6 0-.6.1-.1 0h-2.1l-3 .4c-4.2.3-8.6 0-12.5 1.8-2.2 1-2.9 4.2-1.6 6.2a4.5 4.5 0 006.1 1.6c-.9.4.5-.1.7-.2h.5l3-.2a58.7 58.7 0 005.9-.5l6.6-.8a12.1 12.1 0 006.1-2.7c1.9-1.5 1.7-4.8 0-6.4s-4.4-1.5-6.3 0z" class="colorf47382 svgShape"></path><path fill="#f4c9d0" d="M1618.9,1269.6s-59.3,169.2-64,192.3,17.5,372.4,17.5,372.4l-10-1s-21.5-331.6-15.4-372.3S1618.9,1269.6,1618.9,1269.6Z" opacity=".52" class="colorf4c9d0 svgShape"></path><path fill="#f4c9d0" d="M1588.3 1716.7h-.1a2.1 2.1 0 01-2.2-2.3l7.9-177.2a2.4 2.4 0 012.6-2.2 2.2 2.2 0 012.2 2.3l-8 177.2A2.3 2.3 0 011588.3 1716.7zm8.1-179.7c-.2 0-.5 0-.5.3l-7.9 177.2c0 .1 0 .2.3.2s.4 0 .4-.3l8-177.2c0-.1 0-.2-.3-.2zm-1.5.3zM1610.8 1734.7h-.1a2.1 2.1 0 01-2.2-2.3l1.5-51.3a2.3 2.3 0 012.5-2.3 2.1 2.1 0 012.2 2.3l-1.5 51.4A2.2 2.2 0 011610.8 1734.7zm1.6-53.9c-.2 0-.4.1-.4.3l-1.5 51.4c0 .1 0 .2.3.2s.4 0 .4-.3l1.5-51.3c0-.1 0-.3-.3-.3zm-1.4.3zM1495.5 1415.5a3.3 3.3 0 01-1.3-.4c-4-2.8-8-5.7-11.8-8.7A266.2 266.2 0 011445 1371h0a2.4 2.4 0 01.3-3.4 2.2 2.2 0 013.2.2c3.1 3.6 6.4 7.2 9.7 10.6a256.8 256.8 0 0038.6 32.7 2.4 2.4 0 01.5 3.4A2.2 2.2 0 011495.5 1415.5zm-49-45.8a261.9 261.9 0 0037.1 35.1c3.8 3 7.8 5.9 11.8 8.6.1.1.2.2.3-.1a.4.4 0 00-.1-.6 271.1 271.1 0 01-38.8-32.9c-3.3-3.4-6.6-7-9.8-10.7-.1-.1-.2-.2-.4 0a.4.4 0 00-.1.6zM1659.4 1481.1h-.8a173.3 173.3 0 01-28.6-12.5 2.1 2.1 0 01-1.2-1.9 2.5 2.5 0 011.2-2.2 2.4 2.4 0 012.3 0 154.6 154.6 0 0027.7 12 2.4 2.4 0 011.6 1.8 2.7 2.7 0 01-.8 2.3A2 2 0 011659.4 1481.1zm-28.2-15h-.2c-.1 0-.2.2-.2.4a.3.3 0 00.1.2h0a178 178 0 0028.3 12.3h.3c.1 0 .1-.2.1-.4l-.3-.3a160.1 160.1 0 01-27.9-12.1zM1760.2 1406.5a2.2 2.2 0 01-1.3-.4 2.3 2.3 0 01-.9-3.1c7.8-13.2 14.7-25 21.6-37.2 15-26.7 25.4-47.6 33.8-67.9 10.4-25.4 17.2-49.1 20.7-72.3h0a2 2 0 011.2-1.7 2.8 2.8 0 012.5.4 2.5 2.5 0 01.9 2.3 283.9 283.9 0 01-9.5 41.5c-6.7 21.6-16.3 44.6-29.3 70.1-12.1 23.6-25.7 46.7-37.7 67.1A2.3 2.3 0 011760.2 1406.5zm75.8-180.6c-3.5 23.4-10.3 47.2-20.8 72.7-8.4 20.4-18.8 41.5-33.9 68.2-6.8 12.2-13.8 24-21.5 37.2-.1.1-.2.2.1.4s.4.1.5-.1c12-20.4 25.7-43.5 37.7-67 13-25.4 22.5-48.3 29.2-69.8a293 293 0 009.4-41.2c0-.1.1-.3-.2-.4s-.4-.2-.4-.1a.1.1 0 00-.1.1z" class="colorf4c9d0 svgShape"></path><path fill="#f4c9d0" d="M1785.6 1359l-.9-.2a2.2 2.2 0 01-1.3-2.8 159.2 159.2 0 006.9-22.5 236.3 236.3 0 005.1-41.2c.6-14.5.3-29.2.1-42.1h0a2.2 2.2 0 011.1-2 2.5 2.5 0 012.5-.1 2.4 2.4 0 011.2 2c.1 8.5.2 16.1.2 23.9a323.1 323.1 0 01-2.4 42.6c-2 15.3-5.3 28.6-10.2 40.8A2.3 2.3 0 011785.6 1359zm12.3-109.2h-.3v.2h0c.2 13 .5 27.7-.1 42.3a238.7 238.7 0 01-5.1 41.5 159.4 159.4 0 01-7 22.8c0 .1-.1.1 0 .1s.1.2.4.2.4-.2.4-.3a173.1 173.1 0 0010-40.4 318.2 318.2 0 002.4-42.3c0-7.8-.1-15.4-.2-23.8 0-.2-.1-.3-.2-.3S1798 1249.8 1797.9 1249.8zM1780.2 740.1s-11.3 22.7-10.3 42.1 16.1 76.8 19.3 75.2 14.1-20.6 14.1-20.6l-3.1 39.5-7.6-14s-8.8 2.3-12.8-3.6-14.8-59.8-14-75.3S1780.2 740.1 1780.2 740.1z" class="colorf4c9d0 svgShape"></path><path fill="#ffffff" d="M1554.5,714.7a159.5,159.5,0,0,1-5.5,44" class="colorfff svgShape"></path><path d="M1549.4,758.8l-.9-.3a157.6,157.6,0,0,0,5.5-43.8h1A156.5,156.5,0,0,1,1549.4,758.8Z" fill="#000000" class="color000 svgShape"></path><rect width="2021.4" height="23.35" x="207.3" y="2226.5" fill="#f4c9d0" rx="10.8" class="colorf4c9d0 svgShape"></rect><rect width="825.9" height="12.24" x="464.2" y="2274.5" fill="#f4c9d0" rx="5.7" class="colorf4c9d0 svgShape"></rect><rect width="776.9" height="12.24" x="1339.5" y="2274.5" fill="#f4c9d0" rx="5.7" class="colorf4c9d0 svgShape"></rect><path fill="#d13b62" d="M1452.2 494a262 262 0 01-35.9 6.6l-2.3.3-5 .4-6.9.5h-.2a1.8 1.8 0 01-1.5-.8l-.7-1.1-.2-.3c-.9-1.3-2.2-3.2-3.6-5.5l-.2-.2a.5.5 0 00-.2-.4c-2.7-4.4-6.3-10.3-10-17.3l-.2-.3c-3.1-5.9-6.3-12.5-9.4-19.7 0-.1-.1-.2-.1-.3l-1.7-4.1a.6.6 0 01-.1-.4c-1-2.5-2-5-2.9-7.6-9.3-26-14-56.4-1.1-81.3 27.9-54 88.5-28.5 90.7 12.6a1.8 1.8 0 00.8 1.6 2 2 0 002.4 0 38.7 38.7 0 014.7-2.8 40.9 40.9 0 017.9-3.2l4.1-1a44.5 44.5 0 0111.5-.6h1.1c28.5 2.7 54.8 31.2 36.2 72.1C1515.9 471.1 1481.9 486.3 1452.2 494zM1326.9 422.3a120.4 120.4 0 01-10.3 13l-.8.7a11.7 11.7 0 01-1.5 1.6 24 24 0 01-2.3 2.3h0a.8.8 0 01-.8.2l-.6-.2h-.1l-2.9-.8a.1.1 0 00-.1-.1h-.2c-2.2-.7-5.2-1.7-8.5-3h-.2c-2.8-1.1-5.9-2.4-9.1-3.9a.1.1 0 00-.1-.1l-1.8-.9a.1.1 0 01-.1-.1c-1.1-.6-2.2-1.1-3.3-1.8-10.9-6.2-21.5-15.2-24.5-27.5-6.4-26.9 22-36.1 34.9-22.6a1.1 1.1 0 00.8.3.8.8 0 00.8-.7 22.5 22.5 0 01.8-2.4 22.1 22.1 0 011.8-3.4l1.1-1.5a21.6 21.6 0 013.7-3.7l.4-.3h0c10.6-7.5 28.1-5.5 33.9 14.1C1342 395.6 1334.8 410.9 1326.9 422.3z" class="colord13b62 svgShape"></path></svg></g></svg>