<svg id="SvgjsSvg1179" width="550" height="550" xmlns="http://www.w3.org/2000/svg" version="1.1" xmlns:xlink="http://www.w3.org/1999/xlink" xmlns:svgjs="http://svgjs.com/svgjs"><defs id="SvgjsDefs1180"></defs><g id="SvgjsG1181"><svg xmlns="http://www.w3.org/2000/svg" enable-background="new 0 0 260 260" viewBox="0 0 260 260" width="550" height="550"><path fill="#f7b2b2" d="M233.4699554,147.3310242c-1.2262573,4.586792-3.5072784,8.0410614-6.6929779,10.5247955
				l-5.8571777-8.6416321l2.9957581-4.0903625l1.6425934-0.6947174l1.6027527-0.6303406L233.4699554,147.3310242z" class="colorf7b2b2 svgShape"></path><path fill="#46c17e" d="M222.4998169,90.6620865c7.7523499,0.4794617,11.7131042,7.1141815,12.6347961,14.680397
				c0,0,4.1305695,20.1693954,3.241272,28.4704132c-0.3936157,3.674057-4.5512543,13.0968628-4.5512543,13.0968628
				c-0.9350586,2.0021362-6.8748932-0.5761108-6.6637268-3.1109924c0.7838135-7.8405914,0.9982758-15.3197174,0.3958435-22.280304
				L222.4998169,90.6620865z" class="color46c17e svgShape"></path><path fill="#3caf6d" d="M238.3683624,133.809021c-0.0195313,0.2299805-0.0595703,0.4799805-0.1098633,0.75
				c-0.0297852,0.1399536-0.0600586,0.2799683-0.0898438,0.4199829c-0.1000977,0.4299927-0.2202148,0.9000244-0.3598633,1.4000244
				c-0.1503906,0.5-0.3100586,1.0299683-0.4804688,1.5599976c-0.1196289,0.3599854-0.25,0.7199707-0.3696289,1.0799561
				c-0.6401367,1.8200073-1.3803711,3.7000122-1.9799805,5.1600342c0,0.0100098,0,0.0100098,0,0.0100098
				c-0.1201172,0.289978-0.2402344,0.5700073-0.3398438,0.8200073c-0.1103516,0.2599487-0.2104492,0.4899902-0.300293,0.6999512
				c-0.3100586,0.75-0.5102539,1.2000122-0.5102539,1.2000122c-0.3095703,0.6400146-1.1098633,0.8099976-2.0698242,0.6600342
				c-0.1298828-0.0200195-0.2597656-0.0400391-0.3901367-0.0700073c-0.0195313-0.0100098-0.0400391-0.0100098-0.0595703-0.0200195
				c-0.1103516-0.0200195-0.2304688-0.0599976-0.3500977-0.0999756c-0.090332-0.0200195-0.1699219-0.0400391-0.2602539-0.0800171
				c-0.1499023-0.0499878-0.2998047-0.1099854-0.449707-0.1699829c0.1298828-1.6800537,0.4296875-3.3500366,1.1699219-4.8699951
				c0.6899414-1.4300537,1.7998047-2.9100342,1.3598633-4.4400024c-0.1298828-0.460022-0.3999023-0.8900146-0.3896484-1.3600464
				c0.0195313-1.0299683,1.2998047-1.5799561,1.6699219-2.5499878c0.3198242-0.8200073-0.0703125-1.7199707-0.090332-2.6099854
				c-0.0297852-1.6199951,1.2001953-3.3800049,0.3203125-4.7399902c-0.2602539-0.4000244-0.6801758-0.6900024-0.8999023-1.1199951
				c-0.6000977-1.2300415,0.75-2.5200195,0.949707-3.8699951c0.2397461-1.5900269-1.1499023-2.9500122-1.4897461-4.5300293
				c-0.4101563-1.9400024,0.6899414-4.3800049-0.7802734-5.710022c-0.5698242-0.5199585-1.4101563-0.7099609-1.8398438-1.3299561
				c-1.0102539-1.4299927,0.9599609-3.3300171,0.5698242-5.0300293c-0.2397461-1.0700073-1.3300781-1.7299805-1.7202148-2.75
				c-0.6098633-1.6499634,0.7402344-3.8099976-0.4296875-5.1300049c-0.3798828-0.4299927-0.9501953-0.6400146-1.3798828-1.0199585
				c-1.1801758-1.0100098-5.340332-4.1200562-4.590332-5.4000244c4.9399414,0.3699951,8.3203125,3.2600098,10.340332,7.289978
				v0.0100098c0.0200195,0.0400391,0.0400391,0.0800171,0.0595703,0.1099854
				c0.2900391,0.5900269,0.550293,1.210022,0.7802734,1.8400269c0.0898438,0.2399902,0.1699219,0.4799805,0.25,0.7299805
				c0.1098633,0.3400269,0.2197266,0.6799927,0.3100586,1.0300293c0.159668,0.5700073,0.2900391,1.1499634,0.409668,1.7399902
				c0.0605469,0.3200073,0.1201172,0.6400146,0.1704102,0.960022c0.0498047,0.3199463,0.0898438,0.6399536,0.1298828,0.9699707
				c0,0,0.8300781,4.0599976,1.6801758,9.289978c0,0.0500488,0.0097656,0.1000366,0.0195313,0.1500244
				C237.8488312,121.1890259,238.8585968,129.2689819,238.3683624,133.809021z" class="color3caf6d svgShape"></path><path fill="#dde9fe" d="M58.3999825 32.650795c-.2635002 0-.5166321-.1477318-.6384468-.4008636-.1693306-.3524837-.021595-.7753792.3308868-.9447098.6686859-.3218155 1.3840218-.5645809 2.1261406-.7209511.3783989-.0833702.7568016.1637135.8388748.5464363.080349.3822899-.1641464.7576694-.5468674.8384457-.6315346.1330471-1.2380142.3386631-1.8047562.6112347C58.6073265 32.628334 58.5027924 32.650795 58.3999825 32.650795zM106.4510498 94.4258575c-.0008698 0-.0017319 0-.002594 0-1.3892059-.0056152-2.7784119-.0237579-4.166748-.0539932-.3904953-.0086441-.7006531-.3321838-.692009-.723114.0086365-.3904953.3162003-.6885529.723114-.692009 1.3796997.0302353 2.7602615.048378 4.1408234.0539932.3913651.001297.7066956.3196564.7049713.7105865C107.1568756 94.1109543 106.840683 94.4258575 106.4510498 94.4258575zM110.6039734 94.4059906c-.3861847 0-.7023773-.3101578-.7075653-.6980591-.0051804-.3904953.306694-.7118835.6980591-.7170639 1.3796997-.0190048 2.7593994-.0501099 4.1390991-.0937347.0077744 0 .0155487 0 .0224609 0 .3809967 0 .6954651.3023758.7075653.6850967.0120926.3909302-.2946014.7174988-.6851044.7300186-1.3883362.0436325-2.7766724.0747299-4.1650162.0937424C110.6100159 94.4059906 110.6074219 94.4059906 110.6039734 94.4059906zM98.1460648 94.2444305c-.0095062 0-.0190048 0-.028511-.0004272-1.3874741-.054863-2.7749557-.1222458-4.1615601-.2017288-.3905029-.0224609-.6885605-.3572388-.6660919-.7473068.0224609-.3900604.3568039-.6846619.7472992-.6660919 1.3779678.079483 2.7568054.1460114 4.135643.2008667.3913651.0155487.694603.3447113.6799164.7352066C98.8372116 93.9459457 98.5235977 94.2444305 98.1460648 94.2444305zM89.8540421 93.7684097c-.0181427 0-.0362854-.0004349-.0544281-.0017319-1.3840256-.104538-2.7680435-.2211685-4.1511993-.3498917-.3887711-.0358505-.6755981-.3809967-.6393127-.770195.0371552-.3887711.3749466-.6838074.7706299-.6388779 1.3745193.127861 2.7499008.2436295 4.1270065.3472977.3896332.0293732.6816406.3693314.6522675.7589645C90.5304947 93.4859009 90.2203445 93.7684097 89.8540421 93.7684097zM81.5827484 92.9982071c-.0259171 0-.0518341-.0017242-.0786209-.0047455l-1.0738678-.1218185c-1.0220261-.1183548-2.0449219-.2436295-3.0660934-.3818588-.3870392-.0526962-.6591797-.4090729-.6064835-.7965469.0527039-.3874741.4129639-.6604767.7965469-.6064758 1.0125275.1373596 2.0267868.2617722 3.0393143.37883l1.0660934.1209564c.3887711.04319.6686859.3926544.6254883.7814255C82.2453842 92.7299576 81.9386902 92.9982071 81.5827484 92.9982071zM73.3555222 91.8569565c-.0414734 0-.0838013-.003891-.1261368-.0116653-1.4643631-.2634964-2.8077774-.5477295-4.107132-.868248-.3792725-.0941696-.6108017-.4777603-.5166321-.8570251.094162-.3792648.4760208-.6090698.8570175-.5174942 1.2682495.3136063 2.5831604.5917969 4.0172882.8501129.3844452.0691147.6401749.437149.5710602.8215942C73.9896469 91.6167831 73.6915894 91.8569565 73.3555222 91.8569565zM65.3062592 89.836647c-.0760269 0-.152916-.0120926-.2280807-.0380096-.5244064-.178833-1.0462189-.3676071-1.564579-.5671692-.7974091-.3062668-1.5922279-.6440659-2.3619919-1.003891-.3542099-.1654434-.5071259-.5866089-.3412514-.9403915.1650085-.3542099.5866089-.5075607.9408226-.3416901.7395248.3455734 1.5032425.6699829 2.2704124.9650192.5010834.1926575 1.0056152.3753738 1.5127487.5481644.3706284.1261292.5676041.5282898.4414673.8984909C65.8755951 89.6513367 65.6008606 89.836647 65.3062592 89.836647zM57.8055992 86.3092117c-.128727 0-.2600441-.0354233-.3766747-.1097183-1.2267838-.774086-2.3792725-1.6216049-3.4263573-2.5196609-.2971916-.254425-.3308868-.7010803-.076889-.9978409.255722-.2967606.7032394-.3308868.9978409-.076889.9952507.8535614 2.0924454 1.6600494 3.2604828 2.3978424.330883.2086411.4293709.6457901.2211647.9762421C58.2703934 86.1921463 58.0405884 86.3092117 57.8055992 86.3092117zM51.5481339 80.8975372c-.203022 0-.4051819-.0872574-.5451393-.2561569-.4838028-.5844498-.9399605-1.1935196-1.3555107-1.8107986-.3818588-.5658798-.7317505-1.1572418-1.0410385-1.7568054-.1788368-.3477325-.0431976-.7745209.304966-.9533539.3507576-.1796951.7749481-.0423279.952919.3045349.2842331.5507584.6056175 1.0937424.9572372 1.6146927.3904991.5792694.8181458 1.1507568 1.2717094 1.6989212.2496758.3010864.2073441.7473068-.0941696.9965515C51.8677902 80.8444061 51.7070999 80.8975372 51.5481339 80.8975372zM47.8677826 73.5515213c-.3352051 0-.6324005-.2393112-.6954651-.5805664-.1244087-.6803436-.1874733-1.356369-.1874733-2.0099335 0-.8397446.1045341-1.6535721.3101501-2.4194412.101944-.3779755.4872589-.6026001.8673897-.4997864.3775368.1015091.6012955.489418.4993515.866951-.1736488.646225-.2617722 1.3365097-.2617722 2.0522766 0 .5680313.055294 1.1585312.1650124 1.7550735.0699768.3844528-.1840172.7533493-.5684662.823761C47.9533119 73.5476303 47.9101143 73.5515213 47.8677826 73.5515213zM50.0137901 65.8620911c-.1719208 0-.3438454-.0617752-.4803467-.1874771-.2868233-.2652283-.304966-.7131729-.0397415-1 1.0349922-1.1213837 2.2583199-2.0142593 3.318367-2.7403946.3239746-.2203026.7637138-.1373634.9840164.1840172.2211685.3226814.1382294.7632866-.1840172.9840202-.9952507.6812134-2.1390953 1.5149078-3.0781898 2.5321884C50.3939209 65.7856293 50.2038574 65.8620911 50.0137901 65.8620911zM56.6582947 60.9044113c-.2203026 0-.4362869-.102375-.5753784-.2941666-.2280769-.3170624-.1563721-.7593956.1606903-.9879074 1.0505447-.7576675 2.0682564-1.6077766 3.1118851-2.5991402.2825089-.2686844.7317505-.2574539 1.0004349.025486.2686844.283371.2574501.7313194-.0259171 1.0008659-1.0894203 1.0354233-2.1555138 1.925705-3.2587547 2.7209549C56.9459839 60.8607864 56.8017082 60.9044113 56.6582947 60.9044113zM62.708416 55.2400398c-.1658745 0-.3326149-.0574532-.466526-.1753769-.2937355-.257885-.3231087-.7049713-.0656586-.9987068.7913628-.9028091 1.6276512-1.9101563 2.6315384-3.1702003.2436295-.3045387.6894226-.3572388.9943848-.1123123.3058319.2431984.3568039.6885529.1131744.9943848-1.0185699 1.2777596-1.8678207 2.3015175-2.6747322 3.2211761C63.1006393 55.1588287 62.9045258 55.2400398 62.708416 55.2400398zM67.9179306 48.7704811c-.1477356 0-.2971954-.0462189-.4250565-.1421165-.311882-.2349892-.3749466-.6790504-.1390915-.9909325.6747284-.8971939 1.5317459-2.0920105 2.1719208-3.3797035.1745148-.3494606.5943909-.4954643.9494629-.3187904.3498917.1740837.4924469.5987053.3187943.948597-.692009 1.3917961-1.5982742 2.6557312-2.3101578 3.600872C68.3447113 48.6732903 68.133049 48.7704811 67.9179306 48.7704811zM71.2855377 41.3125839c-.0129623 0-.0259171 0-.0397415-.0008659-.3896332-.0211639-.689415-.3550758-.6678238-.7451401.007782-.1455727.0121002-.2920074.0121002-.438015 0-1.1092873-.234993-2.2509766-.6799164-3.3023796-.1520538-.3598289.0164185-.7753792.3766708-.927433.3585358-.1507568.7758179.0164146.9278641.3762436.5175018 1.2241898.7905045 2.5568085.7905045 3.853569 0 .1719246-.0043259.3434143-.0138245.514904C71.9706345 41.0205727 71.6587524 41.3125839 71.2855377 41.3125839zM68.1546478 33.9186172c-.1632843 0-.3274307-.0557251-.4613419-.1706276-.1373672-.1179276-.2781906-.2315331-.4233246-.3399582-.8630753-.6453552-1.8565903-1.1079903-2.9503326-1.3736496-.3801308-.0920105-.6133919-.4747334-.5209503-.8548622.0924416-.3796997.4725723-.6146889.8544312-.5205193 1.2812119.3110142 2.4475174.8548603 3.4652328 1.6159859.1710587.127861.3360672.2604752.4976196.3991356.2963333.2544289.3300247.7015152.0760269.9978409C68.5520554 33.835247 68.3533478 33.9186172 68.1546478 33.9186172z" class="colordde9fe svgShape"></path><path fill="#526a70" d="M51.2769966 23.9194641c.0985603-.0073414.1911583-.0665817.2363396-.1627712.0675545-.1425228.0067406-.3124771-.1357803-.3800316-.2379684-.112093-.4764748-.2220516-.7162666-.3305187-.141674-.0655251-.311367-.0012398-.37743.1425686-.0647278.1430092-.0011864.3120632.1425667.3774319.2369118.1072865.472538.2160645.7075729.3262806C51.1803322 23.9147968 51.2291031 23.9230309 51.2769966 23.9194641zM53.9007263 25.2811508c-.4563522-.2423954-.9144249-.4797764-1.3763008-.7119884-.1406479-.0704861-.1973991-.2421379-.1262207-.3828373.0697899-.1405964.2428322-.1974525.3828354-.1262207.464756.2333946.9272003.4732418 1.3864326.7168179.1395149.0740585.1921577.2467155.1187401.3854885-.0477295.0900974-.136528.1441689-.2309227.1511993C54.0032349 25.3174858 53.949398 25.306839 53.9007263 25.2811508z" class="color526a70 svgShape"></path><polygon fill="#c7d8ef" points="57.921 21.914 56.525 30.182 31.345 12.522 23.741 7.667 52.518 16.899" class="colorc7d8ef svgShape"></polygon><polygon fill="#dde9fe" points="23.741 7.667 69.014 13.968 57.921 21.914" class="colordde9fe svgShape"></polygon><polygon fill="#a3bbd3" points="69.014 13.968 51.932 19.417 57.921 21.914" class="colora3bbd3 svgShape"></polygon><polygon fill="#b3c9e2" points="51.932 19.417 47.284 26.111 51.324 25.81 56.525 30.182 57.921 21.914" class="colorb3c9e2 svgShape"></polygon><polygon fill="#c7d8ef" points="54.299 24.195 56.525 30.182 48.528 24.625" class="colorc7d8ef svgShape"></polygon><polygon fill="#dde9fe" points="23.741 7.667 42.294 32.363 54.299 24.195" class="colordde9fe svgShape"></polygon><polygon fill="#a3bbd3" points="48.663 21.147 42.294 32.363 54.299 24.195" class="colora3bbd3 svgShape"></polygon><g><path fill="#dde9fe" d="M182.3488312,160.2089844c0.0195313,6.9500122-4.8701172,15.4100342-10.9101563,18.9000244
						L37.3888779,256.4990234c-3.1000977,1.789978-5.9003925,1.9199829-7.9003925,0.6900024
						c0.0400391,0.0299683,0.0800781,0.0599976,0.1201172,0.0799561l-4.6298828-2.6999512
						c-1.9702148-1.1500244-3.1801758-3.5700073-3.1899414-7.0200195L21.4987392,99.7789917
						c-0.0200195-6.9400024,4.8696289-15.3999634,10.9096699-18.8900146L166.4684601,3.4990244
						c3.0302734-1.75,5.7900391-1.9199829,7.7802734-0.7600098l4.6298828,2.6900024
						c-0.1000977-0.0599976-0.2099609-0.1199951-0.3198242-0.1699829c2.1499023,1.0599976,3.5,3.5599976,3.5097656,7.1900024
						L182.3488312,160.2089844z" class="colordde9fe svgShape"></path><path fill="#c7d8ef" d="M178.876297,5.4252262c-1.9944916-1.1546726-4.7521973-0.9924068-7.7866669,0.7633948
							L37.0416946,83.584938c-6.0500813,3.4830627-10.9264412,11.9473267-10.9073372,18.8847961l0.2767735,147.7720337
							c0.0095501,3.4448547,1.2310295,5.8782043,3.1968555,7.0233154l-4.6325493-2.6970825
							c-1.9655952-1.1451263-3.1775208-3.568924-3.1870728-7.0233307L21.5020409,99.782196
							c-0.019104-6.9470291,4.8668079-15.4017334,10.9071007-18.8942947L166.466629,3.5010793
							c3.0344696-1.7558019,5.7924194-1.9180677,7.7771149-0.7633948L178.876297,5.4252262z" class="colorc7d8ef svgShape"></path><path fill="#dde9fe" d="M171.0870361,6.1894627c6.0440216-3.4895165,10.9583282-0.6888709,10.9780273,6.2559929
						l0.2789764,147.7637177c0.0196838,6.94487-4.8626862,15.4086304-10.9067078,18.8981476L37.3885727,256.5004272
						c-6.0438557,3.4894104-10.9583492,0.6818848-10.9780369-6.2630005l-0.2789764-147.7637024
						c-0.0196896-6.9448624,4.8628693-15.4017334,10.9067249-18.8911514L171.0870361,6.1894627z" class="colordde9fe svgShape"></path><path fill="#ffffff" d="M33.9209023,102.4527893c-0.0114098-4.1447449,3.3966904-10.0360184,7.0127258-12.1236115
						L174.2770996,13.343008l0.2763977,146.8868866c0.0126801,4.1485596-3.3954163,10.0436249-7.0114594,12.1318512
						L39.5269051,246.2703705c-2.3709984,1.3688812-5.3354416-0.3385468-5.3411407-3.0763245L33.9209023,102.4527893z" class="colorfff svgShape"></path><path fill="#285294" d="M192.8185577,32.4790039c0.0097656,2.5499878-1.7797852,5.6400146-3.9902344,6.9200439
						L51.2687607,118.809021c-1.1503906,0.6599731-2.1801758,0.7099609-2.9101563,0.2399902l-3.1201172-1.7999878
						c-0.7197266-0.4200439-1.1699219-1.3099976-1.1699219-2.5800171l-0.0297852-11.8900146
						c-0.0102539-2.5499878,1.7700195-5.6400146,3.9897461-6.9199829l137.5498047-79.4199829
						c1.1103516-0.6400156,2.1303711-0.7000132,2.8500977-0.2800293l3.0200195,1.7600098
						c0.8203125,0.3800049,1.3300781,1.2999878,1.340332,2.6600342L192.8185577,32.4790039z" class="color285294 svgShape"></path><path fill="#263966" d="M191.6136017,18.0135574c-0.7241669-0.4205513-1.7289886-0.362154-2.8504639,0.2803688
							L51.2124252,97.7100372c-2.2195625,1.2734299-3.9953232,4.3693161-3.9953232,6.9160919l0.03508,11.8927689
							c0.0114098,1.2616577,0.4554939,2.1612396,1.168251,2.5701675l-3.1807289-1.8398972
							c-0.7241669-0.4205551-1.168251-1.3084335-1.168251-2.5817871l-0.0347977-11.8927689
							c-0.0119781-2.5468521,1.7754784-5.6309738,3.9953232-6.9160919l137.550705-79.4161148
							c1.109787-0.6425228,2.1260071-0.7009211,2.8504639-0.2803688L191.6136017,18.0135574z" class="color263966 svgShape"></path><path fill="#285294" d="M188.7667542,18.2931023c2.2151642-1.2789249,4.0112457-0.2555313,4.0184631,2.2899895
						l0.0337219,11.8962975c0.0072174,2.5455399-1.7772064,5.6361389-3.9923706,6.915062L51.2735291,118.8107529
						c-2.2153625,1.2790451-4.0112534,0.2555389-4.0184669-2.2899933l-0.0337296-11.8963013
						c-0.0072136-2.545517,1.7770119-5.6360092,3.9923744-6.9150543L188.7667542,18.2931023z" class="color285294 svgShape"></path><path fill="#ffffff" d="M56.9201622 102.2530594c1.4397087-.8312149 2.611927-.1633148 2.6166039 1.4855347.0046883 1.6544342-1.1599197 3.6715012-2.5996284 4.5027161-1.4398384.8312912-2.6070595.1605072-2.6117516-1.4939194C54.320713 105.0985336 55.4803238 103.0843506 56.9201622 102.2530594zM66.256958 96.8624573c1.4397049-.8312149 2.6070633-.1605072 2.6117325 1.4883499.0046921 1.6544266-1.1550522 3.6686859-2.5947571 4.4999008-1.4398422.8312912-2.6070633.1605072-2.6117516-1.4939194C63.657505 99.7079315 64.8171158 97.6937485 66.256958 96.8624573zM75.59375 91.4718552c1.4398422-.8312912 2.6070633-.1605072 2.6117401 1.4883499.0046844 1.6544266-1.1549225 3.6686096-2.5947647 4.4999008-1.4398346.8312912-2.6070557.1605072-2.6117477-1.4939194C72.9943008 94.3173294 74.1539154 92.3031464 75.59375 91.4718552z" class="colorfff svgShape"></path><path fill="#b0c4ff" d="M129.0587921,122.2089844c0.0097656,2.5800171-1.8203049,5.7399902-4.0703049,7.0400391
										l-40.1396484,23.1699829c-1.1601563,0.6699829-2.2099609,0.7199707-2.9501953,0.2600098l-1.9399414-1.1300049
										c-0.7299805-0.4199829-1.1801758-1.3300171-1.1801758-2.6000366l-0.0600586-27.5799561
										c0-2.5900269,1.8203125-5.7399902,4.0703125-7.0499878l40.1396484-23.1700439
										c1.1401367-0.6499634,2.1704102-0.7199707,2.9101563-0.2799683l1.8198242,1.0599976
										c0.0600586,0.0299683,0.1103516,0.0599976,0.1601563,0.0899658
										c0.7299728,0.4299927,1.1801682,1.3300171,1.1899338,2.6100464L129.0587921,122.2089844z" class="colorb0c4ff svgShape"></path><path fill="#92b2f9" d="M127.8215637,92.0187683c-0.741333-0.4360504-1.7733002-0.3706665-2.9071121,0.2834549
												l-40.1451492,23.1731033c-2.2530823,1.3009186-4.077301,4.4551544-4.0700302,7.0424881l0.0509262,27.5716324
												c0.0072784,1.2864227,0.4577866,2.1876068,1.1918411,2.616394l-1.9836197-1.151947
												c-0.7267761-0.4214935-1.1845627-1.3299713-1.1845627-2.6091156l-0.0509262-27.5789108
												c-0.0072708-2.5873718,1.8169479-5.7415619,4.0700302-7.0424805l40.1378708-23.1731033
												c1.1410904-0.6541214,2.1657867-0.7195053,2.9071121-0.2834549L127.8215637,92.0187683z" class="color92b2f9 svgShape"></path><path fill="#b0c4ff" d="M124.9129028,92.3007278c2.2551651-1.3020172,4.0893097-0.2567291,4.0966492,2.329277
										l0.0478668,27.5749817c0.0073395,2.5860138-1.8149109,5.7423172-4.0700684,7.044342L84.846962,152.4211121
										c-2.2551651,1.3020172-4.089447,0.2568054-4.0967789-2.3292084l-0.0478745-27.5749817
										c-0.0073318-2.5860062,1.8150406-5.7423935,4.0702057-7.0444107L124.9129028,92.3007278z" class="colorb0c4ff svgShape"></path><g><path fill="#dde9fe" d="M120.9519348 102.2735062c.8800964-.5081253 1.5929718-.1018143 1.5958252.904007l.0634689 17.9237823c.002861 1.0112381-.7053833 2.2380295-1.5854797 2.7461548l-3.6097412 2.0840836c-.879837.5079803-1.5929718.1018143-1.5958405-.9094162l-.0634689-17.92379c-.0028458-1.0058212.7056503-2.2327652 1.585495-2.7407379L120.9519348 102.2735062zM111.428772 111.8178329c.8753662-.505394 1.5882416-.0990753 1.5911102.9121628l.052002 13.8788452c.0028687 1.0112305-.7053757 2.2380219-1.5807495 2.7434235l-3.614212 2.0866699c-.8753738.5053864-1.5883713.0991516-1.5912399-.9120789l-.052002-13.8788452c-.0028687-1.0112305.7055054-2.2381134 1.5808792-2.7435074L111.428772 111.8178329zM101.9124756 125.4097595c.8799667-.508049 1.5929718-.101799 1.5958405.9094315l.0290756 5.7943954c.0028687 1.0112305-.7055054 2.2380981-1.5854721 2.7461395l-3.6096115 2.0840149c-.8799667.5080566-1.5929718.1018219-1.5958405-.9094238l-.0290833-5.7943878c-.0028687-1.0112305.7055054-2.2380981 1.5854721-2.7461548L101.9124756 125.4097595zM92.343483 118.790596c.8800964-.5081177 1.5929718-.1018066 1.5958252.9040146l.0634689 17.9237823c.0028687 1.0112305-.7053757 2.2380371-1.5854721 2.7461548l-3.6094894 2.0839386c-.8800964.5081177-1.5929718.1018066-1.5958405-.9094238l-.0634689-17.9237823c-.0028458-1.0058212.7053986-2.2326202 1.585495-2.7407455L92.343483 118.790596z" class="colordde9fe svgShape"></path></g><g><path fill="#b0c4ff" d="M74.8586044,153.4890137c0.0097656,2.5899658-1.8100586,5.7399902-4.0698242,7.0499878
									l-23.840332,13.7600098c-1.159668,0.6699829-2.2099609,0.7199707-2.949707,0.2600098l-1.9399414-1.1300049
									c-0.7304688-0.4199829-1.1904297-1.3300171-1.1904297-2.6000366l-0.0498047-27.5799561
									c-0.0097656-2.5900269,1.8203125-5.7399902,4.0703125-7.0500488l23.8398438-13.7599487
									c1.1499023-0.6600342,2.1699219-0.7200317,2.9101563-0.2900391l1.8295898,1.0700073
									c0.050293,0.0300293,0.1098633,0.0599976,0.1601563,0.0900269c0.7299805,0.4299927,1.1801758,1.3299561,1.1801758,2.6099854
									L74.8586044,153.4890137z" class="colorb0c4ff svgShape"></path><path fill="#92b2f9" d="M73.6239166,123.3053589c-0.7413254-0.4360504-1.7732925-0.3706665-2.9071121,0.2834549
											l-23.8498459,13.7663498c-2.2530861,1.3009033-4.0773048,4.4551544-4.0700302,7.0424805l0.0509224,27.57164
											c0.0072746,1.2864075,0.4577866,2.1876068,1.1918411,2.6163788l-1.9836159-1.151947
											c-0.7267799-0.4214935-1.1845627-1.3299713-1.1845627-2.6091003l-0.0509262-27.5789185
											c-0.0072746-2.5873718,1.8169479-5.7415619,4.0700302-7.0424805l23.8425751-13.7663498
											c1.1410904-0.6541138,2.1657867-0.7194977,2.9071121-0.2834549L73.6239166,123.3053589z" class="color92b2f9 svgShape"></path><path fill="#b0c4ff" d="M70.7152557,123.5873184c2.2551651-1.3020172,4.0893173-0.2567291,4.0966492,2.329277
									l0.0478745,27.5749817c0.0073318,2.5860138-1.8149109,5.7423248-4.070076,7.044342l-23.845089,13.7650146
									c-2.2551651,1.3020172-4.0894432,0.2568054-4.0967751-2.3292084l-0.0478745-27.5749817
									c-0.0073318-2.5859985,1.8150368-5.7423859,4.0702019-7.0444031L70.7152557,123.5873184z" class="colorb0c4ff svgShape"></path><path fill="#6a95d3" d="M68.2519608,141.7510834c0.2510529-0.0774078,0.4298706,0.0778809,0.4307022,0.3731995
									l0.0064087,2.2601929c0.0008392,0.2953033-0.1765137,0.6562195-0.4271774,0.8684845l-0.9666061,0.8212433
									c-0.204155,0.1737823-0.3595352,0.4451599-0.4114685,0.7080688c-0.1878433,0.9236298-0.467041,1.8580627-0.8211823,2.775238
									c-0.1045761,0.2700043-0.1079178,0.5281219,0.0039825,0.6661377l0.5268784,0.6693878
									c0.1342239,0.1763611,0.1048508,0.5193939-0.0787735,0.8373718l-1.3836441,2.3965912
									c-0.1077881,0.1867218-0.25,0.3322296-0.3937149,0.4152069c-0.1010056,0.0583191-0.2028656,0.0858307-0.2940598,0.0750427
									l-0.8495979-0.1127319c-0.0885658-0.0131989-0.1888885,0.0132751-0.2897797,0.0715179
									c-0.0999069,0.0576935-0.2004967,0.1466217-0.291008,0.2591553c-0.618042,0.7690735-1.2869453,1.4790039-1.992588,2.1053467
									c-0.2021713,0.1772766-0.359539,0.4474792-0.407402,0.7080231l-0.2275047,1.2493134
									c-0.0558281,0.3210449-0.2819061,0.6565247-0.5389214,0.8049011l-1.9649239,1.1344604
									c-0.2590485,0.1495514-0.4842567,0.0746307-0.5437622-0.1798248l-0.2338219-0.9829559
									c-0.0492477-0.204483-0.2075729-0.2924194-0.4101334-0.2360229
									c-0.7088585,0.1903229-1.3775597,0.252655-1.9959526,0.1997681
									c-0.0912476-0.0090485-0.1924973,0.0179749-0.2931747,0.0760956
									c-0.1006737,0.0581207-0.2007751,0.1473541-0.2896271,0.2626953l-0.8461914,1.0917969
									c-0.0908279,0.1158905-0.1924095,0.2058105-0.2934608,0.2641602
									c-0.1437111,0.0829773-0.2862968,0.1018677-0.3947868,0.0400391l-1.3947639-0.7924805
									c-0.1827278-0.104126-0.2159996-0.4133301-0.0831604-0.7438812l0.5233421-1.2780457
									c0.1107483-0.2689056,0.1079903-0.5235138,0.0001335-0.6708527
									c-0.3581581-0.5035858-0.641613-1.1108704-0.8320999-1.8137512
									c-0.0553284-0.2009583-0.211628-0.2923889-0.4141884-0.2313385l-0.9720421,0.2956848
									c-0.2511673,0.0774689-0.4299736-0.0778198-0.430809-0.3731232l-0.0064087-2.2601929
									c-0.0008354-0.2953033,0.176506-0.6562195,0.4272881-0.8685608l0.9705429-0.8258514
									c0.20224-0.1726685,0.3575134-0.443985,0.4115257-0.7080688c0.1858826-0.9201813,0.4649734-1.8522491,0.8191109-2.7670746
									c0.1066704-0.2712097,0.107975-0.5281525-0.0039291-0.6685181l-0.5288696-0.6705475
									c-0.1342735-0.1763458-0.1028633-0.5228729,0.0786781-0.8373108l1.3857193-2.3977966
									c0.1077881-0.1867218,0.2500114-0.3322601,0.3937759-0.4152374
									c0.1010017-0.0583191,0.2027588-0.0857697,0.2939453-0.0749969l0.8496094,0.1127319
									c0.0892105,0.0125427,0.1894913-0.013916,0.2901649-0.0720367c0.1006775-0.058136,0.2017479-0.147934,0.2926483-0.2621307
									c0.6160698-0.7655945,1.2829399-1.4743652,1.9905663-2.0995178
									c0.2022095-0.1796265,0.3595238-0.4497986,0.4074516-0.7103882l0.2274933-1.2492981
									c0.057869-0.3222198,0.2819176-0.6565247,0.5409622-0.8060913l1.9649277-1.1344452
									c0.2570114-0.1483917,0.4842529-0.0746307,0.5417175,0.1809998l0.2338333,0.9829559
									c0.0491791,0.2045135,0.2075615,0.2924194,0.4100838,0.2383728
									c0.7068748-0.1915131,1.3776093-0.2550049,1.9979935-0.1986084c0.0904045,0.0066376,0.1906166-0.0209656,0.290081-0.0783997
									c0.1014557-0.0585632,0.2020416-0.148056,0.2906723-0.2638855l0.84618-1.0917816
									c0.0908432-0.1158905,0.1925201-0.2058868,0.2935333-0.2642059c0.1437073-0.082962,0.2862778-0.1018677,0.3947754-0.0400238
									l1.3926849,0.7936707c0.1848221,0.1052551,0.2160416,0.4132996,0.0832596,0.7438354l-0.5213699,1.2745819
									c-0.1107483,0.2688904-0.105957,0.519989-0.0001984,0.6685638c0.3581772,0.5059052,0.6417465,1.1154327,0.8342056,1.8195038
									c0.0532532,0.2021637,0.2096634,0.2935333,0.4141312,0.2313843L68.2519608,141.7510834z M58.8426743,153.8097992
									c2.3413353-1.3517761,4.229229-4.6217651,4.2216072-7.3097992
									c-0.0076141-2.6856995-1.9078522-3.7709503-4.2491875-2.4191895
									c-2.3372841,1.3494263-4.2271996,4.6229401-4.2195854,7.3086395
									C54.6031265,154.0774841,56.5053902,155.1592255,58.8426743,153.8097992" class="color6a95d3 svgShape"></path></g><g><path fill="#b0c4ff" d="M156.478714,125.7290039c-0.0800781-0.0499878-0.1601563-0.0900269-0.2402344-0.1199951
									c0.0302734,0.0100098,0.0600586,0.0200195,0.0800781,0.0299683
									C156.3786163,125.6690063,156.428421,125.6989746,156.478714,125.7290039z" class="colorb0c4ff svgShape"></path><path fill="#b0c4ff" d="M156.478714,125.7290039c-0.0800781-0.0499878-0.1601563-0.0900269-0.2402344-0.1199951
							c0.0302734,0.0100098,0.0600586,0.0200195,0.0800781,0.0299683
							C156.3786163,125.6690063,156.428421,125.6989746,156.478714,125.7290039z" class="colorb0c4ff svgShape"></path><path fill="#b0c4ff" d="M157.7184601,136.3190308c0.0102539,2.5799561-1.8198242,5.7399902-4.0698242,7.039978
							l-81.7099533,47.1699829l-15.0600586,8.6900024c-1.1601563,0.6699829-2.2001953,0.7200317-2.9501953,0.2600098
							l-1.9399414-1.1300049c-0.7197266-0.4199829-1.1796875-1.3300171-1.1796875-2.6099854l-0.050293-7.9700317
							c-0.0097656-2.5899658,1.8100586-5.7399902,4.0698242-7.0499878l96.7602463-55.8599854
							c1.1401367-0.6500244,2.1699219-0.7200317,2.9101563-0.2800293l1.8198242,1.0599976
							c-0.0200195-0.0099487-0.0498047-0.0199585-0.0800781-0.0299683c0.0800781,0.0299683,0.1601563,0.0700073,0.2402344,0.1199951
							c0.7299805,0.4299927,1.1796875,1.3300171,1.1899414,2.6099854L157.7184601,136.3190308z" class="colorb0c4ff svgShape"></path><path fill="#92b2f9" d="M156.4825745,125.7291489c-0.7413177-0.4360504-1.7732849-0.3706665-2.9071045,0.2834549
									l-96.7731323,55.8626556c-2.2530861,1.3009186-4.0773048,4.4551544-4.0700302,7.0424805l0.0509224,7.9706726
									c0.0072746,1.2864075,0.4577866,2.1876068,1.1918373,2.616394l-1.9836121-1.151947
									c-0.7267799-0.4214935-1.1845665-1.3299713-1.1845665-2.6091156l-0.0509224-7.977951
									c-0.0072746-2.5873718,1.8169441-5.7415619,4.0700302-7.0424805l96.7658539-55.8626556
									c1.1410828-0.6541138,2.1657715-0.7194977,2.9071045-0.2834549L156.4825745,125.7291489z" class="color92b2f9 svgShape"></path><path fill="#b0c4ff" d="M153.5739136,126.0111084c2.2551727-1.3020172,4.089325-0.2567291,4.0966492,2.3292847
							l0.0478821,7.9740143c0.0073242,2.5860138-1.8149109,5.7423096-4.0700836,7.044342l-96.768364,55.8613129
							c-2.2551651,1.3020325-4.089447,0.2568207-4.0967789-2.3291931l-0.0478706-7.9740295
							c-0.0073318-2.5859985,1.8150368-5.7423859,4.0702019-7.0444031L153.5739136,126.0111084z" class="colorb0c4ff svgShape"></path><path fill="#4075c1" d="M71.9396362,173.1360931l-15.1338806,8.7363129
							c-2.2553978,1.3020172-4.0777283,4.4584045-4.0705452,7.0444183l0.0479088,7.9740143
							c0.0071831,2.5860138,1.8419724,3.6312561,4.0968933,2.3292389l15.0596237-8.6933289V173.1360931z" class="color4075c1 svgShape"></path><path fill="#ffffff" d="M66.5251465,188.6078186c0.4039993,0.2301636,0.4061203,0.9789581,0.0047455,1.6741028
								c-0.2006378,0.3475494-0.4634094,0.6130829-0.7266006,0.7650452
								c-0.263092,0.1519012-0.5265198,0.1881256-0.7285538,0.0750885l-1.7398071-0.9914856
								c-0.5526886,0.6718292-1.1677628,1.2032318-1.7833443,1.5586395
								c-0.9451637,0.5457001-1.8916931,0.6765137-2.6159706,0.2638245
								c-1.447403-0.8249359-1.4550209-3.5116425-0.0152016-6.0055389c0.7199554-1.2470856,1.666626-2.2097015,2.6144676-2.7569427
								c0.9452553-0.5457458,1.8917847-0.6779938,2.6145248-0.2660828c1.1941223,0.6805115,1.4066544,2.6330414,0.6359329,4.6918488
								L66.5251465,188.6078186z M63.3160591,188.4503937c0.9734077-1.6860046,0.9699745-3.505188-0.0115166-4.0625153
								c-0.4897461-0.2800598-1.1297798-0.1915283-1.76931,0.1777496c-0.6399155,0.3695068-1.2793236,1.0201721-1.7661667,1.8634491
								c-0.9734077,1.6860046-0.9682541,3.5041962,0.0115166,4.0625305
								c0.4898376,0.2791748,1.1303558,0.1903839,1.7700768-0.1789703
								C62.1903801,189.9432983,62.8293076,189.2934113,63.3160591,188.4503937" class="colorfff svgShape"></path></g><g><path fill="#dde9fe" d="M45.9857826 219.5585632c-.3391724 0-.6687622-.1758118-.8508072-.4905548-.2711449-.4694672-.1101799-1.0692596.3592949-1.3403931l92.5470505-53.4311218c.4685211-.2701874 1.0682983-.1101837 1.3404083.3592987.2711487.4694672.1101837 1.0692444-.3592987 1.3403931l-92.5470581 53.4311218C46.3211212 219.5164032 46.1524925 219.5585632 45.9857826 219.5585632zM149.0979462 160.0271454c-.3391724 0-.6687622-.1758118-.8507996-.4905548-.2711487-.4694824-.1101837-1.0692596.3592987-1.3404083l13.3925018-7.7314911c.4675598-.2706604 1.0692596-.1101837 1.3404083.3592987.2711487.4694672.1101837 1.0692444-.3592987 1.3403931l-13.3925018 7.7314911C149.4332886 159.9849854 149.2646637 160.0271454 149.0979462 160.0271454z" class="colordde9fe svgShape"></path><g><path fill="#dde9fe" d="M45.9857826 230.6252594c-.3391724 0-.6687622-.1758118-.8508072-.4905548-.2711449-.4694824-.1101799-1.0692596.3592949-1.3404083l27.6386948-15.9568939c.4666061-.2711487 1.0682983-.1101837 1.3404007.3592834.2711487.4694824.1101837 1.0692596-.3592911 1.3404083L46.4753761 230.493988C46.3211212 230.5830994 46.1524925 230.6252594 45.9857826 230.6252594zM82.6508713 209.6478424c-.3382187 0-.6678085-.1753387-.8498535-.4891205-.2721024-.4685211-.1120987-1.0692596.3564224-1.3408813l79.8395996-46.2855072c.4704285-.2701874 1.0702057-.1111298 1.3413544.3569031.27211.4685211.1121063 1.0692596-.3564148 1.3408813L83.1423798 209.515625C82.9871674 209.6052094 82.8175812 209.6478424 82.6508713 209.6478424z" class="colordde9fe svgShape"></path></g></g></g><g><path fill="#b0c4ff" d="M181.3087921,91.0090332c0.0097656,2.6599731-1.8603516,5.8999634-4.1699219,7.2399902
						l-24.4804688,14.1300049c-1.1899414,0.6799927-2.2597656,0.7299805-3.0297852,0.2599487l-1.9897461-1.1499634
						c-0.75-0.4400024-1.2202148-1.3699951-1.2202148-2.6799927l-0.050293-28.3099976
						c-0.0097656-2.6600342,1.8701172-5.9000244,4.1801758-7.2300415l24.4702148-14.1399536
						c1.1796875-0.6700439,2.2299805-0.7300415,2.9897461-0.2900391l1.8598633,1.0900269
						c0.0600586,0.0299683,0.1103516,0.0599976,0.1601563,0.0899658c0.7602539,0.4299927,1.2402344,1.3600464,1.2402344,2.6900024
						L181.3087921,91.0090332z" class="colorb0c4ff svgShape"></path><path fill="#92b2f9" d="M180.0443726,60.0245972c-0.7610474-0.4476471-1.8204498-0.3805237-2.9844208,0.2909889
								l-24.4841003,14.1324425c-2.3130035,1.3355179-4.1857452,4.5736389-4.1782684,7.2297745l0.0522766,28.3048706
								c0.0074615,1.3206253,0.4699554,2.2457886,1.223526,2.6859665l-2.0363617-1.182579
								c-0.746109-0.4327087-1.2160645-1.3653412-1.2160645-2.6784973l-0.0522766-28.3123398
								c-0.0074768-2.6561813,1.8652649-5.8942566,4.1782684-7.2297668l24.4766388-14.1324463
								c1.1714325-0.6715126,2.2233734-0.738636,2.9844208-0.2909927L180.0443726,60.0245972z" class="color92b2f9 svgShape"></path><path fill="#b0c4ff" d="M177.0583649,60.3140564c2.3151245-1.336647,4.1980591-0.2635536,4.2055969,2.3912201
						l0.0491333,28.3083038c0.0075378,2.6547852-1.8631744,5.8950272-4.1783142,7.2316742l-24.4792175,14.1310806
						c-2.3151398,1.336647-4.1981964,0.2636414-4.205719-2.3911514l-0.0491486-28.3082962
						c-0.0075226-2.6547775,1.8633118-5.8951035,4.1784363-7.2317505L177.0583649,60.3140564z" class="colorb0c4ff svgShape"></path><path fill="#6a95d3" d="M174.5295563,78.9608612c0.2577209-0.0794601,0.4412994,0.0799637,0.4421539,0.3831329
							l0.0065765,2.3202896c0.0008698,0.303154-0.1811981,0.6736755-0.4385376,0.8915863l-0.9923096,0.8430862
							c-0.2095795,0.1783981-0.3690948,0.4569931-0.4224091,0.7268906
							c-0.1928406,0.9481888-0.4794617,1.9074783-0.8430176,2.8490524c-0.1073608,0.2771683-0.1107941,0.54216,0.0040741,0.6838531
							l0.5409088,0.6871719c0.1377869,0.1810608,0.1076202,0.5332184-0.0808716,0.859642l-1.4204407,2.4603271
							c-0.1106567,0.1916885-0.2566528,0.3410721-0.4041901,0.4262543c-0.1036987,0.0598679-0.208252,0.0881119-0.3018799,0.0770493
							l-0.8721924-0.1157379c-0.0909271-0.0135574-0.1939087,0.0136261-0.2974854,0.0734253
							c-0.1025696,0.0592194-0.2058258,0.1505127-0.2987518,0.266037c-0.6344757,0.7895279-1.321167,1.5183487-2.045578,2.1613464
							c-0.20755,0.1819839-0.3690948,0.4593658-0.4182281,0.7268448l-0.233551,1.2825317
							c-0.0573273,0.3295822-0.2894135,0.6739883-0.5532684,0.8263168l-2.0171661,1.1646194
							c-0.2659454,0.1535416-0.4971466,0.0766144-0.5582275-0.1846085l-0.240036-1.0090942
							c-0.0505676-0.2099228-0.2131042-0.3001938-0.421051-0.2422943c-0.7277069,0.1953812-1.4141846,0.2593689-2.0490265,0.2050781
							c-0.0936737-0.009285-0.1976166,0.0184479-0.3009644,0.0781174c-0.103363,0.0596695-0.2061157,0.1512833-0.2973328,0.2696838
							l-0.8686981,1.1208344c-0.0932465,0.1189651-0.197525,0.2112885-0.3012695,0.2711868
							c-0.1475372,0.0851746-0.2938995,0.1045761-0.4052887,0.0410919l-1.4318542-0.8135529
							c-0.1875763-0.1068878-0.2217407-0.4243088-0.0853729-0.7636566l0.537262-1.3120422
							c0.1136932-0.2760468,0.1108704-0.5374222,0.0001373-0.6886902c-0.3676758-0.516983-0.6586761-1.1404037-0.8542175-1.8619843
							c-0.0568085-0.2063065-0.2172699-0.3001633-0.4252014-0.2374954l-0.9978943,0.303566
							c-0.2578583,0.0795212-0.4414063-0.0799026-0.442276-0.3830566l-0.0065765-2.3202896
							c-0.0008545-0.3031693,0.1811981-0.6736832,0.4386597-0.8916702l0.9963379-0.8478165
							c0.2076263-0.1772537,0.3670349-0.4557877,0.4224701-0.7268982c0.1908264-0.9446564,0.4773407-1.9015045,0.8408966-2.8406677
							c0.1095123-0.2784119,0.1108551-0.5421906-0.0040283-0.6862793l-0.5429382-0.688385
							c-0.1378479-0.1810303-0.1055908-0.5367813,0.08078-0.8595886l1.4225616-2.4615555
							c0.1106567-0.1916885,0.2566681-0.3410873,0.4042511-0.4262848c0.1036835-0.0598679,0.2081451-0.0880508,0.3017578-0.0769806
							l0.8722076,0.1157303c0.0915833,0.0128632,0.1945343-0.0142899,0.2978821-0.073967
							c0.1033478-0.0596695,0.2071075-0.1518555,0.3004303-0.2690964c0.6324615-0.7859573,1.3170624-1.5135727,2.0435028-2.1553497
							c0.2075958-0.1844101,0.3690796-0.4617615,0.4182892-0.7292786l0.2335358-1.2825165
							c0.0594177-0.3307953,0.2894287-0.673996,0.5553589-0.8275299l2.0171814-1.1646194
							c0.2638397-0.1523361,0.4971313-0.076622,0.5561218,0.1858139l0.2400513,1.0090942
							c0.0504913,0.2099609,0.2130737,0.3001938,0.42099,0.2447205c0.7256775-0.1966095,1.4142456-0.261795,2.0511322-0.2039032
							c0.092804,0.0068283,0.1956787-0.0215149,0.2977905-0.0804672c0.1041565-0.0601349,0.2074127-0.1520081,0.2984009-0.2709045
							l0.8686829-1.1208344c0.0932617-0.1189575,0.1976471-0.2113495,0.3013306-0.2712173
							c0.1475372-0.0851746,0.2938995-0.1045761,0.4052887-0.0410919l1.429718,0.8147812
							c0.1897278,0.1080475,0.2217865,0.4242859,0.0854797,0.7636032l-0.5352478,1.3084869
							c-0.1136932,0.2760468-0.1087646,0.5338211-0.0001984,0.6863403c0.3677063,0.519371,0.6588135,1.1451035,0.8563843,1.8678894
							c0.0546722,0.2075424,0.2152405,0.3013535,0.4251556,0.2375412L174.5295563,78.9608612z M164.8700409,91.3402634
							c2.403595-1.3877182,4.3416901-4.7446747,4.3338776-7.5041885c-0.0078125-2.7571259-1.9585876-3.8712463-4.3621979-2.4835281
							c-2.3994293,1.3853226-4.3396149,4.7458801-4.3318024,7.503006
							C160.517746,91.6150665,162.4705963,92.7255783,164.8700409,91.3402634" class="color6a95d3 svgShape"></path></g><g><path fill="#fc6c85" d="M205.6309052,244.9380341l0.7311707,8.8074799
							c0.1534882,1.8489075-1.3522034,3.4119873-3.2055511,3.3277588l-16.950531-0.7704773
							c-1.2748108-0.0579529-2.5465698-0.2813416-3.7262878-0.7679596c-2.5473938-1.050766-3.5348969-2.5783844-2.9529724-4.5858307
							c0.4757843-1.6412659,1.874115-2.8531189,3.5174561-3.3216858l11.2806702-3.2164001L205.6309052,244.9380341z" class="colorfc6c85 svgShape"></path><path fill="#f95070" d="M206.2999573,254.6595001c-0.3134918,1.4195099-1.6038818,2.4795685-3.1431732,2.4150543
							l-16.9515228-0.7743225c-1.2719421-0.0552979-2.5441132-0.2765198-3.7240143-0.7650909
							c-2.5533295-1.0507813-3.5394592-2.5809479-2.958847-4.5904083c0.3042603-1.0508423,0.9955902-1.9264679,1.8804474-2.5348816
							c-0.0553589,0.1290588-0.1107178,0.2673492-0.1476288,0.4055939
							c-0.5805969,2.0002289,0.4057617,3.5303955,2.9498596,4.5812378c1.1796722,0.4885101,2.451828,0.7097168,3.7330017,0.7650299
							l16.9423065,0.7743073C205.3874054,254.954483,205.866745,254.8622742,206.2999573,254.6595001z" class="colorf95070 svgShape"></path><path fill="#fc6c85" d="M221.995636,239.8699036l-0.407196,8.1566315
							c-0.0621796,2.3563385-1.9902496,4.2342072-4.3474121,4.2342072l0,0c-2.3895569,0-4.6674805-1.0113525-6.2701111-2.7837982
							l-10.6510162-11.2701721c1.4814606-2.0263062,5.6917725-1.5402527,11.1866302,0.6646729L221.995636,239.8699036z" class="colorfc6c85 svgShape"></path><path fill="#f95070" d="M221.4999847,248.7693634c-0.3965302,2.0002289-2.1570282,3.4934998-4.2586975,3.4934998
							c-1.1981354,0-2.3598022-0.2580719-3.4289703-0.7281799c-1.0691833-0.4701233-2.0370789-1.1706696-2.838913-2.055542
							l-10.6557465-11.2733154c0.3870697-0.5345917,0.9676819-0.8848724,1.7051392-1.0876923l9.8723755,10.4344788
							c0.8018341,0.8941498,1.7697449,1.5854797,2.838913,2.055542c1.0691833,0.4793396,2.2308502,0.7282257,3.4289703,0.7282257
							C219.5088043,250.33638,220.7163849,249.7279816,221.4999847,248.7693634z" class="colorf95070 svgShape"></path><path fill="#35489e" d="M226.4606934,162.1724243l-3.6242065,33.934845
							c-0.2398529,2.2457275-0.1963959,4.5127106,0.1293182,6.7476044l1.0402069,7.1374054
							c0.3069,2.1058655,0.363266,4.2406769,0.1678925,6.3598022l-2.1261902,23.0624695
							c0.0342102,3.7489777-10.4457855,3.8439789-10.4799957,0.0950012l-3.0249786-31.5707397L203.8862,166.202179
							l16.8991699-8.6536255L226.4606934,162.1724243z" class="color35489e svgShape"></path><path fill="#263966" d="M224.0071716,209.9903564c0.3042603,2.1108398,0.3594055,4.2401428,0.165863,6.36026
							l-2.1293488,23.0627289c0.0184479,1.6960754-2.1199036,2.6454773-4.470459,2.8206177
							c-0.3227234-0.8756409-0.3778534-1.87117-0.4147644-2.8298492c-0.1199493-3.2815094-0.1383972-6.5721893-0.1476288-9.8629303
							c0-1.30896-0.0092163-2.6270905,0.1935425-3.9175262c0.3596191-2.3044434,1.3459778-4.452179,1.9542694-6.6920929
							c0.6175079-2.2491302,0.8110504-4.7655487-0.3317108-6.793457c-0.2765808-0.4977875-0.6362-0.9586792-0.7743683-1.5117188
							c-0.4516602-1.8251038,1.6407776-3.5304108,1.253479-5.3647308c-0.1566315-0.7558594-0.7190094-1.3734283-0.9400024-2.1200714
							c-0.6177368-2.1385193,1.6682434-4.8761597,0.0459137-6.4063263
							c-0.4332123-0.3963623-1.0507202-0.5715027-1.4285736-1.0231628c-0.8666382-1.0323792,0.05513-2.5164185,0.7372437-3.6686401
							c2.0001678-3.3644867,1.9173584-7.521698,1.7791748-11.4392242c-0.0276794-0.8203888-0.0738068-1.6868591-0.4608765-2.4058228
							c-0.2489014-0.4608765-0.6269684-0.8388367-0.8297424-1.3181305
							c-0.8756256-2.0463562,1.7515106-3.9544373,1.9725037-6.1758881c0.1937561-1.9172974-1.4747009-3.7424011-1.0322723-5.6227875
							c0.2304382-1.0047607,1.0232697-1.7698517,1.7789612-2.4703979c0.8389587-0.783493,1.8527679-1.7421112,2.9588623-2.5348816
							l2.5717773,2.0924377l-3.6225128,33.9396973c-0.2396698,2.2491302-0.1935272,4.5074768,0.128952,6.7473907
							L224.0071716,209.9903564z" class="color263966 svgShape"></path><path fill="#35489e" d="M186.8333282,162.0037994c0,0-2.3058472,33.5408478-1.2289581,44.360321
							c0.9535065,9.5798798,8.5263977,37.3318176,8.5263977,37.3318176c0.6145172,4.6472626,11.7526093,5.1465607,11.7526093,0
							l-1.1290588-23.7101898c-0.0917358-1.9263763-0.4727325-3.8280029-1.1302032-5.641037v-0.0000153
							c-1.7698669-4.8805084-1.4873352-10.2724915,0.7767334-14.9443054
							c5.3836823-11.109024,9.2870483-21.0927124,7.4740601-26.7310028l-16.4645386-16.6590424L186.8333282,162.0037994z" class="color35489e svgShape"></path><path fill="#263966" d="M204.7514343,219.9824066l1.1337585,23.7172089c0,3.2722778-4.5075836,4.2585754-7.9457855,3.3460388
							c-0.3042603-1.0231628-0.4239807-2.0832214-0.2212219-3.14328c0.3042603-1.5208893,1.2260284-3.1893005,0.3688507-4.4798126
							c-0.2950287-0.4424286-0.7743683-0.7650757-0.9955902-1.2443695c-0.414978-0.8941498,0.1473999-1.8988495,0.5713806-2.7837677
							c1.7974091-3.797699,0.9586792-8.2591095,0.0830383-12.3701782c-0.1935272-0.9494476-0.4147491-1.9173126-0.9678955-2.7192383
							c-0.2673492-0.3871307-0.6175232-0.7281799-0.820282-1.1522217c-0.2858124-0.5991821-0.2581329-1.2812805-0.2396698-1.944931
							c0.0461273-2.6916199-0.2673492-5.4015808-0.9217682-8.0102081c-0.4608917-1.8251495-1.0876312-3.760849-0.4608917-5.5306396
							c0.6544189-1.8435516,2.617691-3.3275909,2.3228912-5.2541199c-0.1384125-0.9033203-0.7743835-1.6776276-0.894104-2.5809479
							c-0.3134766-2.2860413,2.5164337-3.6594696,3.4841156-5.7518616c0.7559052-1.668396,0.2673492-3.7055359,1.0140381-5.3831787
							c0.6082916-1.3641968,1.9173584-2.2398987,2.958847-3.3091278c1.0417175-1.0692902,1.8527832-2.6916199,1.1799011-4.0097504
							c-0.2304382-0.4516602-0.6175232-0.8203888-0.7928314-1.290451c-0.2947998-0.8480682,0.1384125-1.7513885,0.5623932-2.5348663
							c0.7651367-1.4103394,1.5577393-2.8575439,2.7376404-3.9359894c0.341156-0.3134308,0.7190094-0.5899506,1.1337585-0.8296204
							l2.7865753,2.8199615c0.8098602,0.8195801,1.3291016,1.8856049,1.438797,3.0325775
							c0.5580292,5.8349152-3.063446,14.8496704-7.866333,24.7595673c-1.2811737,2.6362457-1.92659,5.5121765-1.92659,8.3881073
							c0,2.2122803,0.378067,4.4337311,1.1522217,6.5538483
							C204.2810974,216.1570282,204.6591644,218.0558777,204.7514343,219.9824066z" class="color263966 svgShape"></path><path fill="#54d391" d="M222.4999084,90.6620865c-13.385498,0.0108414-24.1881714,6.2891312-33.4514618,16.3024216
								c-1.4342346,1.550354-2.2151184,3.5983734-2.2151184,5.7103958v49.3288956
								c2.5744781,16.7315979,42.5181274,12.5836182,39.9436493-4.1479797
								c-1.3609924-9.7941895-1.7052155-19.150528-0.8115845-27.9738464
								c0.3250122-3.2090759,0.9992828-6.3704224,1.9026184-9.466835
								c3.1260834-10.7154617,3.7489319-20.4705734-1.6444702-27.9173965
								C225.3684082,91.3170319,223.9577637,90.6609039,222.4999084,90.6620865z" class="color54d391 svgShape"></path><path fill="#54d391" d="M225.9612274,129.8790894c-0.894104,8.8305359-0.5437164,18.186554,0.811264,27.9757843
								c2.5810089,16.7302094-37.3687134,20.8781891-39.9404907,4.1479797v-4.1387482
								c2.230835,1.5024872,4.4614563,3.0049896,6.6920776,4.5074768c1.5392914,1.0416107,3.21698,2.1200714,5.0789795,2.0647736
								c1.1060791-0.0276947,2.1570282-0.4608917,3.2262115-0.7743225c2.3690186-0.6728821,4.922348-0.7189484,7.319046-0.1013794
								c0.820282,0.2027588,1.7051392,0.4885101,2.488739,0.1566772c0.7649231-0.3225861,1.1799011-1.124527,1.6959229-1.779007
								c0.8389587-1.0508423,1.9727173-1.7237091,3.2354279-2.1477509c2.5994568-0.8756409,3.9452209-3.5395813,3.5858307-6.2588196
								c-0.0184631-0.1290588-0.0276794-0.2580566-0.0276794-0.396347c0.0461273-2.0279236,2.488739-3.3183594,2.7007294-5.3370514
								c0.2212067-2.018692-1.8619995-3.5764771-2.2583008-5.5675507c-0.3778534-1.8896179,0.8110504-3.7331696,0.9402313-5.6596985
								c0.1935272-2.7653198-1.7884216-5.4753265-1.0601807-8.1484375c0.3596191-1.336586,1.364212-2.4611206,1.5118256-3.83461
								c0.2304535-2.1569138-1.7145844-4.1848297-1.2352448-6.2956696c0.5254669-2.2675858,3.6963196-3.87146,2.903717-6.0652847
								c-0.1935425-0.5530396-0.6177368-0.9770737-0.9127655-1.4840393c-1.0415039-1.806694-0.165863-4.0558243,0.5346985-6.0284348
								c0.7005463-1.9633789,1.032486-4.5443344-0.6452026-5.7979279c-0.7097778-0.5254211-1.6869202-0.7097855-2.2029419-1.4287415
								c-0.3319397-0.4608841-0.4057465-1.0508347-0.4057465-1.6130981c0.0092316-1.8619995,1.1339874-3.8161545,2.6825104-5.208046
								c1.4011078,0.0460815,2.7284088,0.7005615,3.5394592,1.8343201
								c5.4016876,7.4479446,4.7749481,17.2003174,1.6500092,27.9113159
								C226.9660339,123.5095978,226.2931519,126.6712723,225.9612274,129.8790894z" class="color54d391 svgShape"></path><path fill="#f7b2b2" d="M157.1933441,111.3091049c0,0-1.1029816-6.7004013-2.71138-9.4136429
									c-0.200058-0.3374786-0.6996918-0.3028107-0.858551,0.0559006l-1.125,2.5402679
									c-0.2149658,0.4853821-0.8188324,0.6698074-1.2615356,0.3768387
									c-2.4499969-1.6213913-3.913681-4.0709229-4.6811066-7.1052399c-0.1399231-0.5532608-0.7988434-0.804985-1.256897-0.4645996
									c-1.9682007,1.4626007-2.5946045,4.1822662-1.8428192,8.1931152
									c0.9175415,2.5482025,3.8151093,6.437027,8.4961243,10.7285309L157.1933441,111.3091049z" class="colorf7b2b2 svgShape"></path><path fill="#46c17e" d="M196.9664612,106.9285583c-2.7557983-1.8176498-6.4172516-1.4037933-8.6977997,0.9831161
								l-15.0617676,17.3371353c-0.4629822,0.4999084-1.2510986,0.507515-1.7236481,0.0166321l-14.2030182-14.7541428
								c-2.4315796-2.1614075-7.5866089,2.9457779-5.5306396,6.2219696c0,0,12.0327606,23.6499252,20.1049957,24.3001785
								c7.4693451,0.6016998,19.9226685-15.5199203,26.7314301-24.1965408
								c2.4635162-3.1393356,1.7116547-7.711174-1.6195374-9.9083405L196.9664612,106.9285583z" class="color46c17e svgShape"></path><path fill="#3caf6d" d="M198.58461,116.835968c-6.8118134,8.6738663-19.2649689,24.7957153-26.7314301,24.1965485
								c-8.0747375-0.6452484-20.1036987-24.2979279-20.1036987-24.2979279
								c-0.7928162-1.262825-0.5162506-2.7929993,0.2671204-4.0742798c1.7974243,1.30896,3.6135101,2.7192459,4.5721893,4.7103043
								c0.7280121,1.5301208,0.912323,3.3368149,1.9540405,4.6734009c1.4656982,1.8896179,4.4706879,2.6270294,4.959259,4.9775391
								c0.1104889,0.5622711,0.05513,1.1706772,0.2579041,1.7144852c0.5346985,1.3734894,2.4059143,1.6407776,3.3645935,2.7653198
								c0.3317261,0.3871765,0.5529327,0.8664703,0.894104,1.2444305c0.9863586,1.0692291,2.7191772,0.9586182,4.0741577,0.4424286
								c1.3549805-0.5254211,2.6179199-1.364212,4.0651703-1.5301208c1.1429901-0.1290588,2.3780212,0.1751404,3.4289703-0.3041992
								c0.9217682-0.4148102,1.4839172-1.3365784,2.0001678-2.2030487c0.6175232-1.0416107,1.23526-2.0832214,1.8527832-3.1248245
								c0.6359558-1.0692368,1.3549652-2.2122269,2.5071869-2.6638794c0.5992889-0.2212219,1.2537079-0.2489014,1.8435516-0.4885712
								c2.5625458-1.0600052,2.1477966-5.2264404,4.4337769-6.8119125c1.0783997-0.7466354,2.6638336-0.8203354,3.4012909-1.9080276
								c0.6177368-0.9217682,0.3593903-2.1846542,0.7743683-3.2170334c0.4239807-1.0784607,1.5762024-1.6591797,2.7468719-1.6775742
								C200.4650574,111.5818558,200.3545685,114.5776138,198.58461,116.835968z" class="color3caf6d svgShape"></path><g><path fill="#f7b2b2" d="M212.6984406,90.3586426c0.3955078,1.9309387-4.4848633,9.4829559-12.1826172,4.5974731
								l-0.0289307-4.1640015l3.4214478-4.3191147l8.4267578-0.1119461L212.6984406,90.3586426z" class="colorf7b2b2 svgShape"></path><path fill="#f7b2b2" d="M193.4989166,65.2160568c-1.9273987,6.8555298-2.3704376,13.839798-1.1478271,20.9684906
								c0.460434,2.6846466,2.7118835,4.697052,5.434082,4.7916565c3.3272247,0.1156311,6.9477234-0.6228943,10.7525482-1.8980637
								l-0.2266541-17.0634308l-12.4854736-7.2186508L193.4989166,65.2160568z" class="colorf7b2b2 svgShape"></path><path fill="#eaa7a7" d="M208.5413055,89.0771561c-3.8101501,1.2772751-7.4330597,2.0108337-10.7603607,1.9018936
								c-2.027298-0.0744781-3.802124-1.2154236-4.7529907-2.9020157c0.854126,0.5916901,1.8786163,0.934227,2.9750824,0.9760513
								c3.3267975,0.1181488,6.9412231-0.6251144,10.7509155-1.9024124l-0.2102966-16.1614761l1.7712402,1.029892
								L208.5413055,89.0771561z" class="coloreaa7a7 svgShape"></path><path fill="#329e5e" d="M212.6982727,90.3561783c0,0-5.2135468,5.9239197-12.1848602,4.6011658l-3.2021942,4.4646606
								c7.9785309,0.1111603,15.1223602-2.4377747,16.8470764-7.8971176L212.6982727,90.3561783z" class="color329e5e svgShape"></path><path fill="#353437" d="M197.5194397,56.0223122c-2.912262-1.1978645-6.1401825,0.8180161-6.3417969,3.9605446v0.0000076
								c-0.2556915,3.2191086,1.6034393,5.4626007,5.3398285,6.840065c0.4265442,0.1572495,0.7013245,0.5675201,0.671814,1.0211716
								c-0.148056,2.2757339,0.03508,4.3994446,1.0632935,6.1354599c0.1464539,0.2472763,0.199234,0.5379181,0.1212769,0.814537
								l-0.9131317,3.2395554c-0.1239777,0.4398117,0.1047211,0.9021378,0.5295258,1.070488l0,0
								c0.3766632,0.1492691,0.8009186,0.0202408,1.0464325-0.3020554c0.7798004-1.0236359,1.6203308-1.5644684,2.5574951-1.3368073
								c0.8377533,0.2035065,1.3831787,1.0243683,1.3722534,1.8864059l-0.0537262,4.2362213
								c-0.010788,0.8512421,0.0354309,1.7079086,0.1937561,2.5443726c0.920105,4.8609695,3.8397522,5.6368484,8.1097412,3.8150406
								c0.8705597-0.3714294,1.5640259-1.0528564,2.0116577-1.886795c0.7693634-1.4332809,1.882019-3.059967,3.2052307-4.8052902
								c0.9775848-1.289444,1.8244934-2.6798859,2.4872437-4.1493454c0.5646362-1.2518921,0.9956207-2.5611343,1.2598877-3.9141235
								c0.8349304-4.2745972,0.0483551-7.8465042-2.1231689-10.818306
								c-0.3610077-0.4940567-0.6516418-1.0358353-0.8067932-1.6277428l-0.40979-1.5632057
								c-0.5431976-2.0721931-2.4751282-3.4716377-4.6134033-3.3418503l-2.2993164,0.1395645
								c-0.5294037,0.0321312-1.0541229-0.0415726-1.562973-0.191082c-2.4268494-0.713028-5.0938416-1.0341988-7.9772186-1.0022621
								c-0.625885,0.0069313-1.2517548-0.0997314-1.8306274-0.3378296L197.5194397,56.0223122z" class="color353437 svgShape"></path><path fill="#29282b" d="M220.1845245,75.1867447c-0.2669373,1.3622208-0.6964417,2.6694183-1.2667999,3.9203644
								c-0.6645203,1.4683151-1.5030518,2.8609009-2.4857635,4.1444855
								c-1.3187408,1.7472534-2.4312439,3.3773422-3.203949,4.8089218
								c-0.4440155,0.8303146-1.1403961,1.5148315-2.0118408,1.8902588
								c-0.653717,0.2789001-1.2684326,0.4921112-1.8549957,0.6400757c0.0688324-0.0992203,0.1273193-0.1978226,0.1858215-0.2964935
								c0.7623749-1.4310303,1.8754272-3.0505219,3.2045135-4.7983246c0.9712982-1.2935333,1.8206787-2.6867599,2.4857178-4.1550446
								c0.559494-1.2504349,0.9993439-2.5581741,1.2565155-3.9091873c0.8336029-4.2794571,0.0492706-7.8464584-2.1255798-10.8194275
								c-0.3552094-0.4905472-0.6496735-1.037384-0.7975006-1.6239014l-0.4126892-1.5701485
								c-0.5456696-2.0725861-2.4773407-3.4663162-4.6147766-3.3419075l-2.2955475,0.143383
								c-0.5292053,0.0281715-1.0526276-0.0394554-1.5707397-0.1923599c-2.4259338-0.7093506-5.085907-1.034771-7.9712067-0.9979172
								c-0.6259918,0.0014534-1.2576141-0.1029129-1.8329468-0.3376389l-1.0419464-0.4327393
								c-0.6618195-0.2726212-1.3466797-0.3740845-2.0133514-0.3385963
								c1.1103821-1.8741455,3.4908447-2.8075485,5.7047119-1.8957977l1.0310364,0.4226952
								c0.5862427,0.2447701,1.2075195,0.3496857,1.8329468,0.3376389c2.8858643-0.0262604,5.5561218,0.2879906,7.9826202,1.0079346
								c0.5061798,0.1429138,1.0306854,0.2211075,1.5593262,0.1823425l2.2961121-0.1328545
								c2.1368713-0.1349373,4.0691071,1.2693863,4.6147766,3.3419075l0.4116058,1.5595818
								c0.1592407,0.5965347,0.4428101,1.1333923,0.8089294,1.6339874
								C220.223465,67.3409042,221.018692,70.9179459,220.1845245,75.1867447z" class="color29282b svgShape"></path></g></g></svg></g></svg>