<svg id="SvgjsSvg1744" width="256" height="256" xmlns="http://www.w3.org/2000/svg" version="1.1" xmlns:xlink="http://www.w3.org/1999/xlink" xmlns:svgjs="http://svgjs.com/svgjs"><defs id="SvgjsDefs1745"></defs><g id="SvgjsG1746"><svg xmlns="http://www.w3.org/2000/svg" viewBox="0 0 128 128" width="256" height="256"><path fill="#97d5c9" d="M62.9 124c5.5 0 10-4.5 10-10V68h-20v46c0 5.5 4.5 10 10 10zM62.9 4c5.5 0 10 4.5 10 10v47h-20V14c0-5.5 4.5-10 10-10z" class="color97D5C9 svgShape"></path><path fill="#dedfe6" d="M52.9 61h20v7h-20z" class="colorDEDFE6 svgShape"></path><path fill="#0c0f13" d="M57.9 114V14c0-4.7 3.2-8.6 7.5-9.7-.8-.2-1.7-.3-2.5-.3-5.5 0-10 4.5-10 10v100c0 5.5 4.5 10 10 10 .9 0 1.7-.1 2.5-.3-4.3-1.1-7.5-5-7.5-9.7z" opacity=".1" class="color0C0F13 svgShape"></path><path fill="#b14e55" d="M27.9 124c5.5 0 10-4.5 10-10V68h-20v46c0 5.5 4.5 10 10 10z" class="colorB14E55 svgShape"></path><path fill="#dedfe6" d="M17.9 61h20v7h-20z" class="colorDEDFE6 svgShape"></path><path fill="#0c0f13" d="M22.9 114V61h-5v53c0 5.5 4.5 10 10 10 .9 0 1.7-.1 2.5-.3-4.3-1.1-7.5-5-7.5-9.7z" opacity=".1" class="color0C0F13 svgShape"></path><path fill="#62355c" d="M62.9 2.5c-6.3 0-11.5 5.2-11.5 11.5v100c0 6.3 5.2 11.5 11.5 11.5s11.5-5.2 11.5-11.5V14c0-6.3-5.2-11.5-11.5-11.5zm-8.5 60h17v4h-17v-4zm8.5-57c4.7 0 8.5 3.8 8.5 8.5v45.5h-17V14c0-4.7 3.8-8.5 8.5-8.5zm0 117c-4.7 0-8.5-3.8-8.5-8.5V69.5h17V114c0 4.7-3.8 8.5-8.5 8.5zM37.9 59.5h-8.5v-21h1c.8 0 1.5-.7 1.5-1.5s-.7-1.5-1.5-1.5h-1v-2h2c.8 0 1.5-.7 1.5-1.5s-.7-1.5-1.5-1.5h-2v-2h2c.8 0 1.5-.7 1.5-1.5s-.7-1.5-1.5-1.5h-2v-2h2c.8 0 1.5-.7 1.5-1.5s-.7-1.5-1.5-1.5h-2v-2h2c.8 0 1.5-.7 1.5-1.5s-.7-1.5-1.5-1.5h-2v-2h1c.8 0 1.5-.7 1.5-1.5s-.7-1.5-1.5-1.5h-1V10c0-.8-.7-1.5-1.5-1.5s-1.5.7-1.5 1.5v.5h-1c-.8 0-1.5.7-1.5 1.5s.7 1.5 1.5 1.5h1v2h-2c-.8 0-1.5.7-1.5 1.5s.7 1.5 1.5 1.5h2v2h-2c-.8 0-1.5.7-1.5 1.5s.7 1.5 1.5 1.5h2v2h-2c-.8 0-1.5.7-1.5 1.5s.7 1.5 1.5 1.5h2v2h-2c-.8 0-1.5.7-1.5 1.5s.7 1.5 1.5 1.5h2v2h-1c-.8 0-1.5.7-1.5 1.5s.7 1.5 1.5 1.5h1v21h-8.5c-.8 0-1.5.7-1.5 1.5v53c0 6.3 5.2 11.5 11.5 11.5s11.5-5.2 11.5-11.5V61c0-.8-.7-1.5-1.5-1.5zm-1.5 3v4h-17v-4h17zm-8.5 60c-4.7 0-8.5-3.8-8.5-8.5V69.5h17V114c0 4.7-3.8 8.5-8.5 8.5z" class="color62355C svgShape"></path><path fill="#4f8187" d="M97.9 124c-5.5 0-10-4.5-10-10V54h20v60c0 5.5-4.5 10-10 10z" class="color4F8187 svgShape"></path><path fill="#f5e2d0" d="M107.9 54h-20l-7.5-26.9C77.1 15.5 85.9 4 97.9 4c12.1 0 20.8 11.5 17.5 23.1L107.9 54z" class="colorF5E2D0 svgShape"></path><path fill="#dedfe6" d="M87.9 54h20v20h-20z" class="colorDEDFE6 svgShape"></path><path fill="#0c0f13" d="M92.9 114V54l-7.5-26.9c-3-10.8 4.3-21.5 15-22.9-.8-.1-1.6-.2-2.5-.2-12 0-20.8 11.5-17.5 23.1L87.9 54v60c0 5.5 4.5 10 10 10 .9 0 1.7-.1 2.5-.3-4.3-1.1-7.5-5-7.5-9.7z" opacity=".1" class="color0C0F13 svgShape"></path><path fill="#62355c" d="M113.6 10.3c-3.8-5-9.5-7.8-15.7-7.8S86 5.3 82.2 10.3c-3.8 5-5 11.2-3.3 17.2l7.5 26.7V114c0 6.3 5.2 11.5 11.5 11.5s11.5-5.2 11.5-11.5V54.2l7.5-26.7c1.7-6 .5-12.2-3.3-17.2zm-7.2 45.2v17h-17v-17h17zm-8.5 67c-4.7 0-8.5-3.8-8.5-8.5V75.5h17V114c0 4.7-3.8 8.5-8.5 8.5zM114 26.7l-7.2 25.8H105l2.4-25.2c.1-.8-.5-1.6-1.4-1.6-.8-.1-1.6.5-1.6 1.4L102 52.5h-2.6V27c0-.8-.7-1.5-1.5-1.5s-1.5.7-1.5 1.5v25.5h-2.1L91.9 27c-.1-.8-.8-1.4-1.6-1.4-.8.1-1.4.8-1.4 1.6l2.4 25.2H89l-7.2-25.8c-1.4-5.1-.4-10.4 2.8-14.6s8-6.6 13.3-6.6S108 7.8 111.2 12s4.2 9.6 2.8 14.7z" class="color62355C svgShape"></path></svg></g></svg>