<svg id="SvgjsSvg1363" width="256" height="256" xmlns="http://www.w3.org/2000/svg" version="1.1" xmlns:xlink="http://www.w3.org/1999/xlink" xmlns:svgjs="http://svgjs.com/svgjs"><defs id="SvgjsDefs1364"></defs><g id="SvgjsG1365"><svg xmlns="http://www.w3.org/2000/svg" baseProfile="basic" viewBox="0 0 810.002 673.344" width="256" height="256"><path fill="#4c1f1f" d="M561.888,673.344c-0.239,0-0.479-0.006-0.716-0.014c-0.214,0.009-0.428,0.014-0.644,0.014h-47.692		c-23.152,0-41.971-20.792-47.114-50.676h-46.219c-6.318,29.477-29.02,50.676-55.821,50.676c-0.15,0-0.3-0.003-0.449-0.007
		c-0.135,0.005-0.275,0.007-0.416,0.007h-47.692c-23.153,0-41.971-20.792-47.115-50.676h-68.108
		c-6.318,29.477-29.019,50.676-55.821,50.676c-0.24,0-0.478-0.006-0.715-0.014c-0.213,0.009-0.428,0.014-0.644,0.014H95.029
		c-25.033,0-44.884-24.386-48.053-57.779C18.61,602.727,0,574.326,0,542.81c0-55.948,45.517-101.466,101.465-101.466h57.468
		l46.726-55.555c15.075-17.923,37.39-28.202,61.224-28.202h133.318c15.2,0,29.22,7.437,37.501,19.893
		c2.495,3.753,4.377,7.816,5.598,12.041h13.403c6.644,0,13.037,2.07,18.354,5.781c6.222-3.736,13.43-5.781,20.795-5.781h38.234
		c10.711,0,20.669,5.309,26.638,14.203c5.97,8.893,7.111,20.12,3.054,30.033l-3.133,7.653c3.291,0.116,6.574,0.385,9.837,0.804
		c2.225-21.06-1.146-34.839-11.504-49.676c-9.318-13.349-26.364-23.734-42.85-33.776c-7.487-4.562-14.546-8.862-21.246-13.586
		c-24.558-17.313-41.649-37.558-50.803-60.172c-4.905-12.119-8.395-24.822-10.221-37.127c-3.738-1.353-7.577-2.929-11.954-4.897
		c-7.187-3.159-14.303-6.87-21.07-10.995c-42.974-26.188-65.456-58.69-65.014-93.992c0.369-29.526,22.139-54.669,50.637-58.484
		c12.958-1.735,26.599,1.584,39.457,9.596c3.853,2.401,7.539,5.08,10.962,7.957c2.874-3.427,6.042-6.704,9.42-9.735
		c10.231-9.178,21.769-14.663,33.573-16.001c-0.147-7.258,0.599-14.439,2.235-21.462c7.194-30.878,35.79-52.227,66.55-49.656
		c13.955,1.166,27.493,7.801,39.15,19.188c3.938,3.847,7.566,8.003,10.777,12.328c4.211-3.359,8.782-6.448,13.573-9.158
		c14.186-8.022,28.972-10.97,42.76-8.525c30.377,5.388,52.567,33.349,51.617,65.04c-0.194,6.487-1.12,12.933-2.761,19.244
		c1.265,1.102,2.504,2.261,3.711,3.473c2.88,2.89,5.574,5.982,8.019,9.193c3.251-2.39,6.707-4.597,10.285-6.559
		c12.807-7.016,26.127-9.472,38.522-7.101v0c27.255,5.213,46.874,30.605,45.637,59.063c-1.471,33.852-24.698,63.758-67.17,86.486
		c-6.682,3.576-13.686,6.742-20.815,9.412c-5.757,2.211-10.607,3.809-15.567,5.122c-6.834,12.99-3.795,31.409-0.303,47.893
		c5.68,26.816,11.553,54.545-7.685,84.283c-12.886,19.915-31.455,28.832-47.838,36.7c-4.136,1.986-8.378,4.023-12.41,6.168
		c-12.004,6.386-21.535,13.866-28.87,22.69c33.18,18.75,54,53.839,54,92.596v9.924c0.297-0.91,0.614-1.845,0.959-2.789
		c1.615-4.42,3.692-8.335,6.171-11.667c-2.45-3.243-3.917-7.127-4.212-11.277c-0.401-5.663,1.426-11.143,5.146-15.432l26.005-29.981
		c3.719-4.288,8.886-6.872,14.549-7.274c5.656-0.401,11.142,1.425,15.431,5.144l18.57,16.108c4.288,3.719,6.872,8.886,7.274,14.549
		c0.401,5.663-1.426,11.143-5.146,15.432l-26.005,29.981c-3.719,4.288-8.886,6.871-14.549,7.274
		c-4.164,0.296-8.242-0.617-11.812-2.605c-0.141,0.325-0.284,0.682-0.427,1.072c-0.473,1.297-0.91,2.716-1.418,4.36
		c-1.419,4.607-3.029,9.832-6.323,15.094c-4.479,7.155-10.358,11.664-16.581,14.59c2.672,2.929,4.914,5.953,6.914,8.651
		c2.837,3.826,5.516,7.437,8.128,8.934c2.047,1.173,5.092,1.105,7.083-0.158c2.371-1.504,4.781-4.116,7.571-7.141
		c1.798-1.948,3.707-4.019,5.861-6.069c-4.604-9.219-1.921-20.702,6.745-26.833l32.398-22.923
		c4.634-3.279,10.265-4.557,15.863-3.598c5.595,0.958,10.482,4.038,13.761,8.673l14.198,20.067
		c3.279,4.633,4.558,10.267,3.599,15.863c-0.959,5.595-4.039,10.482-8.673,13.76l-32.397,22.923
		c-7.979,5.646-18.554,4.998-25.769-0.927c-0.434,0.466-0.876,0.945-1.328,1.435c-3.814,4.135-8.134,8.818-14.159,12.638
		c-6.341,4.02-13.727,6.144-21.361,6.144c-6.99,0-13.837-1.807-19.802-5.225c-8.6-4.929-13.715-11.826-18.227-17.911
		c-1.806-2.435-3.511-4.734-5.164-6.471c-3.102-3.26-7.6-5.128-13.659-6.695c-4.55,2.492-9.419,4.378-14.45,5.603
		C612.256,651.352,589.234,673.344,561.888,673.344z M362.359,652.357c-0.017,0.001-0.034,0.002-0.05,0.003L362.359,652.357z
		 M561.08,652.319c0.063,0,0.126,0.001,0.187,0.002c0.186,0.004,0.37,0.011,0.555,0.019l0.144,0.006
		c18.355-0.001,34.326-18.135,36.282-41.284c0.428-5.064,4.421-9.094,9.479-9.57c6.136-0.577,12.111-2.678,17.28-6.077
		c2.372-1.558,5.27-2.091,8.039-1.478c0.497,0.11,0.999,0.223,1.504,0.339c0.396-2.972,2.024-5.543,4.355-7.189
		c-1.056-2.603-1.039-5.563,0.129-8.201c2.159-4.876,3.254-10.053,3.254-15.388v-15.75c0-34.607-20.695-65.577-52.724-78.898
		c-2.35-0.977-4.247-2.766-5.366-5.013c-2.233,1.157-4.822,1.479-7.29,0.884c-6.538-1.576-13.275-2.376-20.023-2.376H545.03
		c-3.499,0-6.768-1.743-8.718-4.648c-1.95-2.905-2.325-6.591-1-9.829l9.03-22.064c1.402-3.425,1.008-7.304-1.054-10.375
		c-2.062-3.072-5.502-4.906-9.202-4.906h-38.234c-5.327,0-10.27,2.102-13.915,5.919c-2.171,2.272-5.25,3.452-8.376,3.218
		c-3.133-0.234-5.996-1.859-7.804-4.429c-2.074-2.948-5.46-4.708-9.055-4.708h-22.267c-5.648,0-10.285-4.469-10.493-10.114
		c-0.145-3.941-1.435-7.849-3.729-11.301c-4.379-6.587-11.86-10.519-20.013-10.519H266.883c-17.62,0-34.078,7.552-45.152,20.719
		l-49.873,59.296c-1.995,2.372-4.936,3.741-8.036,3.741h-62.357C57.097,462.345,21,498.442,21,542.81
		c0,24.989,15.882,47.323,39.521,55.577c4.129,1.442,6.933,5.292,7.036,9.665c0.579,24.423,12.903,44.293,27.473,44.293h47.484
		c0.31-0.02,0.654-0.029,0.947-0.023c0.186,0.004,0.37,0.011,0.555,0.019l0.143,0.006c18.277-0.001,34.239-18.052,36.262-41.095
		c0.476-5.422,5.017-9.582,10.46-9.582h86.443c5.524,0,10.104,4.28,10.476,9.792c1.549,22.926,13.552,40.884,27.326,40.884
		l47.451-0.001c0.236-0.013,0.472-0.017,0.709-0.014c0.173,0.002,0.345,0.008,0.517,0.015c18.303-0.079,34.2-18.101,36.22-41.094
		c0.477-5.422,5.017-9.581,10.46-9.581h64.553c5.524,0,10.104,4.28,10.476,9.792c1.55,22.926,13.553,40.884,27.326,40.884h47.482
		C560.565,652.329,560.832,652.319,561.08,652.319z M731.074,606.609c1.996,0.717,3.761,2.009,4.997,3.756l3.42,4.833
		c0.08,0.114,0.239,0.14,0.353,0.06l32.397-22.923c0.034-0.024,0.086-0.061,0.104-0.164c0.018-0.102-0.018-0.151-0.042-0.187
		l-14.199-20.069c-0.025-0.036-0.061-0.085-0.164-0.103c-0.106-0.018-0.153,0.017-0.188,0.043l-32.398,22.923
		c-0.113,0.08-0.14,0.238-0.06,0.352l3.853,5.445C730.403,602.355,731.067,604.465,731.074,606.609z M696.001,540.973
		c2.24,0.167,4.382,1.05,6.1,2.539l3.711,3.219c0.032,0.028,0.079,0.068,0.183,0.061c0.104-0.007,0.144-0.053,0.172-0.086
		l26.006-29.981c0.029-0.034,0.068-0.079,0.062-0.183c-0.008-0.104-0.054-0.144-0.087-0.172l-18.57-16.108
		c-0.031-0.027-0.067-0.07-0.184-0.061c-0.104,0.007-0.144,0.053-0.172,0.086l-26.006,29.982c-0.029,0.034-0.068,0.079-0.062,0.183
		c0.008,0.104,0.054,0.144,0.087,0.172l5.386,4.672C694.354,536.795,695.522,538.794,696.001,540.973z M591.81,439.132
		c-0.104,1.548-0.238,3.118-0.398,4.721c1.258-1.606,2.566-3.172,3.93-4.705C594.195,439.339,593.004,439.341,591.81,439.132z
		 M592.713,194.494c-5.354,23.808-3.85,48.226,4.427,70.99c2.909,8.002,6.495,16.193,9.963,24.116
		c8.266,18.882,16.81,38.4,19.295,60.794c1.926,17.335,1.309,34.904-1.759,51.894c3.964-2.055,7.859-3.926,11.644-5.743
		c14.851-7.132,26.579-12.764,34.415-24.877c0,0,0,0,0,0c11.84-18.3,8.178-35.59,3.109-59.518
		c-3.109-14.679-8.585-40.528,0.521-63.812c-1.597-1.14-3.244-2.36-4.972-3.679c-5.992-4.499-11.805-9.502-17.209-14.817
		c-15.126-14.88-26.319-30.091-33.396-45.355c-3.641,1.686-7.302,3.248-10.958,4.673
		C602.253,191.374,597.46,193.072,592.713,194.494z M466.745,244.623c1.499,9.234,4.196,18.79,7.925,28.002
		c6.736,16.643,19.935,31.979,39.229,45.582c5.802,4.091,12.406,8.114,19.399,12.374c19.396,11.816,39.453,24.034,52.74,43.069
		c0,0,0.001,0,0.001,0c2.9,4.155,5.436,8.332,7.616,12.567c1.149-10.606,1.142-21.409-0.055-32.182
		c-1.934-17.409-9.12-33.823-16.728-51.201c-3.679-8.403-7.479-17.086-10.747-26.074c-10.243-28.173-12.289-58.343-6.017-87.739
		c-3.425-2.195-6.927-4.634-10.851-7.548c-4.308-3.145-8.532-6.508-12.614-10.04c-7.99,17.856-21.694,35.378-40.915,52.279
		c-5.957,5.238-12.337,10.134-18.962,14.552C473.17,240.707,469.927,242.768,466.745,244.623z M624.276,159.5
		c1.318,0,2.639,0.248,3.893,0.748c2.878,1.149,5.103,3.511,6.076,6.454c5.157,15.587,16.439,32.243,32.629,48.169
		c4.742,4.664,9.843,9.054,15.16,13.047c4.238,3.236,7.677,5.627,11.217,7.804c1.097,0.674,2.025,1.517,2.774,2.476
		c0.979-0.394,2.021-0.642,3.096-0.726c0.511-0.04,1.003-0.121,1.463-0.241c4.355-1.135,8.651-2.545,13.932-4.572
		c6.343-2.375,12.489-5.154,18.353-8.292c24.803-13.273,54.669-35.997,56.098-68.883c0.788-18.123-11.508-34.255-28.602-37.525l0,0
		c-7.547-1.443-16.01,0.248-24.485,4.891c-5.708,3.129-10.968,7.027-15.207,11.274c-2.34,2.344-5.651,3.446-8.926,2.975
		c-3.278-0.472-6.142-2.462-7.726-5.371c-2.872-5.272-6.818-10.495-11.413-15.105c-2.202-2.211-4.523-4.151-6.898-5.768
		c-3.945-2.686-5.582-7.694-3.986-12.192c2.33-6.561,3.615-13.36,3.82-20.208c0.64-21.351-14.104-40.153-34.295-43.734
		c-8.923-1.583-18.867,0.535-28.753,6.126c-6.992,3.955-13.341,8.871-18.36,14.216c-2.31,2.461-5.667,3.66-9.01,3.225
		c-3.348-0.436-6.281-2.454-7.885-5.425c-3.482-6.452-8.361-12.829-14.108-18.443c-8.124-7.936-17.192-12.529-26.226-13.284
		c-20.441-1.709-39.501,12.692-44.35,33.495c-1.931,8.285-2.222,16.897-0.866,25.6c0.506,3.25-0.54,6.55-2.827,8.915
		c-2.286,2.365-5.55,3.522-8.814,3.124c-1.933-0.235-3.846-0.316-5.694-0.24c-8.123,0.333-16.435,4.112-24.034,10.93
		c-5.211,4.674-9.738,10.046-13.093,15.534c-1.739,2.844-4.726,4.694-8.047,4.984c-3.312,0.289-6.582-1.015-8.788-3.516
		c-4.252-4.822-9.641-9.329-15.584-13.032c-8.666-5.4-17.507-7.684-25.563-6.605c-18.246,2.443-32.186,18.75-32.426,37.932
		c-0.434,34.709,29.64,60.377,54.945,75.797c5.975,3.642,12.257,6.918,18.673,9.738c5.551,2.495,10.005,4.239,14.523,5.689
		c0.208,0.067,0.468,0.135,0.797,0.209c1.018,0.229,1.975,0.601,2.851,1.095c0.772-0.655,1.648-1.206,2.612-1.624
		c0.215-0.093,0.432-0.181,0.641-0.291c4.19-2.208,8.258-4.685,13.183-8.029c5.926-3.952,11.56-8.276,16.819-12.901
		c14.932-13.129,34.001-33.806,40.053-57.752c0.928-3.672,3.762-6.56,7.416-7.557c3.656-0.997,7.562,0.052,10.227,2.744
		c1.461,1.476,2.912,2.905,4.315,4.248c5.582,5.346,11.584,10.373,17.838,14.939c5.395,4.005,9.789,6.945,14.318,9.581
		c0.19,0.109,0.396,0.2,0.6,0.299c1.052,0.512,1.989,1.182,2.793,1.972c0.984-0.484,2.056-0.818,3.18-0.975
		c0.459-0.064,0.908-0.156,1.338-0.274c5.052-1.389,10.031-3.098,16.146-5.54c6.495-2.532,12.938-5.509,19.233-8.882
		C620.861,159.918,622.566,159.5,624.276,159.5z" class="color4C1F1F svgShape"></path><path fill="#fffaf1" d="M584.881,468.535c-0.902,0-1.818-0.204-2.681-0.636c-2.964-1.483-4.163-5.088-2.68-8.051
		c9.953-19.883,25.678-35.339,48.071-47.251c4.452-2.369,8.917-4.513,13.235-6.586c15.691-7.535,29.244-14.043,38.687-28.639
		c14.194-21.94,9.731-43.007,4.564-67.4c-3.656-17.263-10.462-49.397,8.286-71.838c2.125-2.543,5.909-2.882,8.451-0.758
		c2.543,2.125,2.883,5.908,0.758,8.451c-13.85,16.578-10.232,40.519-5.755,61.658c5.479,25.87,10.655,50.305-6.229,76.405
		c-11.279,17.433-27.694,25.315-43.568,32.938c-4.208,2.021-8.561,4.11-12.795,6.363c-20.118,10.702-34.176,24.45-42.976,42.028
		C589.199,467.321,587.081,468.535,584.881,468.535z" class="colorFFFAF1 svgShape"></path><path fill="#ff69a7" d="M762.337,107.647c-9.968-1.907-20.862,0.166-31.503,5.995c-6.603,3.619-12.649,8.113-17.593,13.064
		c-3.347-6.144-7.882-12.163-13.196-17.495c-8.563-8.592-18.43-13.653-28.534-14.634c-22.467-2.18-43.634,13.237-49.229,35.869
		c-9.088,36.755,15.229,70.268,37.229,91.911c5.074,4.991,10.545,9.698,16.219,13.958c4.853,3.706,8.894,6.486,13.104,9.013
		c2.23,1.338,4.666,2.186,7.24,2.52l0,0c0.804,0.104,1.608,0.156,2.412,0.156c1.593,0,3.182-0.205,4.746-0.612
		c4.748-1.237,9.403-2.763,15.048-4.93c6.696-2.507,13.271-5.48,19.543-8.836c27.21-14.561,59.99-39.858,61.634-77.685
		C800.469,132.65,784.511,111.888,762.337,107.647z" class="colorFF69A7 svgShape"></path><path fill="#fffaf1" d="M584.892,463.846c-0.35,0-0.704-0.031-1.061-0.094c-3.262-0.582-5.435-3.698-4.854-6.96
		c5.588-31.321,2.501-50.363-11.389-70.262c-10.581-15.158-28.585-26.126-45.997-36.733c-7.323-4.462-14.241-8.676-20.658-13.2
		c-22.883-16.133-38.736-34.816-47.12-55.53c-6.218-15.363-9.941-31.405-10.769-46.393c-0.183-3.309,2.352-6.139,5.661-6.321
		c3.303-0.183,6.139,2.352,6.321,5.66c0.755,13.685,4.182,28.399,9.909,42.552c7.506,18.543,21.943,35.441,42.911,50.224
		c6.089,4.293,12.84,8.406,19.987,12.76c18.471,11.252,37.569,22.887,49.594,40.113c18.177,26.04,18.487,50.509,13.363,79.238
		C590.273,461.804,587.744,463.846,584.892,463.846z" class="colorFFFAF1 svgShape"></path><path fill="#ff69a7" d="M533.175,121.831c-4.516-23.934-25.703-41.255-49.249-40.291c-10.592,0.434-21.179,5.138-30.617,13.605
		c-5.979,5.364-11.155,11.518-15.04,17.873c-4.924-5.584-11.089-10.751-17.907-15c-10.761-6.706-22.005-9.507-32.51-8.1
		c-23.373,3.129-41.227,23.854-41.532,48.208c-0.496,39.655,32.343,68.054,59.98,84.895c6.372,3.884,13.087,7.384,19.911,10.384
		c5.842,2.626,10.635,4.5,15.54,6.075c1.932,0.62,3.915,0.932,5.92,0.932c0.654,0,1.312-0.033,1.97-0.1
		c2.488-0.252,4.879-0.975,7.107-2.148c4.553-2.399,8.943-5.07,14.193-8.635c6.239-4.161,12.246-8.771,17.854-13.702
		C513.1,194.456,540.527,160.801,533.175,121.831z" class="colorFF69A7 svgShape"></path><path fill="#fffaf1" d="M584.879,463.845c-1.15,0-2.312-0.33-3.34-1.02c-2.75-1.848-3.482-5.575-1.635-8.326
		c19.598-29.179,28.168-65.269,24.132-101.623c-2.109-18.993-9.606-36.121-17.545-54.253c-3.61-8.248-7.344-16.776-10.497-25.451
		c-11.122-30.59-11.896-63.436-2.237-94.987c0.971-3.169,4.326-4.951,7.493-3.981c3.169,0.97,4.951,4.325,3.981,7.493
		c-8.89,29.039-8.185,59.253,2.04,87.374c3.022,8.314,6.678,16.664,10.213,24.739c7.948,18.157,16.168,36.933,18.478,57.741
		c4.35,39.17-4.919,78.107-26.097,109.638C588.708,462.914,586.811,463.845,584.879,463.845z" class="colorFFFAF1 svgShape"></path><path fill="#ff2966" d="M653.082,24.382c-11.354-2.014-23.72,0.518-35.756,7.325c-7.915,4.477-15.106,10.056-20.846,16.169
		c-3.981-7.376-9.506-14.612-16.012-20.967c-9.891-9.661-21.194-15.276-32.688-16.236c-25.585-2.139-49.428,15.735-55.449,41.576
		c-9.851,42.271,18.642,80.409,44.279,104.959c5.92,5.669,12.296,11.007,18.909,15.836c5.647,4.194,10.343,7.333,15.229,10.176
		c2.49,1.448,5.2,2.351,8.055,2.682c0.799,0.093,1.598,0.139,2.396,0.139c1.857,0,3.709-0.251,5.526-0.751
		c5.443-1.497,10.779-3.326,17.256-5.914c7.676-2.992,15.206-6.519,22.382-10.484c31.067-17.167,68.375-46.739,69.676-90.123
		C696.833,52.248,678.366,28.867,653.082,24.382z" class="colorFF2966 svgShape"></path><path fill="#fffaf1" d="M689.355,641.193c-5.055,0-10.111-1.274-14.58-3.835c-6.695-3.837-10.925-9.54-15.015-15.055
		c-2.003-2.701-3.896-5.253-5.99-7.455c-6.401-6.727-15.293-9.044-25.404-11.182c-3.242-0.685-5.314-3.869-4.629-7.111
		c0.685-3.242,3.863-5.315,7.111-4.629c11.659,2.465,22.851,5.44,31.615,14.65c2.603,2.735,4.806,5.706,6.936,8.579
		c3.51,4.732,6.824,9.202,11.343,11.792c5.434,3.114,12.637,2.953,17.926-0.4c3.533-2.24,6.513-5.47,9.667-8.889
		c3.642-3.948,7.408-8.03,12.492-11.185c2.814-1.748,6.516-0.88,8.262,1.935c1.747,2.816,0.88,6.515-1.936,8.262
		c-3.697,2.294-6.758,5.612-9.999,9.125c-3.539,3.837-7.199,7.804-12.061,10.886C700.358,639.684,694.858,641.193,689.355,641.193z" class="colorFFFAF1 svgShape"></path><path fill="#fffaf1" d="M637.051,596.617c-2.909,0-5.464-2.12-5.922-5.084c-0.506-3.275,1.738-6.34,5.013-6.846
		c2.38-0.368,4.854-0.648,7.249-0.918c10.377-1.173,20.179-2.28,25.039-10.046c1.731-2.765,2.782-6.175,3.896-9.786
		c0.547-1.776,1.112-3.611,1.784-5.449c3.144-8.605,8.177-14.344,14.555-16.599c3.124-1.105,6.552,0.533,7.657,3.657
		c1.104,3.124-0.533,6.552-3.657,7.657c-3.845,1.359-6.214,6.474-7.283,9.402c-0.565,1.549-1.062,3.161-1.589,4.867
		c-1.291,4.189-2.626,8.521-5.19,12.618c-7.933,12.673-22.311,14.298-33.863,15.603c-2.379,0.269-4.626,0.523-6.763,0.853
		C637.665,596.594,637.356,596.617,637.051,596.617z" class="colorFFFAF1 svgShape"></path><path fill="#edc9d9" d="M740.104 523.605l-26.005 29.981c-3.891 4.486-10.682 4.968-15.168 1.077l-18.57-16.107c-4.486-3.891-4.968-10.682-1.077-15.168l26.005-29.981c3.891-4.486 10.682-4.968 15.168-1.077l18.57 16.107C743.512 512.328 743.995 519.119 740.104 523.605zM778.306 600.907l-32.398 22.923c-4.848 3.43-11.558 2.281-14.988-2.567l-14.199-20.068c-3.43-4.848-2.281-11.558 2.567-14.988l32.398-22.923c4.848-3.43 11.558-2.281 14.988 2.567l14.199 20.068C784.303 590.767 783.154 597.478 778.306 600.907z" class="colorEDC9D9 svgShape"></path><path fill="#db1960" d="M474.623,409.577c-4.016-5.983-10.715-9.554-17.92-9.554h-38.234c-12.139,0-22.954,7.259-27.553,18.494
		l-15.167,37.055c-0.758,1.851-0.543,3.957,0.571,5.617s2.982,2.656,4.981,2.656h77.405c2.436,0,4.63-1.473,5.553-3.727
		l12.417-30.336C479.406,423.112,478.639,415.56,474.623,409.577z" class="colorDB1960 svgShape"></path><path fill="#ff2966" d="M552.007,409.577c-4.016-5.983-10.715-9.554-17.92-9.554h-38.234c-12.139,0-22.954,7.259-27.553,18.494
		l-15.167,37.055c-0.758,1.851-0.543,3.957,0.571,5.617s2.982,2.656,4.981,2.656h77.405c2.436,0,4.63-1.473,5.553-3.727
		l12.417-30.336C556.79,423.112,556.022,415.56,552.007,409.577z" class="colorFF2966 svgShape"></path><path fill="#e3c8d3" d="M406.886,457.845h-240.27l51.671-61.434c11.876-14.12,29.733-22.322,48.596-22.322h133.318
		c20.003,0,33.651,19.501,26.153,37.368L406.886,457.845z" class="colorE3C8D3 svgShape"></path><path fill="#e3c8d3" d="M406.886,463.845h-240.27c-2.333,0-4.455-1.352-5.439-3.467s-0.654-4.609,0.848-6.395l51.671-61.434
		c13.075-15.545,32.461-24.46,53.188-24.46h133.318c11.677,0,22.427,5.685,28.757,15.206c6.125,9.213,7.192,20.324,2.929,30.484
		l-19.469,46.388C411.483,462.395,409.303,463.845,406.886,463.845z M179.502,451.845h223.394l17.926-42.71
		c2.682-6.391,2.005-13.387-1.857-19.196c-4.1-6.168-11.114-9.85-18.764-9.85H266.883c-17.176,0-33.215,7.357-44.004,20.185
		L179.502,451.845z" class="colorE3C8D3 svgShape"></path><polygon fill="#fffaf1" points="235.086 457.845 303.901 374.089 366.213 374.089 302.874 457.845" class="colorFFFAF1 svgShape"></polygon><path fill="#4a505b" d="M142.722,549.492H95.029c-21.311,0-38.005,24.895-38.005,56.676s16.694,56.676,38.005,56.676h47.692
		c3.313,0,6-2.686,6-6V555.492C148.722,552.179,146.035,549.492,142.722,549.492z" class="color4A505B svgShape"></path><path fill="#2e3742" d="M144.081,549.492c-25.952,0-47.065,25.425-47.065,56.676s21.113,56.676,47.065,56.676
		s47.065-25.425,47.065-56.676S170.032,549.492,144.081,549.492z" class="color2E3742 svgShape"></path><path d="M145.09,624.04c-6.521,0-10.903-7.182-10.903-17.871c0-10.689,4.382-17.871,10.903-17.871s10.903,7.182,10.903,17.871
		C155.993,616.858,151.611,624.04,145.09,624.04z" fill="#000000" class="color000 svgShape"></path><path fill="#2e3742" d="M560.528 549.492h-47.692c-21.312 0-38.005 24.895-38.005 56.676s16.693 56.676 38.005 56.676h47.692c3.313 0 6-2.686 6-6V555.492C566.528 552.179 563.842 549.492 560.528 549.492zM362.817 549.492h-47.692c-21.312 0-38.005 24.895-38.005 56.676s16.694 56.676 38.005 56.676h47.692c3.313 0 6-2.686 6-6V555.492C368.817 552.179 366.13 549.492 362.817 549.492z" class="color2E3742 svgShape"></path><path fill="#f7c21c" d="M556.885,451.845H101.465c-50.159,0-90.965,40.807-90.965,90.966c0,38.244,31.114,69.358,69.358,69.358
		h524.26c26.837,0,48.67-21.833,48.67-48.67v-15.75C652.788,494.867,609.766,451.845,556.885,451.845z" class="colorF7C21C svgShape"></path><ellipse cx="74.537" cy="533.532" fill="#fffaf1" rx="26.956" ry="31.488" class="colorFFFAF1 svgShape"></ellipse><ellipse cx="233.321" cy="533.532" fill="#fffaf1" rx="26.956" ry="31.488" class="colorFFFAF1 svgShape"></ellipse><path fill="#db831b" d="M182.804 508.044h-58.719c-3.313 0-6-2.686-6-6s2.687-6 6-6h58.719c3.313 0 6 2.686 6 6S186.118 508.044 182.804 508.044zM164.596 537.017h-22.302c-3.313 0-6-2.686-6-6s2.687-6 6-6h22.302c3.313 0 6 2.686 6 6S167.909 537.017 164.596 537.017zM523.935 500.999h-27.177c-3.313 0-6-2.686-6-6s2.687-6 6-6h27.177c3.313 0 6 2.686 6 6S527.248 500.999 523.935 500.999z" class="colorDB831B svgShape"></path><path fill="#4a505b" d="M363.682,549.492c-25.952,0-47.065,25.425-47.065,56.676s21.113,56.676,47.065,56.676
		c25.952,0,47.065-25.425,47.065-56.676S389.634,549.492,363.682,549.492z" class="color4A505B svgShape"></path><path fill="#ffffff" d="M364.69,624.04c-6.521,0-10.903-7.182-10.903-17.871c0-10.689,4.381-17.871,10.903-17.871
		s10.903,7.182,10.903,17.871C375.594,616.858,371.212,624.04,364.69,624.04z" class="colorFFF svgShape"></path><path fill="#4a505b" d="M561.888,549.492c-25.952,0-47.065,25.425-47.065,56.676s21.113,56.676,47.065,56.676
		c25.951,0,47.064-25.425,47.064-56.676S587.839,549.492,561.888,549.492z" class="color4A505B svgShape"></path><path fill="#ffffff" d="M562.896,624.04c-6.521,0-10.903-7.182-10.903-17.871c0-10.689,4.382-17.871,10.903-17.871
		s10.903,7.182,10.903,17.871C573.8,616.858,569.418,624.04,562.896,624.04z" class="colorFFF svgShape"></path><ellipse cx="662.023" cy="54.26" fill="#ff809e" rx="12.014" ry="18.567" transform="rotate(-48.88 662.041 54.268)" class="colorFF809E svgShape"></ellipse><ellipse cx="768.695" cy="139.63" fill="#ff9eb5" rx="9.124" ry="14.101" transform="rotate(-48.88 768.716 139.641)" class="colorFF9EB5 svgShape"></ellipse></svg></g></svg>