<svg id="SvgjsSvg1014" width="256" height="256" xmlns="http://www.w3.org/2000/svg" version="1.1" xmlns:xlink="http://www.w3.org/1999/xlink" xmlns:svgjs="http://svgjs.com/svgjs"><defs id="SvgjsDefs1015"></defs><g id="SvgjsG1016"><svg xmlns="http://www.w3.org/2000/svg" enable-background="new 0 0 50 50" viewBox="0 0 50 50" width="256" height="256"><path fill="#ffca67" d="M31.0997,12.5587c-0.4294-2.6553-0.7035-5.3334-0.7035-8.0233V4.3193
			c0.0531-1.3823-2.4192-1.6557-2.8095-1.7481C26.525,2.32,26.2868,1.362,26.0186,1h-2.0411
			c-0.2965,0.3966-0.5282,1.322-1.5721,1.5713c-0.3863,0.0923-2.8547,0.3657-2.8016,1.748v0.2161
			c0,2.6898-0.2741,5.3679-0.7035,8.0233c-0.1438,0.8894-0.1605,2.8126,0.0056,3.4706l2.0802-2.5302
			c0,0,0.0531-4.0405,0.4253-5.1392h7.1594c0.3899,1.0987,0.443,5.1392,0.443,5.1392l2.0417,2.4458
			C31.2217,15.2868,31.2434,13.448,31.0997,12.5587z" class="colorFFCA67 svgShape"></path><path fill="#efefed" d="M44.5478,46.2534c-13.1975,3.6852-26.2259,3.6375-39.0982,0.0043
				c-0.7414-0.2081-0.8498-1.2009-0.1864-1.5868c3.4057-1.988,5.9927-6.628,7.2491-10.3663
				c4.4264-13.1552,3.7449-15.0307,8.0381-20.711c0.1951-0.2558,0.4119-0.4943,0.6894-0.7457l0.1864-0.1648
				c0.4509-0.4162,0.6503-1.0405,0.5116-1.6345c-0.4639-1.9597-0.5029-4.0234-0.5029-4.0234c0.3295-1.8426,6.8112-1.8426,7.145,0
				c0,0-0.039,2.0637-0.5029,4.0234c-0.1431,0.594,0.0607,1.2183,0.5376,1.6562l0.1994,0.1777
				c0.2385,0.2168,0.4552,0.4553,0.6503,0.711c1.1229,1.4914,3.954,5.6102,4.7561,10.2753
				c0.8994,5.1612,4.8024,17.4628,10.5181,20.7934C45.4019,45.0525,45.2892,46.0453,44.5478,46.2534z" class="colorEFEFED svgShape"></path><path fill="#d7d7d7" d="M23.5086 17.4702c.2837 4.5645-.1146 9.6969-1.2781 14.6652-1.3245 5.4545-3.4055 10.0181-5.7889 13.5226 2.1802-4.7771 3.622-8.0783 4.946-13.724C22.5864 27.0113 23.0869 22.4945 23.5086 17.4702zM20.3171 19.4112c-.0711 3.9927-.805 8.5078-2.238 12.8506-1.3836 4.0662-3.4541 8.1491-6.2207 11.4551 2.1121-3.7971 3.6879-6.5515 5.3991-11.7309C18.7189 27.7016 19.5079 23.7994 20.3171 19.4112zM26.4914 17.4702c.4227 5.0361.9237 9.5474 2.121 14.4638 1.3076 5.5758 2.7136 8.8323 4.946 13.724-2.7515-4.0458-4.6437-8.8066-5.7889-13.5226C26.606 27.1671 26.2077 22.0349 26.4914 17.4702zM29.6829 19.4112c.8119 4.4027 1.6 8.2957 3.0596 12.5749 1.6632 5.0342 3.3349 8.0199 5.3991 11.7309-2.7813-3.3236-4.8465-7.4166-6.2207-11.4551C30.4879 27.9192 29.754 23.4042 29.6829 19.4112z" class="colorD7D7D7 svgShape"></path><path fill="#e9715f" d="M28.8166,12.8853l-0.1995-0.1821c-0.3295-0.3035-0.5376-0.7024-0.5723-1.1186h-1.5093
				c0.0444-0.1059,0.0695-0.2217,0.0695-0.3435c0-0.4916-0.4-0.8916-0.8916-0.8916c-0.2928,0-0.5508,0.1437-0.7135,0.3622
				c-0.1627-0.2185-0.4207-0.3622-0.7133-0.3622c-0.4916,0-0.8917,0.4-0.8917,0.8916c0,0.1218,0.0251,0.2376,0.0695,0.3435h-1.4896
				c-0.0347,0.4162-0.2341,0.8064-0.5463,1.1012l-0.1907,0.1648l-0.0347,0.0347h3.0318l-0.4464,0.5195l0.3728,0.3203l0.7216-0.8398
				h0.2341l0.7216,0.8398l0.3728-0.3203l-0.4464-0.5195H28.8166z M25.7134,10.7062c0.295,0,0.535,0.24,0.535,0.535
				c0,0.1325-0.0535,0.25-0.1335,0.3435h-0.9366v-0.3435C25.1783,10.9461,25.4184,10.7062,25.7134,10.7062z M23.7516,11.2411
				c0-0.295,0.24-0.535,0.535-0.535c0.295,0,0.535,0.24,0.535,0.535v0.3435h-0.9365
				C23.8051,11.4911,23.7516,11.3736,23.7516,11.2411z" class="colorE9715F svgShape"></path></svg></g></svg>