<svg id="SvgjsSvg1648" width="256" height="256" xmlns="http://www.w3.org/2000/svg" version="1.1" xmlns:xlink="http://www.w3.org/1999/xlink" xmlns:svgjs="http://svgjs.com/svgjs"><defs id="SvgjsDefs1649"></defs><g id="SvgjsG1650"><svg xmlns="http://www.w3.org/2000/svg" viewBox="0 0 145 145" width="256" height="256"><path fill="#f2f2f2" d="M133.94 61.387c-.52-1.79-1.12-3.56-1.8-5.28-6.26-16.06-18.82-28.97-34.65-35.69a64.5 64.5 0 0 0-9.87-3.27c-.37-.09-.74-.18-1.11-.26a64.06 64.06 0 0 0-14.01-1.54c-7.85 0-15.37 1.41-22.32 4-21.56 8.02-37.62 27.34-41.01 50.75-.44 3.02-.67 6.11-.67 9.25 0 4.2.4 8.3 1.18 12.27a63.748 63.748 0 0 0 13.8 28.87c3.59 4.28 7.74 8.08 12.32 11.3 3.3 2.32 6.83 4.33 10.56 5.99 7.98 3.58 16.83 5.57 26.14 5.57 6.43 0 12.62-.95 18.47-2.71 2.04-.61 4.03-1.32 5.97-2.12 3.41-1.41 6.66-3.1 9.74-5.05 2.96-1.88 5.75-3.99 8.35-6.3a63.999 63.999 0 0 0 17.31-25.1 63.682 63.682 0 0 0 4.16-22.72c0-6.23-.89-12.26-2.56-17.96z" class="colorF2F2F2 svgShape"></path><path fill="#f7bb52" d="M93.975 59.086 87.823 55.5c-.988-1.359-1.644-4.902-1.644-4.902l-2.539 1.654-3.536 2.531-17.871 1.671-3.594 6.429 1.418 8.284 34.526.423-.608-12.504z" class="colorF7BB52 svgShape"></path><path fill="#464e58" d="M123.36 89.797c-.01.03-.02.06-.03.1-.09.26-.2.54-.32.82-.17.39-.24.8-.2 1.22.01.14.02.3.03.48.01.18.03.38.04.6.05 1.27.04 3.02-.29 4.43-.06.27-.08.54-.05.8.03.32.07.78.1 1.36.13 2.55.06 7.19-1.92 9.15l-.42.45c-1.38 1.52-7.47 7.68-11.68 2.94 0 .09 0 .7-.07 1.62-.02.18-.03.38-.05.59-.11 1.25-.34 2.89-.79 4.59-.07.28-.15.57-.24.85-.08.29-.18.58-.28.86-.1.28-.21.56-.32.84-.12.28-.24.56-.37.83-.07.15-.14.29-.21.43-.08.14.02 5.24.39 10.71a63.675 63.675 0 0 1-9.74 5.05c-1.94.8-3.93 1.51-5.97 2.12a63.963 63.963 0 0 1-18.47 2.71c-9.31 0-18.16-1.99-26.14-5.57.15-5.47.47-12.69 1.11-16.18 0 0 1.34-12.33 1.93-15.07-.03.09-.16.51-.58.93-.28.27-.43.65-.46 1.03-.04.68-.22 1.73-.8 2.61-.16.24-.24.52-.25.8-.05 1.17-.33 4.2-1.75 6.2-.13.18-.23.38-.31.58-.44 1.13-2.14 4.9-5.71 6-.38.12-.77.17-1.17.16-1.92-.03-8.24-.51-9.37-5.42-.04-.16-.07-.31-.12-.46-.32-1.06-1.7-5.88-1.22-8.72.07-.38.11-.77.12-1.16.01-.7.09-1.85.35-2.81.09-.32.2-.62.34-.88l1.68-6.25s0-.21.02-.53c.03-.52.12-1.35.37-2.13.1-.29.06-.61-.09-.88-.47-.83-1.29-2.82-.48-5.43 0 0 .11-.4.23-1.03.03-.16.06-.34.09-.52.12-.78.21-1.77.15-2.73v-.18c-.04-.69-.01-1.38.12-2.07.23-1.24.77-3.14 2.03-5.55.22-.42.46-.86.72-1.3.12-.21.2-.44.24-.68.11-.72.51-2.52 1.96-4.4.01-.01.01-.02.02-.03.26-.35.41-.78.38-1.22-.04-.45.07-1.14.72-1.97.7-.89 2.02-1.95 4.46-3.06.23-.11.48-.22.74-.33l8.67-2.94 1.11-.03s.18-.12.5-.28c.74-.37 2.25-.98 4.19-.96 0 0 .97-1.17 3.24-1.71.07-.03.15-.04.23-.06 0-.01 0-.01.01-.01.14-.03.28-.05.42-.08l.41.34 1.6 1.32s.36.89 1.15 2.07c1.56 2.34 4.8 5.83 10.2 5.73 0 0 3.08.2 6.9-.71 1.44-.34 2.99-.84 4.52-1.57 2.06-.99 3.51-2.9 3.92-5.12.06-.33.1-.66.11-1 .05-1.47-.21-3.12-1.19-4.59.01 0 .02.01.04.02.21.09 1.08.45 1.76.23 0 0 .23-.06.63-.07.78-.01 2.22.18 3.93 1.34.16.11.35.17.54.18.56.03 1.78.14 2.68.68.23.14.51.18.77.13.99-.21 3.56-.55 5.91.98.33.22.76.24 1.1.05.96-.54 3.01-1.38 4.93-.23.03.01.06.03.08.04.2.11.42.19.64.21.35.05.89.15 1.44.41.52.24 1.06.62 1.43 1.21.17.26.4.48.67.63 1.18.65 4.39 2.82 5.84 7.8.1.33.3.64.6.83.38.23.84.69.64 1.5-.11.41-.06.84.17 1.19.58.89 1.42 2.71.45 4.79-.09.19-.14.4-.18.61-.08.57-.18 1.75 0 3.4v.01c.02.09.03.18.04.28.01.05.01.1.02.15.06.42.23.82.51 1.15.43.52 1.09 1.52 1.31 3.01l.03.22c.11.99.03 2.17-.44 3.55z" class="color464E58 svgShape"></path><path fill="#fdda7f" d="m87.91 36.071-.365-4.221s-1.266-4.404-1.266-4.759c0-.354-1.569-6.531-1.692-6.936s-3.623-2.683-3.927-2.886c-.304-.203-16.149-.709-17.01-.658-.861.051-7.692 5.012-7.692 5.012l-1.978 9.821 2.602 10.691 3.574 6.926 8.049 12.454 13.162-2.43c5.063-3.493 6.936-10.125 6.936-10.125 1.217-4.454-.393-12.889-.393-12.889z" class="colorFDDA7F svgShape"></path><ellipse cx="87.715" cy="33.687" fill="#fdda7f" rx="4.075" ry="6.242" class="colorFDDA7F svgShape"></ellipse><path fill="#25313b" d="M90.893 62.684a15.713 15.713 0 0 1-.619 1.723l-.094.213-.109.204-.216.401-.431.803-1.728 3.206-.026.048-.05.017-1.247.408-.624.206-.312.101-.317.085-1.271.33c-.212.053-.421.116-.635.159l-.645.128-1.289.252-1.3.177-.652.086-.655.051-.654.051c-.219.013-.436.041-.657.04l-1.314.025c-.219.008-.438-.007-.657-.012l-.657-.022c-.438-.007-.874-.051-1.31-.088-.217-.018-.436-.033-.653-.056l-.652-.086c-.217-.03-.435-.053-.652-.088l-.647-.115c-.433-.068-.859-.172-1.287-.264-.215-.045-.424-.108-.638-.161a13.326 13.326 0 0 1-.634-.179 9.914 9.914 0 0 1-.627-.199 9.814 9.814 0 0 1-.612-.224l-.422-.152c-.141-.053-.284-.1-.418-.164-.275-.121-.552-.237-.814-.385-.27-.131-.524-.294-.78-.451-.131-.075-.247-.169-.371-.254-.121-.088-.247-.171-.362-.269l-.348-.284c-.113-.099-.221-.204-.33-.305-.113-.099-.216-.209-.319-.318-.101-.111-.211-.214-.304-.332l-.289-.343-.269-.36c-.093-.118-.171-.246-.255-.37a5.487 5.487 0 0 1-.237-.38 10.693 10.693 0 0 1-.431-.786l-.187-.406c-.061-.136-.115-.275-.171-.413a11.709 11.709 0 0 1-.3-.843 7.806 7.806 0 0 1-.128-.428 12.481 12.481 0 0 1-.3-1.304 13.142 13.142 0 0 1-.221-2.243c.003-.002.008-.002.013-.003a12.664 12.664 0 0 0 .131 1.358 13.527 13.527 0 0 0 .249 1.307c.032.144.07.287.11.43.036.143.078.285.123.426.042.141.086.282.138.421.093.279.201.554.315.826.061.134.116.27.179.403l.196.396c.139.259.277.519.435.768.075.128.158.249.241.37.085.119.162.246.255.36l.269.348.287.333c.093.113.202.212.303.318.101.106.204.211.315.307.11.098.216.197.327.294l.345.272c.111.094.236.172.357.257.121.08.237.173.365.244.252.149.501.303.766.428.257.139.529.249.799.363.269.114.551.197.826.299l.01.003.002.002a13.037 13.037 0 0 0 1.224.411c.206.065.415.119.625.173.211.051.418.113.63.156.423.09.844.189 1.274.256l.64.109c.214.033.43.056.645.085l.645.081c.214.023.431.035.647.053.433.033.864.076 1.297.08l.65.018c.217.005.435.02.65.008l1.3-.03c.433-.015.864-.058 1.297-.086l.648-.048.645-.083 1.29-.169 1.277-.244.64-.123c.212-.043.421-.104.632-.156l1.261-.32.315-.083.31-.099.619-.199 1.191-.383 1.743-3.135.445-.794.221-.398.108-.194.095-.204a15.17 15.17 0 0 0 .635-1.694c.179-.575.328-1.161.435-1.756.053-.297.096-.595.123-.896.03-.3.043-.602.041-.904-.003-.151-.002-.302-.017-.451l-.016-.225-.027-.226a6.016 6.016 0 0 0-.186-.886c-.048-.141-.086-.289-.148-.428l-.085-.209-.1-.204a4.763 4.763 0 0 0-.488-.765c.189.236.371.481.512.751l.108.201.093.209c.066.138.108.285.161.428.091.292.164.589.209.891l.033.227.021.227c.018.153.022.305.028.458.034 1.222-.18 2.441-.525 3.61z" class="color25313B svgShape"></path><path fill="#f37c5a" d="M88.157 20.473a18.196 18.196 0 0 1-.345-1.954c-.26-2.259-1.141-7.595-3.794-9.885a3.342 3.342 0 0 1-1.072-1.703c-.118-.465-.479-.94-1.431-1.039a4.454 4.454 0 0 1-2.073-.772c-1.002-.694-2.696-1.633-4.837-1.928a6.582 6.582 0 0 1-1.876-.555c-1.62-.754-5.253-1.935-8.908.348a4.396 4.396 0 0 1-1.969.672c-1.134.092-3.083.623-4.974 2.899-.159.191-.469.069-.459-.179.015-.383.103-.86.385-1.269 0 0-1.224.313-2.234 3.729a.26.26 0 0 1-.117.151c-.618.362-4.324 2.729-4.324 7.438 0 0-.247 1.75.334 4.887a4.247 4.247 0 0 1-.629 3.074c-.854 1.325-1.64 3.817.243 7.68 0 0 4.46 8.706 6.507 10.069v-.122s-.543-3.395.701-5.954c.356-.732.509-1.548.383-2.352-.41-2.631-.66-8.403 4.648-9.825 0 0 2.155-.539 4.577.212 1.314.407 2.734.268 3.967-.341 2.922-1.442 8.029-3.322 9.97-.058 0 0 1.098.959 1.745 4.357a3.07 3.07 0 0 0 1.75 2.206c1.089.503 2.558 1.927 3.586 5.812-.001 0 1.533-9.955.246-15.598z" class="colorF37C5A svgShape"></path><path fill="#25313b" d="M108.618 112.133a9.288 9.288 0 0 1-.875-.82 24.22 24.22 0 0 1-.806-.89 39.66 39.66 0 0 1-1.494-1.878l-.024-.033-.001-.045v-.002l.025.077-1.01-1.409-.502-.706c-.161-.23-.336-.466-.503-.699l-1.031-1.385-.515-.699c-.167-.235-.335-.47-.497-.71a33.708 33.708 0 0 1-1.833-2.948c-.137-.256-.27-.513-.396-.774-.128-.26-.239-.529-.345-.798a6.214 6.214 0 0 1-.266-.83 2.615 2.615 0 0 1-.069-.431c-.006-.143-.012-.298.06-.426-.06.133-.041.283-.023.422.021.141.058.28.098.417.085.273.193.54.314.798.242.521.521 1.022.815 1.516.295.493.602.978.923 1.455.318.479.644.952.978 1.42l.503.702.516.69.518.693.515.699c.168.237.335.465.503.708l.488.712.972 1.428.026.038-.001.039v.002l-.025-.077c.46.65.925 1.297 1.411 1.928.241.317.487.63.743.935a12.904 12.904 0 0 0 .597.668c.067.074.141.142.211.213z" class="color25313B svgShape"></path><path fill="#25313b" d="M106.504 122.332c-.828-5.224-.952-13.72-.954-13.864.987 1.357 2.189 2.898 3.068 3.666 0-.001.035 5.73-2.114 10.198zM102.03 103.577c0 .08 0 .17-.01.26-.15 10.87-3.2 26.19-5.08 34.68-1.94.8-3.93 1.51-5.97 2.12 3.26-11.69 7.72-39.67 8.05-41.74.01-.08.02-.12.02-.12.48 1.03 1.37 2.56 2.99 4.8zM112.267 59.465c-4.657 4.938-8.376 16.959-9.311 20.17-.149.512-.227.801-.227.801l-.244-.133-.982-.531c2.231-10.696 6.938-18.344 8.691-20.923.199.108.413.182.639.211.346.045.886.151 1.434.405zM122.638 99.606a17.846 17.846 0 0 0-.246-.606 17.845 17.845 0 0 0-.862-1.756l-.01-.018-.001-.024V97.2l.01.041a19.78 19.78 0 0 0-1.045-1.66 20.443 20.443 0 0 0-2.553-2.966c-.472-.45-.961-.884-1.473-1.289-.256-.205-.515-.393-.784-.593a11.204 11.204 0 0 1-.769-.641c-.249-.223-.479-.464-.708-.698a18.915 18.915 0 0 0-.7-.689c-.242-.219-.482-.441-.735-.648-.251-.21-.511-.407-.776-.6a8.394 8.394 0 0 0-.829-.525c-.288-.153-.583-.302-.903-.385.326.054.638.177.937.316.302.138.589.304.872.476.563.351 1.089.758 1.592 1.19.249.221.497.443.731.672.24.227.468.46.714.671.244.214.498.417.76.608.263.188.537.387.797.591.523.409 1.026.844 1.5 1.308.239.232.469.469.696.712a17.542 17.542 0 0 1 1.843 2.344c.365.553.695 1.13.989 1.722l.011.021v.022l-.01-.041a14.78 14.78 0 0 1 .952 2.447z" class="color25313B svgShape"></path><path fill="#25313b" d="M120.515 107.22c1.577-4.947 0-9.757 0-9.757 0 3.052-1.609 4.385-1.609 4.385 1.746-5.006-.187-8.593-.28-8.764a18.384 18.384 0 0 1 2.982 4.117v.002c.579 6.856-1.093 10.017-1.093 10.017zM123.365 89.797l-.033.096c-1.67-2.085-7.424-8.182-16.989-7.331 0 0 11.144 3.204 16.5 9.85.012.184.023.388.035.605-2.823-2.506-10.446-8.741-16.04-8.344l-4.352-1.947v-2.703s8.499-7.216 15.753-9.164c-.222.108-3.886 1.899-8.168 5.734 0 0 5.876.481 11.826 4.841.012.093.021.187.035.284-2.355-1.358-7.288-3.929-11.675-4.433 0 0 8.019 3.747 13.516 8.737.01.075.02.149.028.227-2.788-2.11-10.058-7.115-14.851-5.963-.002.001 10.041 2.877 14.415 9.511zM55.999 112.706c.156-3.095.088-6.196-.294-9.271-1.01-8.128-3.673-21.895-10.445-28.441l-.663 2.156s8.279 11.506 10.381 28.129c.251 1.984.374 3.982.379 5.981.011 3.835.435 14.038 4.416 20.208-.001.001-4.266-9.01-3.774-18.762z" class="color25313B svgShape"></path><path fill="#25313b" d="M46.647 84.408s5.109 11.826 2.752 22.116c0 0 4.015-7.218-2.752-22.116z" class="color25313B svgShape"></path><path fill="#25313b" d="M45.201 93.5c4.567 3.204 5.045 7.37 5.045 7.37v-1.337c-.886-3.75-5.045-6.033-5.045-6.033zM37.797 87.981c-2.984-.335-6.125.62-7.601 1.159.03-.161.061-.338.09-.526 2.582-1.98 6.719-2.886 6.719-2.886l.792 2.253zM37.046 83.687l-.625.959s-3.483-.395-5.984 1.065a8.923 8.923 0 0 1 .119-2.071c.232-1.246.774-3.14 2.033-5.556-.036 2.632.526 6.628 4.457 5.603zM39.506 77.983s-2.901-2.687-3.979-6.301c.265-.353.416-.786.38-1.226-.036-.451.073-1.138.723-1.97.484 2.357 1.529 6.9 2.876 9.497z" class="color25313B svgShape"></path><path fill="#464e58" d="M78.311 57.838H50.505V40.71s5.13-.01 10.983-.017v-2.108l3.297-4.546h3.728l3.297 4.546v2.1c3.748.002 6.483.008 6.5.025.056.055.001 17.128.001 17.128z" class="color464E58 svgShape"></path><path fill="#25313b" d="M53.56 39.153h2.684v1.552H53.56zM56.907 38.506h2.683v2.199h-2.683z" class="color25313B svgShape"></path><path fill="#f4cf7a" d="m56.61 52.307-.03-.78-.01-.66-.02-.52-.36-2.34s.01-.2.01-.53c-.01-.01 0-.01 0-.01-.02-1.05-.21-3.41-1.55-4.43 0 0-1.83-1.31-3.58-2.33-.48-.29-.95-.55-1.38-.76.08-.01.44-.07.78-.25.26-.14.51-.37.58-.7 0 0 1.17.44 2.51.58.29.03.59.05.89.03.51 0 1.02-.08 1.45-.27.12-.05.23-.11.34-.18 0 0 .11-.6-.68-1.22l-.01-.01c-.31-.26-.76-.51-1.4-.74-.23-.08-.46-.17-.69-.27-.17-.08-.44-.17-.84-.25-.59-.13-1.48-.21-2.71-.13-.33.02-.66.05-.99.11-.28.04-.83.1-1.61.09 0 0-1.46-.13-2.21 2.26 0 0-1.37 3.55-2.83 6.33 0 0-.45.45-.43 1.84 0 .25-.08.49-.24.68-.34.39-.8 1.35-.13 3.38 0 0 1.13 2.75.64 8.64 0 0-.17 1.5-.15 2.53.01.26-.05.52-.16.75-.23.44-.6 1.29-.71 2.28-.04.23-.05.46-.05.7 0 .29-.03.59-.1.88-.32 1.18-1.21 4.48-2.43 8.61-.09.31-.18.62-.28.95v.01c-.68 2.28-1.45 4.77-2.27 7.27-.09.25-.17.51-.25.76-.18.54-.37 1.09-.56 1.63v.01c-.2.61-.41 1.2-.62 1.8-.45 1.29-.92 2.54-1.38 3.74 0 0-1.53 3.45-2.98 6.82-.02.05-.05.11-.07.16-.09.21-.18.42-.28.62-.42.9-1.79 4.06-1.69 6.88.01.61.1 1.2.28 1.75.05.14.1.28.14.43.2.78 1.03 3.7 2.6 6.75 0 0 1.33 2.69 4.84 4.02 0 0 1.74.77 3.58-.4.19-.12.36-.26.53-.4.68-.6 2.91-2.55 4.05-3.73 0 0 2.08-1.97 2.4-6.01.02-.21.02-.42.03-.63.02-1.38.1-7.16.25-13.22 0-.06.01-.13.01-.19.07-3.13.17-6.33.28-9.02v-.01c.01-.03.01-.07.01-.1v-.01c.05-1.08.1-2.07.15-2.95 0 0 .03-.3.09-.81.08-.81.22-2.17.4-3.74.32-2.85.75-6.4 1.15-8.69 0 0 .25-1.59 1.36-2.85.14-.16.3-.3.46-.43.42-.36 1.7-1.67 1.37-4.18-.02-.18-.05-.37-.09-.56 0 0 1.52-1.13 1.91-3.45h-3.42s-.04-.38 0-.88c.05-.71.24-1.66.9-2.08 0 0 1.75-.75 2.23-1.29 0 0-.35 1.73.83 2.09.42.13.88.02 1.23-.26.39-.32.91-.89 1.04-1.71v-.01c.08-.41.05-.86-.13-1.39zm-6.1-1.26c-.33.22-.65.47-.97.76 0 0-.42-.96-1.39-1.27 0 0 1.61-.61 2.36-1.77.22-.34.37-.74.38-1.18 0 0 .46 1.46 2.67 2.08 0 0-.42.09-1.03.33-.57.21-1.29.55-2.02 1.05z" class="colorF4CF7A svgShape"></path><path fill="#f7bb52" d="M56.584 51.529c-.592-.491-2.025-1.471-4.059-1.531.619-.239 1.035-.332 1.035-.332s1.712.098 3.007 1.202l.017.661zM51.718 43.975s-1.068-1.153-2.662-.083a1.873 1.873 0 0 0-.239.196c-.448.43-2.044 2.033-3.019 3.946 0 0 2.087-2.645 3.623-3.809.202-.153.429-.275.676-.335.351-.086.833-.087 1.24.332 0 0 2.759 2.501 4.855 3.784 0 0-3.442-2.932-4.474-4.031zM50.465 39.697c-.333.179-.697.24-.771.252l-.013.002c-1.891-.663-5.269 4.302-5.467 4.594 1.722-3.219 3.042-4.113 3.042-4.113 1.776-1.26 2.785-.988 3.209-.735z" class="colorF7BB52 svgShape"></path><path fill="#f4cf7a" d="M110.795 86.763c-1.574-1.165-4.959-3.99-4.959-3.99-4.202-3.964-8.732-9.775-8.732-9.775-4.023-4.5-7.212-9.924-7.212-9.924-2.205-4.709-3.308-5.236-3.308-5.236-1.168-.843-1.791-1.594-2.053-1.956a2.727 2.727 0 0 1-.225-.374c-1.447-2.875-2.911-4.578-3.656-5.338a3.672 3.672 0 0 1-.752-1.119c-.446-1.042-.901-1.561-1.121-1.77a4.076 4.076 0 0 1-.657-.779c-.718-1.144-1.07-2.73-1.07-2.73-.746-3.209-3.786-2.139-3.786-2.139l-.155 3.055.9 6.413-5.426 5.572L57.15 54.6c-.465 1.728 3.182 5.509 4.332 6.647.195.193.372.4.551.607.889 1.028 2.325 1.22 3.104 1.243.307.009.607.121.83.333 1.696 1.614 6.834 1.063 8.162.89a4.82 4.82 0 0 1 .968-.033c3.445.248 5.326 3.442 5.326 3.442 4.005 5.281 7.419 11.577 7.419 11.577L99.1 98.192c.94 1.493 2.822 2.372 2.822 2.372 3.21 1.513 5.97-3.067 5.97-3.067 2.801-3.598 4.089-6.952 4.089-6.952.47-2.781-1.186-3.782-1.186-3.782z" class="colorF4CF7A svgShape"></path><circle cx="66.631" cy="49.694" r="10.672" fill="#25313b" class="color25313B svgShape"></circle><circle cx="66.631" cy="49.694" r="9.004" fill="#7ccedc" class="color7CCEDC svgShape"></circle><circle cx="66.631" cy="49.694" r="6.258" fill="#50c6cc" class="color50C6CC svgShape"></circle><circle cx="66.631" cy="49.694" r="3.959" fill="#464e58" class="color464E58 svgShape"></circle><path fill="#464e58" d="M72.734 38.506h2.802v2.199h-2.802z" class="color464E58 svgShape"></path><path fill="#25313b" d="M72.342 39.569h3.585v1.136h-3.585z" class="color25313B svgShape"></path><path fill="#ffffff" d="M64.751 35.129h3.761v2.06h-3.761z" class="colorFFF svgShape"></path><circle cx="63.281" cy="47.585" r="1.338" fill="#ffffff" class="colorFFF svgShape"></circle></svg></g></svg>