<svg id="SvgjsSvg1114" width="256" height="256" xmlns="http://www.w3.org/2000/svg" version="1.1" xmlns:xlink="http://www.w3.org/1999/xlink" xmlns:svgjs="http://svgjs.com/svgjs"><defs id="SvgjsDefs1115"></defs><g id="SvgjsG1116"><svg xmlns="http://www.w3.org/2000/svg" viewBox="0 0 64 64" width="256" height="256"><path fill="#167ffc" d="M1 59h62v4H1z" class="colorf4f4f4 svgShape"></path><path fill="#e5e5e5" d="M63 61v2H1v-4h3c0 1.1.9 2 2 2h57Z" class="colore5e5e5 svgShape"></path><path fill="#cdf0d3" d="M3 19h58v4H3z" class="colorcdf0ea svgShape"></path><path fill="#b1e5ba" d="M61 21v2H3v-4h4c0 1.1.9 2 2 2h52Z" class="colorb1e5db svgShape"></path><path fill="#cdf0d3" d="M61 19H3L32 1l29 18z" class="colorcdf0ea svgShape"></path><path fill="#b1e5ba" d="M61 19H3L32 1l1.89 1.17L15.96 13.3C14.25 14.36 15 17 17.01 17h40.77L61 19Z" class="colorb1e5db svgShape"></path><path fill="#167ffc" d="M10 52.85V59H6v-4.79c1.43-.04 2.83-.52 4-1.36Z" class="colorf4f4f4 svgShape"></path><path fill="#e5e5e5" d="M10 57v2H6v-4.79c.68-.02 1.35-.14 2-.35V56c0 .55.45 1 1 1h1Z" class="colore5e5e5 svgShape"></path><path fill="#fad9b7" d="m11 52-.08.08c-.29.29-.59.54-.92.77a7.231 7.231 0 0 1-4 1.36c-.08.01-.16.01-.24.01-.59 0-1.18-.07-1.76-.22l1.81-19.02c1.47-.08 2.9-.37 4.25-.84l.84 16.04L11 52Z" class="colorfaf4b7 svgShape"></path><path fill="#fe9526" d="m11 52-.08.08c-.29.29-.59.54-.92.77a7.231 7.231 0 0 1-4 1.36c-.08.01-.16.01-.24.01-.59 0-1.18-.07-1.76-.22l1.81-19.02c.59-.03 1.16-.1 1.73-.2L6.15 49.4c-.09.95.64 1.82 1.59 1.82h.02c.08 0 .16 0 .24-.01 1.01-.03 2.01-.28 2.92-.72L11 52Z" class="colorefe59a svgShape"></path><path fill="#fad9b7" d="M16 49c-.5 1-1.53 1.62-2.61 1.62-.2 0-.39-.02-.58-.06l-1.91-.38-.84-16.04c1.08-.38 2.1-.88 3.06-1.48L16 49Z" class="colorfaf4b7 svgShape"></path><path fill="#fe9526" d="M16 49c-.5 1-1.53 1.62-2.61 1.62-.2 0-.39-.02-.58-.06l-1.91-.38-.84-16.04c.71-.25 1.4-.55 2.06-.91l.74 14.17c.02.46.35.84.8.93l1.15.23c.19.04.38.06.58.06.18 0 .36-.02.53-.06L16 49Z" class="colorefe59a svgShape"></path><path fill="#fad9b7" d="m20 23-.52 1.56a15.25 15.25 0 0 1-6.36 8.1c-.96.6-1.98 1.1-3.06 1.48-1.29.45-2.66.73-4.06.82-.06.01-.13.02-.19.02-.27.01-.54.02-.81.02V23h15Z" class="colorfaf4b7 svgShape"></path><path fill="#fe9526" d="M17.17 28.94a15.112 15.112 0 0 1-4.05 3.72c-.96.6-1.98 1.1-3.06 1.48-1.29.45-2.66.73-4.06.82-.06.01-.13.02-.19.02-.27.01-.54.02-.81.02V23h3v9c.27 0 .54-.01.81-.02.06 0 .13-.01.19-.02 1.4-.09 2.77-.37 4.06-.82a15.434 15.434 0 0 0 4.11-2.2Z" class="colorefe59a svgShape"></path><path fill="#167ffc" d="M54 52.85V59h4v-4.79a7.231 7.231 0 0 1-4-1.36Z" class="colorf4f4f4 svgShape"></path><path fill="#fad9b7" d="m53 52 .08.08c.29.29.59.54.92.77 1.17.84 2.57 1.32 4 1.36.08.01.16.01.24.01.59 0 1.18-.07 1.76-.22l-1.81-19.02c-1.47-.08-2.9-.37-4.25-.84l-.84 16.04L53 52Z" class="colorfaf4b7 svgShape"></path><path fill="#fe9526" d="M60 54c-.58.15-1.17.22-1.76.22-.08 0-.16 0-.24-.01a7.231 7.231 0 0 1-4-1.36c-.33-.23-.63-.48-.92-.77L53 52l.1-1.82.84-16.04c.61.21 1.23.39 1.87.52l-.71 13.52-.05.85c-.03.64.25 1.27.75 1.67.08.06.14.11.2.15 1.12.81 2.46 1.28 3.83 1.35L60 54Z" class="colorefe59a svgShape"></path><path fill="#fad9b7" d="M48 49c.5 1 1.53 1.62 2.61 1.62.2 0 .39-.02.58-.06l1.91-.38.84-16.04c-1.08-.38-2.1-.88-3.06-1.48L48 49Z" class="colorfaf4b7 svgShape"></path><path fill="#fe9526" d="m53.18 48.56-.08 1.62-1.91.38c-.19.04-.38.06-.58.06-1.08 0-2.11-.62-2.61-1.62l2.88-16.34c.49.3.99.58 1.5.83L50.12 46.3c-.1.56.09 1.15.51 1.54.53.49 1.25.78 1.98.78.2 0 .38-.02.57-.06Z" class="colorefe59a svgShape"></path><path fill="#fad9b7" d="m44 23 .52 1.56a15.25 15.25 0 0 0 6.36 8.1c.96.6 1.98 1.1 3.06 1.48 1.29.45 2.66.73 4.06.82.06.01.13.02.19.02.27.01.54.02.81.02V23H44Z" class="colorfaf4b7 svgShape"></path><path fill="#fe9526" d="M59 31.96V35c-.27 0-.54-.01-.81-.02-.06 0-.13-.01-.19-.02-1.4-.09-2.77-.37-4.06-.82-1.08-.38-2.1-.88-3.06-1.48a15.25 15.25 0 0 1-6.36-8.1L44 23h2.08a15.29 15.29 0 0 0 8.86 8.14c1.29.45 2.66.73 4.06.82Z" class="colorefe59a svgShape"></path><path fill="#c6c7f6" d="M41 42c0 7-9 9-9 9s-9-2-9-9c0-2.76 2.24-5 5-5 1.36 0 2.85.55 4 1.43 1.15-.88 2.64-1.43 4-1.43 2.76 0 5 2.24 5 5Z" class="colorf6c6ea svgShape"></path><path fill="#b6b7ef" d="M34.9 49.98C33.29 50.71 32 51 32 51s-9-2-9-9c0-2.76 2.24-5 5-5-1.21.91-2 2.37-2 4 0 6.56 7.91 8.73 8.9 8.98Z" class="colorefb6e3 svgShape"></path><path fill="#c6c7f6" d="M38.06 24.5c-.11.19-.23.35-.38.5-.78.82-2.03 1.05-3.07.52C34.53 26.9 33.4 28 32 28s-2.53-1.1-2.61-2.48c-1.04.53-2.29.3-3.07-.52-.15-.15-.27-.31-.38-.5-.7-1.21-.32-2.74.84-3.5a2.66 2.66 0 0 1-.97-1.14c-.32-.73-.3-1.61.13-2.36.7-1.21 2.22-1.64 3.45-1.02.01-.22.05-.44.12-.64a2.605 2.605 0 0 1 4.98 0c.07.2.11.42.12.64 1.23-.62 2.75-.19 3.45 1.02.43.75.45 1.63.13 2.36-.2.45-.53.85-.97 1.14 1.16.76 1.54 2.29.84 3.5Z" class="colorf6c6ea svgShape"></path><path fill="#b6b7ef" d="M38.2 24.23c-.04.09-.09.18-.14.27-.11.19-.23.35-.38.5-.78.82-2.03 1.05-3.07.52C34.53 26.9 33.4 28 32 28s-2.53-1.1-2.61-2.48c-1.04.53-2.29.3-3.07-.52-.15-.15-.27-.31-.38-.5-.7-1.21-.32-2.74.84-3.5a2.66 2.66 0 0 1-.97-1.14c-.32-.73-.3-1.61.13-2.36.49-.85 1.38-1.31 2.3-1.3-.16.57-.24 1.18-.24 1.8 0 3.87 3.13 7 7 7 1.16 0 2.24-.28 3.2-.77Z" class="colorefb6e3 svgShape"></path><circle cx="32" cy="21" r="2" fill="#fad9b7" class="colorfaf4b7 svgShape"></circle><path fill="#fe9526" d="M33.82 21.82C33.51 22.51 32.81 23 32 23c-1.1 0-2-.9-2-2 0-.81.49-1.51 1.18-1.82-.12.25-.18.53-.18.82 0 1.1.9 2 2 2 .29 0 .57-.06.82-.18Z" class="colorefe59a svgShape"></path><path fill="#aadfb3" d="M45 18v2c0 2.76-2.24 5-5 5h-2.32c.15-.15.27-.31.38-.5.7-1.21.32-2.74-.84-3.5.44-.29.77-.69.97-1.14a5.03 5.03 0 0 0 2.72-1.74c.36-.08.71-.12 1.09-.12h3Z" class="colorc4dfaa svgShape"></path><path fill="#53d86a" d="M44.39 22.39A4.994 4.994 0 0 1 40 25h-2.32c.15-.15.27-.31.38-.5.7-1.21.32-2.74-.84-3.5.44-.29.77-.69.97-1.14.47-.12.92-.3 1.33-.55.36.5.44 1.34.42 2.09-.03.87.67 1.6 1.54 1.6H42c.87 0 1.68-.22 2.39-.61Z" class="coloradc98f svgShape"></path><path fill="#aadfb3" d="M42 13v2c0 1.18-.41 2.26-1.09 3.12a5.03 5.03 0 0 1-2.72 1.74c.32-.73.3-1.61-.13-2.36a2.622 2.622 0 0 0-3.45-1.02c-.01-.22-.05-.44-.12-.64A5.001 5.001 0 0 1 39 13h3Z" class="colorc4dfaa svgShape"></path><path fill="#53d86a" d="M41.85 16.19c-.17.72-.5 1.37-.94 1.93a5.03 5.03 0 0 1-2.72 1.74c.32-.73.3-1.61-.13-2.36a2.622 2.622 0 0 0-3.45-1.02c-.01-.22-.05-.44-.12-.64.31-.63.73-1.18 1.25-1.63 1.26-.08 2.8.39 3.32 1.29.13.23.22.47.28.71.2.86 1.28 1.14 1.94.56.21-.17.4-.37.57-.58Z" class="coloradc98f svgShape"></path><path fill="#aadfb3" d="M25.94 24.5c.11.19.23.35.38.5H24c-2.76 0-5-2.24-5-5v-2h3c.38 0 .73.04 1.09.12a5.03 5.03 0 0 0 2.72 1.74c.2.45.53.85.97 1.14a2.616 2.616 0 0 0-.84 3.5Z" class="colorc4dfaa svgShape"></path><path fill="#53d86a" d="M26.32 25H24c-2.76 0-5-2.24-5-5v-2h2c0 2.62 2.03 4.78 4.6 4.98-.05.51.06 1.04.34 1.52.11.19.23.35.38.5Z" class="coloradc98f svgShape"></path><path fill="#aadfb3" d="M29.51 15.84c-.07.2-.11.42-.12.64a2.622 2.622 0 0 0-3.45 1.02 2.63 2.63 0 0 0-.13 2.36 5.03 5.03 0 0 1-2.72-1.74A5.009 5.009 0 0 1 22 15v-2h3c1.99 0 3.7 1.16 4.51 2.84Z" class="colorc4dfaa svgShape"></path><path fill="#53d86a" d="M25.81 19.86a5.03 5.03 0 0 1-2.72-1.74A5.009 5.009 0 0 1 22 15v-2h2v1c0 1.18.41 2.26 1.09 3.12.21.26.44.49.69.69v.01c-.27.68-.24 1.41.03 2.04Z" class="coloradc98f svgShape"></path><path fill="#e5e5e5" d="M58 57v2h-4v-6.15c.61.44 1.29.78 2 1.01V56c0 .55.45 1 1 1h1Z" class="colore5e5e5 svgShape"></path><g fill="#595bd4" class="color354259 svgShape"><path d="M63 58h-4v-2.827c.424-.04.844-.1 1.25-.205a.999.999 0 0 0 .745-1.063l-1.708-17.952c.02-.006.038-.016.058-.023.026-.01.051-.018.076-.03.367-.148.541-.528.579-.9V24h1a1 1 0 0 0 1-1v-4a1.152 1.152 0 0 0-.473-.85l-29-18c-.323-.2-.731-.2-1.054 0l-29 18A1.153 1.153 0 0 0 2 19v4a1 1 0 0 0 1 1h1v11c.038.372.213.751.578.9.026.012.052.02.078.03.02.008.037.017.057.023L3.004 53.905a1 1 0 0 0 .746 1.063c.406.105.826.166 1.25.205V58H1a1 1 0 0 0-1 1v4a1 1 0 0 0 1 1h62a1 1 0 0 0 1-1v-4a1 1 0 0 0-1-1Zm-52 0v-4.657c.217-.174.427-.356.627-.556l.08-.08a1 1 0 0 0 .292-.762l-.028-.532.633.126c.26.054.518.081.786.081a3.952 3.952 0 0 0 3.505-2.173c.095-.192.127-.41.09-.62l-2.767-15.698a16.227 16.227 0 0 0 6.21-8.248l.018-.058A5.96 5.96 0 0 0 24 26h1.942a3.641 3.641 0 0 0 2.724.775C29.214 28.086 30.506 29 32 29s2.786-.914 3.334-2.225A3.62 3.62 0 0 0 38.06 26H40a5.96 5.96 0 0 0 3.554-1.177l.02.058a16.229 16.229 0 0 0 6.208 8.248l-2.766 15.698a.995.995 0 0 0 .09.62 3.953 3.953 0 0 0 3.504 2.173c.269 0 .526-.027.776-.08l.644-.127-.028.532a.998.998 0 0 0 .29.762l.081.08c.2.201.411.383.627.557V58H11Zm-5.127-4.782a6.825 6.825 0 0 1-.791-.035l1.645-17.285c.818-.087 1.62-.232 2.401-.437l.848 16.136a5.79 5.79 0 0 1-.56.44 6.4 6.4 0 0 1-3.543 1.181Zm6.509-18.985 2.57 14.577c-.433.604-1.166.934-1.947.77l-1.143-.228-.765-14.54c.436-.176.867-.366 1.285-.58ZM4 22v-2h14c0 .702.128 1.373.35 2H4Zm38-3h2v1c0 2.206-1.794 4-4 4h-.68a3.632 3.632 0 0 0-.652-3c.078-.102.143-.212.209-.32a5.966 5.966 0 0 0 2.513-1.613c.2-.031.4-.067.61-.067Zm-1-4c0 1.31-.638 2.486-1.645 3.223A3.566 3.566 0 0 0 38.928 17a3.598 3.598 0 0 0-2.796-1.781A3.965 3.965 0 0 1 39 14h2v1Zm-7.388 1.535a1 1 0 0 0 1.448.837 1.621 1.621 0 0 1 2.135.628c.428.74.198 1.691-.522 2.164a1 1 0 0 0 0 1.672c.72.473.95 1.423.522 2.165a1.59 1.59 0 0 1-.222.291l-.001.002a1.625 1.625 0 0 1-1.911.335.997.997 0 0 0-1.449.837A1.621 1.621 0 0 1 32 27a1.62 1.62 0 0 1-1.612-1.535 1.001 1.001 0 0 0-1.449-.836 1.623 1.623 0 0 1-1.912-.336 1.59 1.59 0 0 1-.223-.293 1.621 1.621 0 0 1 .523-2.163 1 1 0 0 0 0-1.673A1.62 1.62 0 0 1 26.804 18a1.62 1.62 0 0 1 2.135-.628 1.002 1.002 0 0 0 1.45-.837A1.62 1.62 0 0 1 32 15c.856 0 1.564.674 1.612 1.535Zm-8.54.465a3.58 3.58 0 0 0-.427 1.222A3.986 3.986 0 0 1 23 15v-1h2c1.11 0 2.13.453 2.87 1.222A3.604 3.604 0 0 0 25.072 17Zm-2.461 2.067a5.968 5.968 0 0 0 2.511 1.612c.066.11.132.219.21.321a3.632 3.632 0 0 0-.652 3H24c-2.206 0-4-1.794-4-4v-1h2c.21 0 .41.036.61.067Zm34.663 16.83 1.644 17.287c-.224.024-.45.036-.678.036-.037 0-.077.002-.212-.01a6.292 6.292 0 0 1-3.457-1.18 5.81 5.81 0 0 1-.548-.433l.85-16.136c.781.205 1.583.35 2.4.437Zm-5.136 13.455-1.154.23c-.72.148-1.504-.17-1.935-.773l2.569-14.576c.418.213.848.403 1.285.58l-.764 14.539ZM55 54.534a7.94 7.94 0 0 0 2 .576V58h-2v-3.466Zm3-21.52c-1.435-1.22-3.452-3.376-4.02-6.21a1 1 0 0 0-1.961.393c.552 2.76 2.185 4.93 3.672 6.41a14.24 14.24 0 0 1-10.221-9.359L45.387 24H58v9.014ZM60 22H45.65a5.96 5.96 0 0 0 .35-2h14v2ZM32 2.177 57.493 18H46a1 1 0 0 0-1-1h-2.342A6.012 6.012 0 0 0 43 15v-2a1 1 0 0 0-1-1h-3a5.95 5.95 0 0 0-4.493 2.024C33.855 13.392 32.972 13 32 13s-1.855.392-2.507 1.024A5.95 5.95 0 0 0 25 12h-3a1 1 0 0 0-1 1v2c0 .698.12 1.371.342 2H19a1 1 0 0 0-1 1H6.507L32 2.177ZM18.613 24l-.083.248a14.237 14.237 0 0 1-10.221 9.36c1.487-1.482 3.12-3.652 3.671-6.412a1 1 0 0 0-1.96-.392c-.565 2.82-2.584 4.98-4.02 6.205v-9.01h12.612ZM7 55.11a8.107 8.107 0 0 0 2-.577V58H7v-2.89ZM62 62H2v-2h60v2Z" fill="none"></path><path d="M36 36c-1.321 0-2.77.446-4 1.215C30.772 36.446 29.322 36 28 36c-3.309 0-6 2.691-6 6 0 7.713 9.384 9.887 9.783 9.976a.984.984 0 0 0 .434 0C32.617 51.887 42 49.713 42 42c0-3.309-2.691-6-6-6zm-4 13.968c-1.305-.351-8-2.43-8-7.968 0-2.206 1.794-4 4-4 1.123 0 2.391.458 3.392 1.224a1 1 0 0 0 1.216 0C33.609 38.458 34.878 38 36 38c2.206 0 4 1.794 4 4 0 5.539-6.695 7.617-8 7.968zM29 21c0 1.654 1.346 3 3 3s3-1.346 3-3-1.346-3-3-3-3 1.346-3 3zm4 0c0 .551-.449 1-1 1s-1-.449-1-1 .449-1 1-1 1 .449 1 1z" fill="none"></path></g></svg></g></svg>